<svg width="317" height="132" viewBox="0 0 317 132" fill="none" xmlns="http://www.w3.org/2000/svg">
<path d="M124.312 0H20.7552V132H124.312V0Z" fill="white"/>
<path d="M37.9316 38.5569C41.3535 38.5569 44.1276 36.2735 44.1276 33.4568C44.1276 30.64 41.3535 28.3566 37.9316 28.3566C34.5097 28.3566 31.7357 30.64 31.7357 33.4568C31.7357 36.2735 34.5097 38.5569 37.9316 38.5569Z" fill="#AB8FE2" stroke="#F2F2F2" stroke-width="3" stroke-miterlimit="10"/>
<path d="M37.9316 56.1091C41.3535 56.1091 44.1276 53.8256 44.1276 51.0089C44.1276 48.1922 41.3535 45.9087 37.9316 45.9087C34.5097 45.9087 31.7357 48.1922 31.7357 51.0089C31.7357 53.8256 34.5097 56.1091 37.9316 56.1091Z" fill="#AB8FE2" stroke="#F2F2F2" stroke-width="3" stroke-miterlimit="10"/>
<path d="M37.9316 73.661C41.3535 73.661 44.1276 71.3776 44.1276 68.5608C44.1276 65.7441 41.3535 63.4607 37.9316 63.4607C34.5097 63.4607 31.7357 65.7441 31.7357 68.5608C31.7357 71.3776 34.5097 73.661 37.9316 73.661Z" stroke="#F2F2F2" stroke-width="3" stroke-miterlimit="10"/>
<path d="M37.9316 91.2094C41.3535 91.2094 44.1276 88.926 44.1276 86.1093C44.1276 83.2925 41.3535 81.0091 37.9316 81.0091C34.5097 81.0091 31.7357 83.2925 31.7357 86.1093C31.7357 88.926 34.5097 91.2094 37.9316 91.2094Z" stroke="#F2F2F2" stroke-width="3" stroke-miterlimit="10"/>
<path d="M37.9316 108.762C41.3535 108.762 44.1276 106.478 44.1276 103.661C44.1276 100.845 41.3535 98.5612 37.9316 98.5612C34.5097 98.5612 31.7357 100.845 31.7357 103.661C31.7357 106.478 34.5097 108.762 37.9316 108.762Z" stroke="#F2F2F2" stroke-width="3" stroke-miterlimit="10"/>
<path d="M105.143 10.7362H31.7313V16.7176H105.143V10.7362Z" fill="#F2F2F2"/>
<path d="M132.75 85.3H48.4971V86.9186H132.75V85.3Z" fill="#F2F2F2"/>
<path d="M132.75 102.849H48.4971V104.467H132.75V102.849Z" fill="#F2F2F2"/>
<path d="M132.75 31.2843H48.4971V32.9029H132.75V31.2843Z" fill="#F2F2F2"/>
<path d="M48.7549 35.6328H111.226" stroke="black" stroke-miterlimit="10"/>
<path d="M132.75 48.8364H48.4971V50.4549H132.75V48.8364Z" fill="#F2F2F2"/>
<path d="M48.7549 53.1813H111.226" stroke="black" stroke-miterlimit="10"/>
<path d="M132.75 66.3885H48.4971V68.007H132.75V66.3885Z" fill="#F2F2F2"/>
<path d="M48.7549 70.7333H111.226" stroke="black" stroke-miterlimit="10"/>
<path d="M109.316 128.191C114.763 128.191 119.178 124.557 119.178 120.073C119.178 115.59 114.763 111.955 109.316 111.955C103.87 111.955 99.4543 115.59 99.4543 120.073C99.4543 124.557 103.87 128.191 109.316 128.191Z" fill="#78E5E1"/>
<path d="M113.489 120.85H110.282V123.508H108.364V120.85H105.156V119.264H108.364V116.624H110.295V119.264H113.502L113.489 120.85Z" fill="white"/>
<g clip-path="url(#clip0)">
<path d="M292.478 0H189.616V132H292.478V0Z" fill="white"/>
<path d="M169 80.5667H274.466" stroke="black" stroke-miterlimit="10"/>
<path d="M169 89.199H274.466" stroke="black" stroke-miterlimit="10"/>
<path d="M169 97.8311H274.466" stroke="black" stroke-miterlimit="10"/>
<path d="M169 106.463H274.466" stroke="black" stroke-miterlimit="10"/>
<path d="M241.047 60.7848C255.908 60.7848 267.956 50.8008 267.956 38.485C267.956 26.1692 255.908 16.1853 241.047 16.1853C226.185 16.1853 214.138 26.1692 214.138 38.485C214.138 50.8008 226.185 60.7848 241.047 60.7848Z" fill="#F2F2F2"/>
<path opacity="0.7" d="M317 46.9373H274.466V79.6676H317V46.9373Z" fill="#50B89D"/>
<path d="M289.766 73.9183L300.193 78.1325V81.3972L286.568 75.0843V72.6524L300.193 66.3561V69.6208L289.766 73.9183ZM288.317 126.727H285.669L295.796 100.393H298.428L288.317 126.727ZM298.611 153.818L287.601 149.504V146.339L301.826 152.636V155.068L287.601 161.381V158.182L298.611 153.818Z" fill="white"/>
</g>
<defs>
<clipPath id="clip0">
<rect width="148" height="132" fill="white" transform="translate(169)"/>
</clipPath>
</defs>
</svg>
