<svg width="512" height="512" viewBox="0 0 512 512" fill="none" xmlns="http://www.w3.org/2000/svg">
<g clip-path="url(#clip0)">
<path d="M40.0645 207.377L288.54 47L362.333 161.329L113.858 321.706L40.0645 207.377Z" fill="#FFB649"/>
<path d="M472 244.143C472 281.975 441.332 312.643 403.5 312.643C365.668 312.643 335 281.975 335 244.143C335 206.312 365.668 175.643 403.5 175.643C441.332 175.643 472 206.312 472 244.143Z" fill="#FF5C00"/>
<path d="M275 232.643L375 405.643H175L275 232.643Z" fill="#038DB2"/>
<path d="M103.876 218.218L64.3172 310.069H43.4281L4 218.218H26.8474L54.656 283.826L82.8563 218.218H103.876Z" fill="#444444"/>
<path d="M192.06 293.011V310.069H121.298V218.218H190.363V235.276H142.318V255.221H184.749V271.754H142.318V293.011H192.06Z" fill="#444444"/>
<path d="M276.908 310.069L259.283 284.482H258.239H239.83V310.069H218.68V218.218H258.239C266.333 218.218 273.34 219.574 279.258 222.285C285.264 224.997 289.877 228.846 293.097 233.832C296.318 238.819 297.928 244.723 297.928 251.547C297.928 258.37 296.274 264.274 292.967 269.261C289.747 274.159 285.133 277.921 279.128 280.545L299.625 310.069H276.908ZM276.517 251.547C276.517 246.385 274.863 242.449 271.556 239.737C268.248 236.938 263.418 235.538 257.064 235.538H239.83V267.555H257.064C263.418 267.555 268.248 266.155 271.556 263.356C274.863 260.557 276.517 256.62 276.517 251.547Z" fill="#444444"/>
<path d="M354.505 311.643C347.281 311.643 340.274 310.681 333.485 308.756C326.783 306.744 321.387 304.164 317.296 301.015L324.477 285.006C328.394 287.893 333.05 290.211 338.447 291.961C343.843 293.71 349.239 294.585 354.636 294.585C360.641 294.585 365.08 293.71 367.952 291.961C370.825 290.124 372.261 287.718 372.261 284.744C372.261 282.557 371.39 280.764 369.65 279.364C367.996 277.877 365.82 276.696 363.122 275.821C360.511 274.947 356.942 273.984 352.416 272.935C345.453 271.273 339.752 269.611 335.313 267.948C330.874 266.286 327.045 263.618 323.824 259.944C320.691 256.27 319.124 251.372 319.124 245.248C319.124 239.912 320.56 235.101 323.433 230.814C326.305 226.441 330.613 222.985 336.358 220.448C342.189 217.912 349.283 216.643 357.638 216.643C363.47 216.643 369.171 217.343 374.741 218.743C380.312 220.142 385.186 222.154 389.364 224.779L382.836 240.918C374.393 236.107 365.95 233.701 357.508 233.701C351.589 233.701 347.194 234.663 344.322 236.588C341.536 238.512 340.144 241.049 340.144 244.198C340.144 247.348 341.754 249.709 344.974 251.284C348.282 252.771 353.286 254.258 359.988 255.745C366.951 257.407 372.652 259.07 377.091 260.732C381.53 262.394 385.316 265.018 388.45 268.605C391.67 272.191 393.28 277.046 393.28 283.169C393.28 288.418 391.801 293.229 388.841 297.603C385.969 301.89 381.617 305.301 375.786 307.838C369.954 310.375 362.861 311.643 354.505 311.643Z" fill="#444444"/>
<path d="M477.711 290.386H435.28L427.185 310.069H405.513L446.247 218.218H467.136L508 310.069H485.805L477.711 290.386ZM471.052 274.247L456.561 239.081L442.069 274.247H471.052Z" fill="#444444"/>
<path fill-rule="evenodd" clip-rule="evenodd" d="M107.294 216.21L65.3258 313.076H40.8296L-1 216.21H27.8185L53.8807 277.332L80.3101 216.21H107.294ZM53.8632 284.234L26.0184 218.931H3.14112L42.6207 310.355H63.537L103.147 218.931H82.1003L53.8632 284.234ZM194.17 290.655V313.076H117.869V216.21H192.47V238.631H144.363V253.041H186.849V274.939H144.363V290.655H194.17ZM141.639 272.218H184.126V255.762H141.639V235.91H189.747V218.931H120.592V310.355H191.446V293.376H141.639V272.218ZM274.979 313.076L257.331 287.608H242.003V313.076H215.378V216.21H257.712C266.111 216.21 273.527 217.608 279.882 220.501C286.314 223.39 291.36 227.543 294.9 232.992C298.452 238.458 300.176 244.868 300.176 252.105C300.176 259.354 298.403 265.771 294.756 271.24C291.772 275.749 287.725 279.339 282.689 282.029L304.374 313.076H274.979ZM278.628 280.969C279.487 280.596 280.317 280.2 281.119 279.78C285.932 277.264 289.721 273.916 292.485 269.737C295.797 264.774 297.453 258.897 297.453 252.105C297.453 245.314 295.84 239.436 292.616 234.473C289.391 229.51 284.772 225.679 278.759 222.98C272.833 220.281 265.817 218.931 257.712 218.931H218.101V310.355H239.279V284.887H258.758L276.406 310.355H299.152L278.628 280.969ZM269.308 242.446L269.292 242.432C266.656 240.215 262.548 238.892 256.535 238.892H242.003V265.318H256.535C262.548 265.318 266.656 263.996 269.292 261.778C271.883 259.598 273.29 256.502 273.29 252.105C273.29 247.602 271.872 244.536 269.324 242.459L269.308 242.446ZM239.279 268.039V236.171H256.535C262.897 236.171 267.734 237.564 271.046 240.351C274.358 243.05 276.014 246.968 276.014 252.105C276.014 257.155 274.358 261.073 271.046 263.86C267.734 266.646 262.897 268.039 256.535 268.039H239.279ZM332.297 311.662L332.277 311.656C325.355 309.59 319.624 306.897 315.19 303.503L313.476 302.192L322.935 281.229L325.647 283.215C329.298 285.89 333.689 288.075 338.86 289.742C344.007 291.401 349.129 292.223 354.234 292.223C360.067 292.223 363.896 291.363 366.132 290.02C368.342 288.607 369.159 287.018 369.159 285.148C369.159 283.821 368.682 282.81 367.567 281.918L367.508 281.871L367.452 281.821C366.147 280.655 364.332 279.642 361.895 278.857L361.883 278.853L361.87 278.848C359.374 278.017 355.896 277.082 351.4 276.045L351.391 276.043L351.383 276.041C344.35 274.372 338.524 272.688 333.936 270.98C329.058 269.165 324.852 266.246 321.339 262.262L321.327 262.249L321.315 262.235C317.652 257.965 315.953 252.403 315.953 245.836C315.953 240.006 317.54 234.687 320.725 229.959C323.944 225.092 328.708 221.351 334.837 218.661L334.844 218.658L334.851 218.655C341.121 215.943 348.614 214.643 357.241 214.643C363.299 214.643 369.23 215.366 375.027 216.814C380.837 218.265 385.99 220.369 390.451 223.154L392.393 224.367L383.826 245.422L381.128 243.893C373.022 239.301 365.027 237.064 357.11 237.064C351.395 237.064 347.647 238.003 345.434 239.469C343.327 240.922 342.447 242.638 342.447 244.791C342.447 245.867 342.715 246.69 343.179 247.367C343.654 248.059 344.441 248.754 345.714 249.379C348.77 250.738 353.551 252.165 360.181 253.628L360.202 253.632L360.223 253.637C367.256 255.306 373.082 256.99 377.67 258.698C382.532 260.507 386.695 263.374 390.127 267.274C393.906 271.466 395.653 277.006 395.653 283.581C395.653 289.353 394.006 294.672 390.741 299.471C387.513 304.259 382.696 307.95 376.494 310.632C370.224 313.343 362.731 314.643 354.104 314.643C346.626 314.643 339.361 313.653 332.317 311.668L332.297 311.662ZM388.485 297.947C391.448 293.594 392.929 288.805 392.929 283.581C392.929 277.486 391.317 272.654 388.093 269.084C384.955 265.514 381.164 262.902 376.719 261.247C372.275 259.593 366.566 257.939 359.594 256.284C352.883 254.804 347.872 253.324 344.56 251.844C341.336 250.277 339.724 247.926 339.724 244.791C339.724 241.657 341.118 239.132 343.907 237.216C346.783 235.301 351.184 234.343 357.11 234.343C364.76 234.343 372.411 236.304 380.061 240.225C380.864 240.637 381.668 241.071 382.471 241.526L389.008 225.462C384.824 222.85 379.944 220.847 374.366 219.454C368.789 218.061 363.08 217.364 357.241 217.364C348.874 217.364 341.772 218.627 335.932 221.152C330.18 223.677 325.866 227.116 322.99 231.469C320.114 235.736 318.677 240.525 318.677 245.836C318.677 251.931 320.245 256.807 323.383 260.464C326.607 264.121 330.442 266.776 334.887 268.431C339.331 270.085 345.04 271.739 352.012 273.394C356.544 274.439 360.117 275.396 362.732 276.267C365.433 277.138 367.612 278.313 369.268 279.793C371.011 281.187 371.882 282.971 371.882 285.148C371.882 288.109 370.444 290.503 367.568 292.331C364.692 294.073 360.248 294.944 354.234 294.944C348.831 294.944 343.428 294.073 338.024 292.331C333.634 290.917 329.733 289.128 326.321 286.966C325.533 286.467 324.772 285.948 324.036 285.409L316.846 301.343C320.942 304.478 326.346 307.046 333.056 309.049C339.854 310.964 346.87 311.922 354.104 311.922C362.47 311.922 369.573 310.66 375.412 308.135C381.251 305.61 385.609 302.214 388.485 297.947ZM485.575 310.355L477.47 290.764H434.984L426.879 310.355H405.178L445.965 218.931H466.881L507.799 310.355H485.575ZM436.805 293.485L428.7 313.076H400.982L444.197 216.21H468.647L512 313.076H483.754L475.649 293.485H436.805ZM456.292 239.698L441.782 274.7H470.803L456.292 239.698ZM456.292 246.808L445.857 271.979H466.727L456.292 246.808Z" fill="#444444"/>
</g>
<defs>
<clipPath id="clip0">
<rect width="512" height="512" fill="white"/>
</clipPath>
</defs>
</svg>
