<svg width="332" height="226" viewBox="0 0 332 226" fill="none" xmlns="http://www.w3.org/2000/svg">
<g clip-path="url(#clip0)">
<path d="M148.037 186.488C163.577 186.488 176.174 184.116 176.174 181.189C176.174 178.262 163.577 175.89 148.037 175.89C132.497 175.89 119.9 178.262 119.9 181.189C119.9 184.116 132.497 186.488 148.037 186.488Z" fill="black"/>
<path d="M148.037 181.189L132.232 223.337" stroke="black" stroke-width="4" stroke-miterlimit="10" stroke-linecap="round"/>
<path d="M148.037 181.189L163.842 223.337" stroke="black" stroke-width="4" stroke-miterlimit="10" stroke-linecap="round"/>
<path d="M137.422 209.498L155.041 199.872" stroke="black" stroke-width="2" stroke-miterlimit="10" stroke-linecap="round"/>
<path d="M140.962 199.872L158.586 209.498" stroke="black" stroke-width="2" stroke-miterlimit="10" stroke-linecap="round"/>
<path d="M175.728 135.565C175.657 137.434 175.688 143.979 175.327 146.779" stroke="#1F161E" stroke-miterlimit="10" stroke-linecap="round"/>
<path d="M85.2092 52.7885C85.2092 51.4605 83.9456 50.3839 82.387 50.3839C80.8283 50.3839 79.5648 51.4605 79.5648 52.7885V61.089C79.5648 62.417 80.8283 63.4937 82.387 63.4937C83.9456 63.4937 85.2092 62.417 85.2092 61.089V52.7885Z" fill="black"/>
<path d="M82.387 77.4467C85.5141 77.4467 88.0491 75.2867 88.0491 72.6222C88.0491 69.9577 85.5141 67.7977 82.387 67.7977C79.2598 67.7977 76.7248 69.9577 76.7248 72.6222C76.7248 75.2867 79.2598 77.4467 82.387 77.4467Z" fill="#FBDC8E"/>
<path d="M271.682 129.92H274.357C274.638 129.919 274.907 129.823 275.106 129.654C275.305 129.485 275.417 129.255 275.418 129.016V115.006C275.419 114.887 275.391 114.769 275.338 114.66C275.284 114.55 275.205 114.451 275.106 114.368L271.727 111.488C271.629 111.404 271.512 111.337 271.383 111.291C271.255 111.246 271.117 111.222 270.978 111.222H260.995C260.714 111.223 260.445 111.319 260.246 111.488C260.048 111.657 259.935 111.887 259.934 112.126V113.479" fill="#FBDC8E"/>
<path d="M39.2607 163.35C47.7317 164.717 46.2203 207.796 29.9605 205.19C14.6057 202.706 28.9262 161.674 39.2607 163.35Z" fill="black"/>
<path d="M2.06844 168.668C8.80956 165.416 37.0268 195.67 24.1197 201.893C11.926 207.796 -6.13949 172.634 2.06844 168.668Z" fill="#FBDC8E"/>
<path d="M36.4208 226H19.3985C18.7129 226 18.0514 225.784 17.5406 225.395C17.0298 225.005 16.7056 224.468 16.6299 223.888L14.4809 207.447C14.4343 207.113 14.4712 206.775 14.589 206.454C14.7068 206.134 14.903 205.838 15.1645 205.587C15.4261 205.336 15.7471 205.135 16.1065 204.997C16.4659 204.859 16.8555 204.788 17.2496 204.787H38.4805C38.8715 204.788 39.2581 204.858 39.6151 204.994C39.9721 205.13 40.2915 205.328 40.5526 205.576C40.8138 205.824 41.0107 206.116 41.1308 206.433C41.2508 206.75 41.2911 207.085 41.2492 207.416L39.1939 223.857C39.1254 224.444 38.8038 224.988 38.2914 225.384C37.779 225.779 37.1124 225.999 36.4208 226Z" fill="#969696"/>
<path d="M44.0446 146.574C50.496 148.17 45.5516 181.421 33.1973 178.359C21.5341 175.472 36.1934 144.629 44.0446 146.574Z" fill="#AB8DE5"/>
<path d="M54.6824 173.029C59.1408 176.304 41.004 201.353 32.4349 195.062C24.3429 189.148 49.2387 169.048 54.6824 173.029Z" fill="#FBDC8E"/>
<path d="M27.9542 150.031C37.6111 150.031 46.4522 202.569 27.9542 202.569C10.4862 202.569 16.1974 150.031 27.9542 150.031Z" fill="#78E5E1"/>
<path d="M44.9006 201.232H10.9276C9.93032 201.232 9.1219 201.92 9.1219 202.77V205.574C9.1219 206.423 9.93032 207.112 10.9276 207.112H44.9006C45.8979 207.112 46.7063 206.423 46.7063 205.574V202.77C46.7063 201.92 45.8979 201.232 44.9006 201.232Z" fill="#D8D8D8"/>
<path d="M267.188 113.479H257.38C257.222 113.479 257.067 113.505 256.921 113.557C256.776 113.608 256.644 113.683 256.533 113.778C256.422 113.873 256.334 113.986 256.274 114.11C256.215 114.234 256.184 114.367 256.185 114.501V131.139C256.185 131.41 256.31 131.669 256.534 131.861C256.758 132.052 257.062 132.16 257.38 132.161H270.483C270.8 132.16 271.104 132.052 271.328 131.861C271.552 131.669 271.678 131.41 271.678 131.139V117.312C271.678 117.178 271.648 117.045 271.588 116.921C271.528 116.797 271.441 116.685 271.33 116.59L268.031 113.779C267.808 113.588 267.504 113.48 267.188 113.479Z" fill="#D8D8D8"/>
<path d="M271.682 116.913H268.352C268.174 116.913 268.004 116.853 267.879 116.746C267.753 116.639 267.683 116.494 267.683 116.343V113.479" fill="#969696"/>
<path d="M275.432 114.66H272.101C271.923 114.659 271.753 114.598 271.627 114.491C271.501 114.384 271.429 114.238 271.428 114.086V111.222" fill="#64CCC4"/>
<path d="M256.198 94.4579H233.211C232.464 94.4579 231.86 94.9733 231.86 95.609V102.006C231.86 102.642 232.464 103.157 233.211 103.157H256.198C256.944 103.157 257.549 102.642 257.549 102.006V95.609C257.549 94.9733 256.944 94.4579 256.198 94.4579Z" fill="#78E5E1"/>
<path d="M244.7 109.121L247.794 101.136H241.606L244.7 109.121Z" fill="#78E5E1"/>
<path d="M238.57 96.7752L235.975 100.601H241.16L238.57 96.7752Z" fill="white"/>
<path d="M250.835 100.601L253.429 96.7752H248.24L250.835 100.601Z" fill="white"/>
<path d="M244.7 100.35C245.776 100.35 246.648 99.6067 246.648 98.6898C246.648 97.773 245.776 97.0297 244.7 97.0297C243.624 97.0297 242.752 97.773 242.752 98.6898C242.752 99.6067 243.624 100.35 244.7 100.35Z" fill="white"/>
<path d="M242.698 76.0222H227.611C226.958 76.0222 226.429 76.4729 226.429 77.0289V84.8013C226.429 85.3573 226.958 85.808 227.611 85.808H242.698C243.351 85.808 243.88 85.3573 243.88 84.8013V77.0289C243.88 76.4729 243.351 76.0222 242.698 76.0222Z" fill="#D8D8D8"/>
<path d="M226.978 76.3299L235.154 80.9151" stroke="#969696" stroke-width="0.82" stroke-linecap="round" stroke-linejoin="round"/>
<path d="M243.88 76.0222L235.154 80.9151" stroke="#969696" stroke-width="0.82" stroke-linecap="round" stroke-linejoin="round"/>
<path d="M243.88 78.1495C245.258 78.1495 246.376 77.1971 246.376 76.0222C246.376 74.8473 245.258 73.8948 243.88 73.8948C242.501 73.8948 241.383 74.8473 241.383 76.0222C241.383 77.1971 242.501 78.1495 243.88 78.1495Z" fill="#FBDC8E"/>
<path d="M245.756 81.0696H245.093V76.6746L243.763 77.163V76.5641L245.652 75.8548H245.756V81.0696Z" fill="white"/>
<path d="M331.452 81.9902H266.359C266.056 81.9902 265.81 82.1994 265.81 82.4574V82.7461C265.81 83.0042 266.056 83.2134 266.359 83.2134H331.452C331.755 83.2134 332 83.0042 332 82.7461V82.4574C332 82.1994 331.755 81.9902 331.452 81.9902Z" fill="#D8D8D8"/>
<path d="M293.854 57.7004H289.899C289.269 57.7004 288.758 58.1358 288.758 58.6729V81.0177C288.758 81.5548 289.269 81.9902 289.899 81.9902H293.854C294.484 81.9902 294.995 81.5548 294.995 81.0177V58.6729C294.995 58.1358 294.484 57.7004 293.854 57.7004Z" fill="#969696"/>
<path d="M297.166 63.3949H295.945C295.42 63.3949 294.995 63.7571 294.995 64.204V81.181C294.995 81.6279 295.42 81.9902 295.945 81.9902H297.166C297.691 81.9902 298.116 81.6279 298.116 81.181V64.204C298.116 63.7571 297.691 63.3949 297.166 63.3949Z" fill="#D8D8D8"/>
<path d="M300.319 63.3949H299.034C298.527 63.3949 298.116 63.7452 298.116 64.1774V81.2076C298.116 81.6398 298.527 81.9902 299.034 81.9902H300.319C300.826 81.9902 301.237 81.6398 301.237 81.2076V64.1774C301.237 63.7452 300.826 63.3949 300.319 63.3949Z" fill="#969696"/>
<path d="M302.582 64.7257L301.528 65.1378C301.036 65.3304 300.82 65.8266 301.046 66.2461L309.333 81.6264C309.559 82.0459 310.141 82.2298 310.634 82.0372L311.687 81.6251C312.18 81.4325 312.395 80.9364 312.169 80.5169L303.882 65.1366C303.656 64.7171 303.074 64.5332 302.582 64.7257Z" fill="#D8D8D8"/>
<path d="M291.874 75.8436C292.837 75.8436 293.618 75.1786 293.618 74.3583C293.618 73.538 292.837 72.873 291.874 72.873C290.912 72.873 290.131 73.538 290.131 74.3583C290.131 75.1786 290.912 75.8436 291.874 75.8436Z" fill="#D8D8D8"/>
<path d="M293.453 76.7326H290.296C290.065 76.7326 289.877 76.8924 289.877 77.0897C289.877 77.2869 290.065 77.4467 290.296 77.4467H293.453C293.684 77.4467 293.872 77.2869 293.872 77.0897C293.872 76.8924 293.684 76.7326 293.453 76.7326Z" fill="#D8D8D8"/>
<path d="M293.453 78.5598H290.296C290.065 78.5598 289.877 78.7197 289.877 78.9169C289.877 79.1141 290.065 79.274 290.296 79.274H293.453C293.684 79.274 293.872 79.1141 293.872 78.9169C293.872 78.7197 293.684 78.5598 293.453 78.5598Z" fill="#D8D8D8"/>
<path d="M261.513 115.196H258.356C258.125 115.196 257.937 115.356 257.937 115.553C257.937 115.75 258.125 115.91 258.356 115.91H261.513C261.744 115.91 261.932 115.75 261.932 115.553C261.932 115.356 261.744 115.196 261.513 115.196Z" fill="#969696"/>
<path d="M261.513 116.913H258.356C258.125 116.913 257.937 117.073 257.937 117.27C257.937 117.467 258.125 117.627 258.356 117.627H261.513C261.744 117.627 261.932 117.467 261.932 117.27C261.932 117.073 261.744 116.913 261.513 116.913Z" fill="#969696"/>
<path d="M269.698 119.849H258.173C257.942 119.849 257.754 120.009 257.754 120.206C257.754 120.404 257.942 120.563 258.173 120.563H269.698C269.93 120.563 270.117 120.404 270.117 120.206C270.117 120.009 269.93 119.849 269.698 119.849Z" fill="#969696"/>
<path d="M269.698 121.536H258.173C257.942 121.536 257.754 121.696 257.754 121.893C257.754 122.09 257.942 122.25 258.173 122.25H269.698C269.93 122.25 270.117 122.09 270.117 121.893C270.117 121.696 269.93 121.536 269.698 121.536Z" fill="#969696"/>
<path d="M269.698 123.223H258.173C257.942 123.223 257.754 123.383 257.754 123.58C257.754 123.777 257.942 123.937 258.173 123.937H269.698C269.93 123.937 270.117 123.777 270.117 123.58C270.117 123.383 269.93 123.223 269.698 123.223Z" fill="#969696"/>
<path d="M296.881 66.2022C296.881 66.049 296.735 65.9249 296.556 65.9249C296.376 65.9249 296.23 66.049 296.23 66.2022V79.179C296.23 79.3322 296.376 79.4563 296.556 79.4563C296.735 79.4563 296.881 79.3322 296.881 79.179V66.2022Z" fill="#969696"/>
<path d="M283.189 82.6018H280.398C279.785 82.6018 279.288 83.0252 279.288 83.5477C279.288 84.0701 279.785 84.4936 280.398 84.4936H283.189C283.802 84.4936 284.3 84.0701 284.3 83.5477C284.3 83.0252 283.802 82.6018 283.189 82.6018Z" fill="#D8D8D8"/>
<path d="M317.412 82.6018H314.621C314.008 82.6018 313.511 83.0252 313.511 83.5477C313.511 84.0701 314.008 84.4936 314.621 84.4936H317.412C318.025 84.4936 318.522 84.0701 318.522 83.5477C318.522 83.0252 318.025 82.6018 317.412 82.6018Z" fill="#D8D8D8"/>
<path d="M212.064 84.4518H195.787C192.832 84.4518 190.437 86.4928 190.437 89.0104V95.7761C190.437 98.2938 192.832 100.335 195.787 100.335H212.064C215.019 100.335 217.414 98.2938 217.414 95.7761V89.0104C217.414 86.4928 215.019 84.4518 212.064 84.4518Z" fill="#D8D8D8"/>
<path d="M200.076 87.0084H196.018V97.7781H200.076V87.0084Z" fill="#AB8DE5"/>
<path d="M205.956 94.173H201.899V97.7819H205.956V94.173Z" fill="#AB8DE5"/>
<path d="M211.832 91.134H207.775V97.7781H211.832V91.134Z" fill="#AB8DE5"/>
<path d="M82.387 58.0765C80.1448 58.076 77.9244 58.4519 75.8527 59.1826C73.781 59.9134 71.8986 60.9848 70.3129 62.3355C68.7272 63.6862 67.4693 65.2899 66.6111 67.0549C65.753 68.82 65.3112 70.7117 65.3112 72.6222H99.4627C99.4627 70.7117 99.021 68.82 98.1628 67.0549C97.3046 65.2899 96.0467 63.6862 94.461 62.3355C92.8754 60.9848 90.9929 59.9134 88.9212 59.1826C86.8495 58.4519 84.6292 58.076 82.387 58.0765Z" fill="#AB8DE5"/>
<path d="M82.387 53.1532V0.379883" stroke="black" stroke-width="2" stroke-linecap="round" stroke-linejoin="round"/>
<path d="M216.318 218.311C216.318 219.211 215.698 224.891 216.933 225.415C218.168 225.939 231.744 226.258 232.359 225.73C232.974 225.202 233.344 224.101 232.805 223.785C232.265 223.47 227.009 222.577 226.296 222.156C225.582 221.734 224.597 219.496 224.958 218.311" fill="#1F161E"/>
<path d="M175.728 144.071L183.37 141.734C183.04 129.855 179.781 103.313 175.153 99.366C174.065 98.4429 152.549 96.8322 148.71 96.8322C125.803 96.8322 119.008 99.0583 117.283 100.532C111.933 105.091 110.265 126.212 110.265 133.609C110.265 141.005 134.787 144.842 134.787 144.842L163.53 146.525C163.53 146.525 169.834 147.079 175.287 147.353C175.407 145.928 175.728 144.071 175.728 144.071Z" fill="#78E5E1"/>
<path d="M198.497 150.958C200.588 150.43 221.382 147.539 225.912 151.338C230.442 155.137 244.7 209.6 244.7 210.854H233.219L217.722 182.435" fill="#1F161E"/>
<path d="M122.789 146.114C122.267 148.337 119.133 150.722 119.133 162.829C119.133 179.571 135.228 179.924 141.006 179.924C159.009 179.924 188.136 175.365 190.102 174.53C191.408 176.391 215.453 218.216 215.564 219.151H226.634C226.634 219.151 219.773 156.576 207.392 149.48C203.37 147.201 132.022 144.762 122.789 146.114Z" fill="#55B79D"/>
<path d="M187.614 133.875C184.707 133.875 182.309 134.463 175.728 135.565L175.385 146.293C181.627 144.15 183.076 141.172 184.886 141.172C189.407 141.172 191.77 143.159 194.44 143.159C196.304 143.159 199.657 141.913 199.657 140.219C199.657 136.671 191.217 133.875 187.614 133.875Z" fill="#F8CDBA"/>
<path d="M233.87 210.102C233.87 211.006 233.251 216.681 234.486 217.21C235.721 217.738 249.296 218.049 249.912 217.525C250.527 217.001 250.897 215.895 250.358 215.58C249.818 215.264 244.562 214.368 243.848 213.946C243.135 213.525 242.15 211.287 242.511 210.102" fill="#1F161E"/>
<path d="M152.763 99.3584C152.763 100.791 143.004 100.832 143.004 99.3584V87.7112H152.763V99.3584Z" fill="#F8CDBA"/>
<path d="M149.584 91.5518C148.692 91.5518 143.004 93.6943 143.004 94.891V88.5697C144.421 88.5697 149.584 91.5518 149.584 91.5518Z" fill="#1F161E"/>
<path d="M151.47 92.0456C157.995 92.0456 163.285 87.5385 163.285 81.9788C163.285 76.419 157.995 71.9119 151.47 71.9119C144.945 71.9119 139.655 76.419 139.655 81.9788C139.655 87.5385 144.945 92.0456 151.47 92.0456Z" fill="#F8CDBA"/>
<path d="M163.664 74.0772C162.201 76.0564 159.143 76.9643 155.83 76.9643C153.008 76.9643 148.898 76.2653 145.973 77.6861C144.39 78.4458 142.576 80.1743 142.21 83.635C142.21 84.2277 141.421 86.5259 141.421 87.2667C141.421 87.772 140.752 88.1025 139.637 88.1025C139.062 88.1025 137.925 87.3085 137.925 86.0967C137.925 84.6949 138.581 84.1973 138.581 83.0082C138.581 81.8192 136.873 80.6757 136.873 77.3708C136.873 72.6108 140.44 69.6781 142.963 69.6781C145.264 69.6781 145.986 70.134 146.276 70.3277C146.276 66.0009 152.964 64.0255 155.616 64.0255C158.648 64.0255 160.075 65.0853 160.075 66.4339C160.075 68.5841 158.871 70.4113 158.26 70.8216C159.643 69.7618 161.439 69.1782 163.298 69.1843C166.771 69.1843 167.939 71.1293 167.939 72.4589C167.939 75.3498 163.869 78.028 162.353 78.028C161.972 77.3405 161.524 76.6811 161.016 76.0564" fill="#1F161E"/>
<path d="M142.576 85.4547C143.967 85.4547 145.095 84.4937 145.095 83.3083C145.095 82.123 143.967 81.162 142.576 81.162C141.184 81.162 140.057 82.123 140.057 83.3083C140.057 84.4937 141.184 85.4547 142.576 85.4547Z" fill="#F8CDBA"/>
<path d="M163.401 83.825C164.479 83.825 165.354 83.4372 165.354 82.9589C165.354 82.4805 164.479 82.0927 163.401 82.0927C162.322 82.0927 161.448 82.4805 161.448 82.9589C161.448 83.4372 162.322 83.825 163.401 83.825Z" fill="#FA9E9F"/>
<path d="M151.118 83.825C152.196 83.825 153.071 83.4372 153.071 82.9589C153.071 82.4805 152.196 82.0927 151.118 82.0927C150.039 82.0927 149.165 82.4805 149.165 82.9589C149.165 83.4372 150.039 83.825 151.118 83.825Z" fill="#FA9E9F"/>
<path d="M158.63 81.162C158.996 81.6065 160.859 83.4717 158.893 84.2277" stroke="#1F161E" stroke-miterlimit="10" stroke-linecap="round"/>
<path d="M154.957 86.4044C154.368 86.4044 153.463 85.7814 152.986 85.2229" stroke="#1F161E" stroke-miterlimit="10" stroke-linecap="round"/>
<path d="M170.534 113.441C171.426 115.055 175.728 130.63 175.728 135.565" stroke="#1F161E" stroke-miterlimit="10" stroke-linecap="round"/>
<path d="M110.265 132.355C110.265 149.864 110.457 154.943 118.705 154.943C137.716 154.943 166.455 141.647 171.577 141.647C176.103 141.647 178.466 143.638 181.136 143.638C182.995 143.638 186.348 142.388 186.348 140.697C186.348 137.145 177.908 134.349 174.311 134.349C166.21 134.349 133.882 141.005 133.092 141.005C132.303 141.005 130.975 140.712 130.975 139.58C130.975 137.525 132.553 132.777 132.758 132.363L110.265 132.355Z" fill="#F8CDBA"/>
<path d="M137.506 117.084C136.962 118.417 132.722 132.195 132.232 133.875" stroke="#1F161E" stroke-miterlimit="10" stroke-linecap="round"/>
<path d="M298.472 223.655C298.792 224.694 300.041 225.315 301.26 225.041C302.479 224.768 303.208 223.705 302.887 222.666L280.061 148.686C279.74 147.648 278.492 147.027 277.273 147.3C276.053 147.573 275.325 148.637 275.645 149.676L298.472 223.655Z" fill="#969696"/>
<path d="M275.419 149.679C275.739 148.64 275.011 147.576 273.791 147.303C272.572 147.03 271.324 147.651 271.003 148.69L248.177 222.669C247.856 223.708 248.585 224.771 249.804 225.045C251.023 225.318 252.272 224.697 252.592 223.658L275.419 149.679Z" fill="#969696"/>
<path d="M243.921 149.678C244.241 148.639 243.513 147.576 242.293 147.303C241.074 147.03 239.826 147.65 239.505 148.689L216.679 222.668C216.358 223.707 217.087 224.771 218.306 225.044C219.525 225.317 220.774 224.696 221.094 223.658L243.921 149.678Z" fill="#D8D8D8"/>
<path d="M266.577 222.289C266.892 223.331 268.139 223.958 269.362 223.69C270.585 223.421 271.321 222.359 271.005 221.317L248.562 147.118C248.247 146.076 247 145.45 245.777 145.718C244.554 145.987 243.818 147.049 244.133 148.091L266.577 222.289Z" fill="#D8D8D8"/>
<path d="M115.331 149.68C115.651 148.641 114.923 147.578 113.704 147.305C112.484 147.031 111.236 147.652 110.915 148.691L88.0889 222.67C87.7684 223.709 88.4969 224.773 89.7162 225.046C90.9355 225.319 92.1838 224.698 92.5043 223.659L115.331 149.68Z" fill="#969696"/>
<path d="M137.996 223.66C138.317 224.699 139.565 225.319 140.784 225.046C142.004 224.773 142.732 223.709 142.412 222.671L119.585 148.691C119.265 147.652 118.016 147.032 116.797 147.305C115.578 147.578 114.849 148.641 115.17 149.68L137.996 223.66Z" fill="#969696"/>
<path d="M289.471 143.649H68.7041C67.5887 143.649 66.6844 144.419 66.6844 145.37V147.683C66.6844 148.634 67.5887 149.404 68.7041 149.404H289.471C290.587 149.404 291.491 148.634 291.491 147.683V145.37C291.491 144.419 290.587 143.649 289.471 143.649Z" fill="#D8D8D8"/>
<path d="M82.7064 149.681C83.027 148.642 82.2984 147.579 81.0792 147.306C79.8599 147.033 78.6116 147.653 78.2911 148.692L55.4646 222.672C55.144 223.71 55.8726 224.774 57.0919 225.047C58.3111 225.32 59.5594 224.7 59.8799 223.661L82.7064 149.681Z" fill="#D8D8D8"/>
<path d="M105.372 223.66C105.692 224.699 106.941 225.319 108.16 225.046C109.379 224.773 110.108 223.71 109.787 222.671L86.9606 148.691C86.64 147.652 85.3917 147.032 84.1725 147.305C82.9532 147.578 82.2246 148.642 82.5452 149.68L105.372 223.66Z" fill="#D8D8D8"/>
<path d="M231.962 143.649H190.717L198.19 121.753C198.376 121.224 198.759 120.762 199.279 120.434C199.8 120.106 200.431 119.93 201.079 119.933H236.077C236.537 119.927 236.992 120.012 237.406 120.182C237.82 120.352 238.182 120.602 238.463 120.912C238.744 121.223 238.935 121.585 239.023 121.969C239.11 122.354 239.091 122.751 238.966 123.128L231.962 143.649Z" fill="black"/>
<path d="M216.402 133.939C217.796 133.939 218.926 132.977 218.926 131.789C218.926 130.602 217.796 129.639 216.402 129.639C215.009 129.639 213.879 130.602 213.879 131.789C213.879 132.977 215.009 133.939 216.402 133.939Z" fill="white"/>
<path d="M195.617 142.11H166.678V143.649H195.617V142.11Z" fill="black"/>
</g>
<defs>
<clipPath id="clip0">
<rect width="332" height="226" fill="white"/>
</clipPath>
</defs>
</svg>
