<svg width="328" height="235" viewBox="0 0 328 235" fill="none" xmlns="http://www.w3.org/2000/svg">
<g clip-path="url(#clip0)">
<path d="M167.401 235C243.75 235 305.642 182.393 305.642 117.5C305.642 52.6065 243.75 0 167.401 0C91.0534 0 29.161 52.6065 29.161 117.5C29.161 182.393 91.0534 235 167.401 235Z" fill="#FAEFE9"/>
<path d="M244.122 66.2743H159.354V177.846H244.122V66.2743Z" fill="white"/>
<path d="M142.364 134.373H229.279" stroke="black" stroke-miterlimit="10"/>
<path d="M142.364 141.669H229.279" stroke="black" stroke-miterlimit="10"/>
<path d="M142.364 148.965H229.279" stroke="black" stroke-miterlimit="10"/>
<path d="M142.364 156.261H229.279" stroke="black" stroke-miterlimit="10"/>
<path d="M201.738 117.652C213.985 117.652 223.914 109.213 223.914 98.8034C223.914 88.3936 213.985 79.9547 201.738 79.9547C189.491 79.9547 179.562 88.3936 179.562 98.8034C179.562 109.213 189.491 117.652 201.738 117.652Z" fill="#F2F2F2"/>
<path opacity="0.7" d="M264.331 105.948H229.279V133.613H264.331V105.948Z" fill="#50B89D"/>
<path d="M242.661 132.045L253.088 136.259V139.524L239.463 133.211V130.779L253.088 124.483V127.748L242.661 132.045ZM241.212 184.854H238.563L248.691 158.52H251.323L241.212 184.854ZM251.506 211.945L240.496 207.631V204.466L254.721 210.763V213.195L240.496 219.508V216.309L251.506 211.945Z" fill="white"/>
<path d="M202.096 11.4004H12.8869V117.196H202.096V11.4004Z" stroke="black" stroke-miterlimit="10"/>
<path d="M12.8869 17.0246H202.096" stroke="black" stroke-miterlimit="10"/>
<path d="M83.5272 26.4489H26.6573V74.7866H83.5272V26.4489Z" stroke="black" stroke-miterlimit="10"/>
<path d="M94.4362 30.705H181.351" stroke="black" stroke-miterlimit="10"/>
<path d="M94.4362 38.0013H181.351" stroke="black" stroke-miterlimit="10"/>
<path d="M94.4362 45.2975H181.351" stroke="black" stroke-miterlimit="10"/>
<path d="M94.4362 52.5938H181.351" stroke="black" stroke-miterlimit="10"/>
<path opacity="0.44" d="M55.0923 39.2173L39.605 62.0181H70.5795L55.0923 39.2173Z" fill="#50B89D"/>
<path d="M17.0002 15.6565C17.8891 15.6565 18.6097 15.044 18.6097 14.2885C18.6097 13.5329 17.8891 12.9204 17.0002 12.9204C16.1112 12.9204 15.3906 13.5329 15.3906 14.2885C15.3906 15.044 16.1112 15.6565 17.0002 15.6565Z" fill="#AB8DE5"/>
<path d="M22.5441 15.6565C23.433 15.6565 24.1536 15.044 24.1536 14.2885C24.1536 13.5329 23.433 12.9204 22.5441 12.9204C21.6552 12.9204 20.9346 13.5329 20.9346 14.2885C20.9346 15.044 21.6552 15.6565 22.5441 15.6565Z" fill="#73E5E2"/>
<path d="M28.088 15.6565C28.9769 15.6565 29.6975 15.044 29.6975 14.2885C29.6975 13.5329 28.9769 12.9204 28.088 12.9204C27.1991 12.9204 26.4785 13.5329 26.4785 14.2885C26.4785 15.044 27.1991 15.6565 28.088 15.6565Z" fill="#50B89D"/>
<path d="M96.2246 97.6633L101.59 93.6352H96.1173L96.2246 97.6633Z" fill="#AB8DE5"/>
<path d="M124.953 78.5867H98.2562C94.1711 78.5867 90.8595 81.4014 90.8595 84.8736V87.8043C90.8595 91.2765 94.1711 94.0912 98.2562 94.0912H124.953C129.038 94.0912 132.35 91.2765 132.35 87.8043V84.8736C132.35 81.4014 129.038 78.5867 124.953 78.5867Z" fill="#AB8DE5"/>
<path d="M106.061 87.707C106.95 87.707 107.67 87.0945 107.67 86.339C107.67 85.5834 106.95 84.9709 106.061 84.9709C105.172 84.9709 104.451 85.5834 104.451 86.339C104.451 87.0945 105.172 87.707 106.061 87.707Z" fill="white"/>
<path d="M111.605 87.707C112.493 87.707 113.214 87.0945 113.214 86.339C113.214 85.5834 112.493 84.9709 111.605 84.9709C110.716 84.9709 109.995 85.5834 109.995 86.339C109.995 87.0945 110.716 87.707 111.605 87.707Z" fill="white"/>
<path d="M117.148 87.707C118.037 87.707 118.758 87.0945 118.758 86.339C118.758 85.5834 118.037 84.9709 117.148 84.9709C116.26 84.9709 115.539 85.5834 115.539 86.339C115.539 87.0945 116.26 87.707 117.148 87.707Z" fill="white"/>
<path d="M266.119 52.0618L260.754 48.0336H266.226L266.119 52.0618Z" fill="#73E5E2"/>
<path d="M237.391 48.4897H264.087C268.173 48.4897 271.484 45.6749 271.484 42.2027V39.2721C271.484 35.7999 268.173 32.9851 264.087 32.9851H237.391C233.306 32.9851 229.994 35.7999 229.994 39.2721V42.2027C229.994 45.6749 233.306 48.4897 237.391 48.4897Z" fill="#73E5E2"/>
<path d="M256.283 42.1055C257.172 42.1055 257.893 41.493 257.893 40.7374C257.893 39.9819 257.172 39.3694 256.283 39.3694C255.394 39.3694 254.674 39.9819 254.674 40.7374C254.674 41.493 255.394 42.1055 256.283 42.1055Z" fill="white"/>
<path d="M250.739 42.1055C251.628 42.1055 252.349 41.493 252.349 40.7374C252.349 39.9819 251.628 39.3694 250.739 39.3694C249.85 39.3694 249.13 39.9819 249.13 40.7374C249.13 41.493 249.85 42.1055 250.739 42.1055Z" fill="white"/>
<path d="M245.195 42.1055C246.084 42.1055 246.805 41.493 246.805 40.7374C246.805 39.9819 246.084 39.3694 245.195 39.3694C244.306 39.3694 243.586 39.9819 243.586 40.7374C243.586 41.493 244.306 42.1055 245.195 42.1055Z" fill="white"/>
<path d="M263.258 14.2885C264.147 14.2885 264.867 13.676 264.867 12.9204C264.867 12.1649 264.147 11.5524 263.258 11.5524C262.369 11.5524 261.648 12.1649 261.648 12.9204C261.648 13.676 262.369 14.2885 263.258 14.2885Z" fill="#F98B67"/>
<path d="M266.656 19.9127C267.544 19.9127 268.265 19.3002 268.265 18.5446C268.265 17.7891 267.544 17.1766 266.656 17.1766C265.767 17.1766 265.046 17.7891 265.046 18.5446C265.046 19.3002 265.767 19.9127 266.656 19.9127Z" fill="#F98B67"/>
<path d="M229.636 76.1546C231.019 76.1546 232.14 75.2018 232.14 74.0265C232.14 72.8512 231.019 71.8984 229.636 71.8984C228.254 71.8984 227.133 72.8512 227.133 74.0265C227.133 75.2018 228.254 76.1546 229.636 76.1546Z" fill="#F98B67"/>
<path d="M244.301 83.4508C245.684 83.4508 246.805 82.4981 246.805 81.3228C246.805 80.1474 245.684 79.1947 244.301 79.1947C242.918 79.1947 241.797 80.1474 241.797 81.3228C241.797 82.4981 242.918 83.4508 244.301 83.4508Z" fill="#F98B67"/>
<path d="M18.9673 85.8829C20.3501 85.8829 21.471 84.9302 21.471 83.7549C21.471 82.5796 20.3501 81.6268 18.9673 81.6268C17.5846 81.6268 16.4636 82.5796 16.4636 83.7549C16.4636 84.9302 17.5846 85.8829 18.9673 85.8829Z" fill="#F98B67"/>
<path d="M235.431 180.962V180.658L234.572 179.746L232.587 177.697L230.477 175.526C230.477 175.526 228.445 174.332 227.923 174.125C226.02 173.377 224.146 172.806 221.907 172.806C220.53 172.806 215.383 172.982 215.372 173.718C215.372 174.809 222.58 178.941 227.866 180.947C230.187 180.962 235.431 180.962 235.431 180.962Z" fill="#1F161E"/>
<path d="M234.34 180.962C227.004 176.165 212.028 149.999 215.87 140.301C224.046 143.843 233.016 156.055 237.248 166.367C237.475 167.037 237.658 167.718 237.795 168.407L239.512 175.095L239.927 180.971L234.34 180.962Z" fill="#FBDC8E"/>
<path d="M239.347 180.962C236.872 179.254 236.082 174.195 236.06 172.307C236.021 168.784 236.658 166.187 240.202 162.311C243.747 158.435 242.802 152.005 247.509 147.667C252.216 143.329 255.335 142.119 260.922 142.119C266.509 142.119 268.283 149.816 268.254 151.753C268.19 159.566 262.399 160.673 258.865 164.4C256.301 167.105 256.101 169.319 255.324 170.583C251.161 177.399 247.778 179.962 245.274 180.962" fill="#73E5E2"/>
<path d="M240.714 180.397C240.785 167.072 257.306 147.059 260.836 144.058" stroke="white" stroke-width="0.4" stroke-linecap="round" stroke-linejoin="round"/>
<path d="M241.604 174.341C239.776 172.647 238.113 167.847 238.364 166.601" stroke="white" stroke-width="0.4" stroke-linecap="round" stroke-linejoin="round"/>
<path d="M236.922 179.813C234.333 175.913 222.047 156.894 217.465 142.885" stroke="white" stroke-width="0.4" stroke-linecap="round" stroke-linejoin="round"/>
<path d="M245.288 180.962H252.985L246.547 201.331H229.332L222.998 180.962H245.288Z" fill="#B37361"/>
<path d="M217.891 174.131C221.642 174.35 226.364 174.496 229.694 176.426" stroke="white" stroke-width="0.4" stroke-linecap="round" stroke-linejoin="round"/>
<path d="M277.364 97.5873C276.459 101.257 269.885 146.773 272.035 157.645C274.185 168.516 309.233 191.295 310.767 191.694C312.556 190.578 315.188 186.921 315.188 186.921C315.188 186.921 289.489 161.6 288.999 160.584C288.509 159.569 294.629 100.931 294.629 100.931L277.364 97.5873Z" fill="#1F161E"/>
<path d="M319.219 105.872L292.998 196.774H284.167L293.116 101.944L319.219 105.872Z" fill="#AB8DE5"/>
<path d="M300.595 53.825C304.215 53.825 323.096 54.3449 326.508 59.9934C329.921 65.6419 326.705 91.7503 324.584 92.7627C323.44 93.3069 323.128 92.7779 322.796 93.8845C322.463 94.9911 319.219 105.872 319.219 105.872C317.159 105.92 287.122 102.075 277.371 97.5782C277.429 96.3287 277.901 93.0789 277.901 92.8296C276.606 93.2795 275.039 93.3738 274.61 92.8296C270.805 87.932 276.477 62.3981 280.548 57.2604C282.279 55.0563 294.786 53.8402 300.595 53.825Z" fill="#FBDC8E"/>
<path d="M313.028 93.468C313.915 93.468 321.551 98.0282 320.897 100.269C321.433 98.469 323.121 92.9086 323.121 92.9086C322.395 93.0272 313.679 93.4771 313.028 93.468Z" fill="#1F161E"/>
<path d="M305.27 56.8043C305.27 57.7954 296.074 57.7954 296.074 56.8043V46.772H305.27V56.8043Z" fill="#F8CDBA"/>
<path d="M299.994 49.1463C300.71 49.1463 305.27 50.8609 305.27 51.8155V46.772C304.132 46.772 299.994 49.1463 299.994 49.1463Z" fill="#1F161E"/>
<path d="M298.735 49.879C303.676 49.879 307.681 46.4749 307.681 42.2757C307.681 38.0765 303.676 34.6724 298.735 34.6724C293.795 34.6724 289.79 38.0765 289.79 42.2757C289.79 46.4749 293.795 49.879 298.735 49.879Z" fill="#F8CDBA"/>
<path d="M295.709 31.1611C291.117 31.1611 288.255 33.6114 288.255 36.7518C288.255 39.3633 288.999 40.8408 289.876 41.2147C290.43 38.6793 291.635 37.5058 292.633 37.0011C293.409 37.5058 294.736 38.7279 296.51 39.1049C298.285 39.4818 302.902 39.4089 306.633 41.7133C307.852 40.7708 309.068 39.5457 309.068 38.1016C309.068 36.6576 308.317 34.8457 303.9 33.7999C300.981 33.1098 300.574 31.1611 295.709 31.1611Z" fill="#1F161E"/>
<path d="M290.376 44.5345C291.242 44.5345 291.943 44.2242 291.943 43.8413C291.943 43.4585 291.242 43.1482 290.376 43.1482C289.511 43.1482 288.81 43.4585 288.81 43.8413C288.81 44.2242 289.511 44.5345 290.376 44.5345Z" fill="#FA9E9F"/>
<path d="M300.23 44.5345C301.096 44.5345 301.797 44.2242 301.797 43.8413C301.797 43.4585 301.096 43.1482 300.23 43.1482C299.365 43.1482 298.664 43.4585 298.664 43.8413C298.664 44.2242 299.365 44.5345 300.23 44.5345Z" fill="#FA9E9F"/>
<path d="M294.204 42.4034C293.91 42.7591 292.415 44.2518 293.992 44.8537" stroke="#1F161E" stroke-miterlimit="10" stroke-linecap="round"/>
<path d="M297.151 46.5987C297.623 46.5987 298.349 46.1002 298.732 45.6533" stroke="#1F161E" stroke-miterlimit="10" stroke-linecap="round"/>
<path d="M307.005 44.9084C308.146 44.9084 309.072 44.1217 309.072 43.1512C309.072 42.1808 308.146 41.3941 307.005 41.3941C305.863 41.3941 304.937 42.1808 304.937 43.1512C304.937 44.1217 305.863 44.9084 307.005 44.9084Z" fill="#F8CDBA"/>
<path d="M313.235 68.7854C313.074 70.4635 312.445 78.7569 312.681 79.8483C309.68 80.736 282.204 91.8111 277.45 93.0272" stroke="#1F161E" stroke-miterlimit="10" stroke-linecap="round"/>
<path d="M281.324 66.1678C280.691 68.0466 278.559 76.5741 280.058 80.5354" stroke="#1F161E" stroke-miterlimit="10" stroke-linecap="round"/>
<path d="M288.338 89.148C289.768 90.0023 303.482 95.1613 322.442 93.2156" stroke="#1F161E" stroke-miterlimit="10" stroke-linecap="round"/>
<path d="M287.025 80.5354C287.944 80.66 284.947 78.6262 283.248 79.3832C281.549 80.1402 279.26 83.5664 279.729 84.3598C279.792 84.5039 279.892 84.634 280.022 84.7407C280.152 84.8474 280.309 84.9279 280.48 84.9763C280.652 85.0248 280.834 85.0398 281.014 85.0205C281.193 85.0011 281.365 84.9478 281.517 84.8645C281.978 84.6122 285.423 80.3165 287.025 80.5354Z" fill="#F8CDBA"/>
<path d="M314.895 187.295C315.385 187.599 319.731 190.098 319.766 191.672C319.802 193.247 315.717 198.467 314.895 198.616C314.072 198.765 313.486 198.175 313.486 197.12C313.486 196.065 315.038 194.217 314.83 193.396C314.623 192.575 312.616 191.074 311.586 191.046" fill="#1F161E"/>
<path d="M292.161 196.774C292.161 197.497 292.655 202.039 291.668 202.462C290.681 202.884 279.786 203.134 279.292 202.714C278.799 202.295 278.498 201.41 278.934 201.158C279.371 200.905 283.584 200.188 284.157 199.853C284.729 199.519 285.519 197.725 285.23 196.774" fill="#1F161E"/>
<path d="M78.4698 163.053H9.30304V192.873H78.4698V163.053Z" fill="#B37361"/>
<path d="M112.545 149.077C112.846 150.598 117.946 185.349 118.772 185.924C119.599 186.498 128.372 187.772 129.123 186.817C129.274 185.297 129.481 161.062 129.946 158.894" fill="#1F161E"/>
<path d="M13.8633 141.827C10.326 140.346 17.7012 169.696 37.112 169.696C56.5229 169.696 89.1963 144.563 94.4863 144.563C106.164 144.563 133.809 164.05 135.976 164.05C137.636 162.639 140.955 160.171 140.955 159.186C140.955 158.201 114.487 121.185 94.683 121.185C87.0038 121.194 21.8502 145.18 13.8633 141.827Z" fill="#50B89D"/>
<path d="M24.7867 142.325C28.6674 141.578 33.496 139.641 37.7702 137.662C26.1422 140.894 16.6138 142.982 13.8633 141.827C11.9891 141.043 13.1766 148.898 17.5831 156.465C16.7855 155.003 15.6481 144.101 24.7867 142.325Z" fill="#1F161E"/>
<path d="M33.3422 90.8383C36.4003 90.9082 52.3203 90.5099 56.6839 94.0425C59.9208 96.6631 69.9858 119.199 71.5381 127.113C64.778 130.034 16.0201 149.877 0.929908 141.152C0.597273 134.373 2.146 107.422 12.0142 93.2886C15.6231 91.2456 30.4021 90.7744 33.3422 90.8383Z" fill="#73E5E2"/>
<path d="M39.5442 84.3902H30.2448V92.8843C30.2448 95.0123 39.5442 94.9941 39.5442 92.8843V84.3902Z" fill="#F8CDBA"/>
<path d="M30.2448 89.5189C30.2448 88.5765 33.3172 86.2082 35.2164 86.2933C35.2629 85.2445 30.8778 83.7366 30.8778 83.7366L30.2448 85.1867V89.5189Z" fill="#1F161E"/>
<path d="M49.2836 84.3902C49.4924 83.568 49.5979 82.7293 49.5984 81.8882C49.5984 75.6195 43.8363 70.5365 36.7222 70.5365C29.6081 70.5365 23.8459 75.6195 23.8459 81.8882C23.8464 82.7293 23.9519 83.568 24.1607 84.3902H49.2836Z" fill="#1F161E"/>
<path d="M45.8893 76.7383C44.312 76.5346 42.7382 75.4797 41.6402 74.7896C35.3809 78.687 31.3714 78.7387 30.9386 78.7387C30.5058 78.7387 28.7425 80.8911 27.9306 81.1343L27.8591 81.0978C28.1005 82.2303 28.6163 83.3078 29.3739 84.2618C30.1316 85.2158 31.1143 86.0254 32.2598 86.6392C33.4053 87.253 34.6885 87.6575 36.0278 87.8272C37.3672 87.9969 38.7334 87.9279 40.0397 87.6246C41.346 87.3214 42.5638 86.7905 43.6157 86.0658C44.6677 85.341 45.5308 84.4382 46.1502 83.4147C46.7696 82.3912 47.1318 81.2694 47.2137 80.1206C47.2957 78.9717 47.0956 77.8209 46.6262 76.7413C46.3813 76.7661 46.1339 76.7651 45.8893 76.7383Z" fill="#F8CDBA"/>
<path d="M29.7476 71.9501C31.8454 71.9501 33.5461 70.5046 33.5461 68.7215C33.5461 66.9384 31.8454 65.493 29.7476 65.493C27.6497 65.493 25.9491 66.9384 25.9491 68.7215C25.9491 70.5046 27.6497 71.9501 29.7476 71.9501Z" fill="#1F161E"/>
<path d="M31.4394 78.5654C31.0289 78.5819 30.6417 78.7321 30.3581 78.9849C30.0744 79.2376 29.9162 79.5735 29.9162 79.9228C29.9162 80.2721 30.0744 80.608 30.3581 80.8607C30.6417 81.1135 31.0289 81.2637 31.4394 81.2802" stroke="#1F161E" stroke-miterlimit="10" stroke-linecap="round"/>
<path d="M43.6146 78.7387C44.0831 79.2707 45.2885 80.204 43.6146 81.192" stroke="#1F161E" stroke-miterlimit="10" stroke-linecap="round"/>
<path d="M38.5392 81.9034C38.5392 82.3017 38.7395 83.2532 39.7446 83.4995" stroke="#1F161E" stroke-miterlimit="10" stroke-linecap="round"/>
<path d="M35.4239 81.9977C36.2377 81.9977 36.8975 81.7064 36.8975 81.3471C36.8975 80.9878 36.2377 80.6965 35.4239 80.6965C34.61 80.6965 33.9503 80.9878 33.9503 81.3471C33.9503 81.7064 34.61 81.9977 35.4239 81.9977Z" fill="#FA9E9F"/>
<path d="M46.3793 81.9977C47.1932 81.9977 47.853 81.7064 47.853 81.3471C47.853 80.9878 47.1932 80.6965 46.3793 80.6965C45.5655 80.6965 44.9057 80.9878 44.9057 81.3471C44.9057 81.7064 45.5655 81.9977 46.3793 81.9977Z" fill="#FA9E9F"/>
<path d="M56.3477 114.329L66.2874 112.156C67.2424 113.536 71.8921 127.098 71.8921 127.098L56.548 132.594C56.7483 130.025 57.3527 118.26 56.3477 114.329Z" fill="#F8CDBA"/>
<path d="M21.4961 112.204C21.4961 113.226 20.4838 117.114 19.8865 118.941" stroke="#1F161E" stroke-miterlimit="10" stroke-linecap="round"/>
<path d="M56.3477 114.329C56.1081 112.721 54.706 103.658 52.3203 98.8885" stroke="#1F161E" stroke-miterlimit="10" stroke-linecap="round"/>
<path d="M56.3477 114.329L66.2874 112.156C67.2424 113.536 71.8921 127.098 71.8921 127.098L56.548 132.594C56.7483 130.025 57.3527 118.26 56.3477 114.329Z" fill="#F8CDBA"/>
<path d="M136.273 163.333C136.495 163.637 139.456 166.725 140.504 166.759C141.552 166.792 147.915 163.129 147.636 162.342C147.357 161.554 143.366 162.068 142.679 161.791C141.992 161.515 140.458 160.213 140.208 159.636" fill="#1F161E"/>
<path d="M120.625 186.246C120.55 186.583 120.146 190.563 120.872 191.207C121.598 191.852 129.17 192.971 129.61 192.238C130.05 191.505 126.748 189.52 126.494 188.918C126.241 188.316 126.187 186.486 126.494 185.915" fill="#1F161E"/>
<path d="M108.754 127.949H75.0718L83.0909 109.888H116.773L108.754 127.949Z" fill="#969696"/>
<path d="M80.6873 127.268H47.0053V127.949H80.6873V127.268Z" fill="#969696"/>
<path d="M19.8867 118.941C19.2393 120.996 16.0954 129.812 17.3759 131.332C18.6563 132.853 50.7253 129.408 59.3058 127.137C61.4912 126.529 63.1115 124.936 64.0807 124.729C65.3254 124.55 66.604 124.768 67.6709 125.342C68.7377 125.915 69.5177 126.804 69.8607 127.836C66.4342 129.247 16.961 150.716 0.930093 141.161C-2.09939 139.316 3.21562 116.819 3.45884 115.685C6.16642 115.962 19.8867 118.941 19.8867 118.941Z" fill="#F8CDBA"/>
<path d="M56.8055 127.684C57.7712 127.49 58.6153 127.298 59.3092 127.116C61.4946 126.508 63.1149 124.915 64.0841 124.708C65.3288 124.529 66.6074 124.747 67.6743 125.321C68.7411 125.894 69.5211 126.782 69.8641 127.815" stroke="#1F161E" stroke-miterlimit="10" stroke-linecap="round"/>
</g>
<defs>
<clipPath id="clip0">
<rect width="328" height="235" fill="white"/>
</clipPath>
</defs>
</svg>
