<svg width="331" height="94" viewBox="0 0 331 94" fill="none" xmlns="http://www.w3.org/2000/svg">
<path d="M331 0H0V94H331V0Z" fill="#78E5E1"/>
<path d="M74.3026 76.9189C100.486 76.9189 121.711 63.5237 121.711 46.9999C121.711 30.4761 100.486 17.081 74.3026 17.081C48.1194 17.081 26.8937 30.4761 26.8937 46.9999C26.8937 63.5237 48.1194 76.9189 74.3026 76.9189Z" fill="white"/>
<path d="M67.924 73.505C67.2827 75.5786 49.1363 73.505 49.8259 71.2812L54.1323 57.3966L72.2166 59.6204L67.924 73.505Z" fill="#F8CDBA"/>
<path d="M51.5602 65.689C51.9429 64.4531 59.4904 59.8902 62.7176 61.0304C58.756 59.5595 55.8873 56.9244 54.1185 57.3966L51.5602 65.689Z" fill="#1F161E"/>
<path d="M73.7441 65.032C86.9709 65.032 97.6933 58.2652 97.6933 49.918C97.6933 41.5708 86.9709 34.804 73.7441 34.804C60.5173 34.804 49.7948 41.5708 49.7948 49.918C49.7948 58.2652 60.5173 65.032 73.7441 65.032Z" fill="#F8CDBA"/>
<path d="M99.8063 54.9733C99.9249 54.2525 98.2415 53.5516 96.0463 53.4077C93.8511 53.2638 91.9754 53.7314 91.8568 54.4522C91.7381 55.1729 93.4215 55.8739 95.6167 56.0178C97.8119 56.1617 99.6876 55.694 99.8063 54.9733Z" fill="#FA9E9F"/>
<path d="M74.8207 53.3335C74.9393 52.6127 73.2559 51.9118 71.0607 51.7679C68.8655 51.624 66.9898 52.0916 66.8712 52.8124C66.7525 53.5332 68.4359 54.2341 70.6311 54.378C72.8263 54.5219 74.702 54.0543 74.8207 53.3335Z" fill="#FA9E9F"/>
<path d="M86.5807 51.3693C87.2151 52.0874 90.5664 55.1467 86.3531 56.0193" stroke="#1F161E" stroke-width="0.69" stroke-miterlimit="10" stroke-linecap="round"/>
<path d="M77.8022 58.7761C76.6127 58.676 74.9198 57.6425 74.0819 56.7351" stroke="#1F161E" stroke-width="0.69" stroke-miterlimit="10" stroke-linecap="round"/>
<path d="M54.3874 51.367C57.299 51.367 59.6593 49.8775 59.6593 48.0401C59.6593 46.2026 57.299 44.7131 54.3874 44.7131C51.4759 44.7131 49.1156 46.2026 49.1156 48.0401C49.1156 49.8775 51.4759 51.367 54.3874 51.367Z" fill="#F8CDBA"/>
<path d="M57.9491 50.9755C57.9491 55.4035 50.1844 58.3258 47.5743 58.3258C44.6815 58.3258 44.2988 57.005 44.2988 56.4305C44.2988 54.5745 46.0228 52.9839 49.6672 50.9755C49.0328 50.2857 44.2988 46.641 44.2988 41.4993C44.2988 36.0595 49.581 31.5096 53.1255 31.5096C56.8975 31.5096 59.4042 33.9771 59.4042 35.0107C59.4042 27.4167 72.3063 21.9769 79.9675 21.9769C87.1116 21.9769 88.3391 23.9352 88.3391 25.5367C88.3391 29.0313 83.9706 32.7717 82.3328 33.6899C86.3289 31.8317 92.5697 29.9582 97.9829 29.9582C101.383 29.9582 105.717 30.5631 105.717 33.518C105.717 38.9339 97.6795 42.0694 94.9936 42.9463C93.6454 41.2665 92.2352 40.3178 91.0871 39.4801C91.5836 40.5028 89.5976 42.3632 85.8083 42.7831C83.7154 43.0138 57.9491 40.8248 57.9491 50.9755Z" fill="#1F161E"/>
<path d="M146.192 29.0486H306.52" stroke="white" stroke-width="14" stroke-miterlimit="10" stroke-linecap="round"/>
<path d="M146.192 41.0162H306.52" stroke="white" stroke-width="14" stroke-miterlimit="10" stroke-linecap="round"/>
<path d="M146.192 52.9838H306.52" stroke="white" stroke-width="14" stroke-miterlimit="10" stroke-linecap="round"/>
<path d="M146.192 64.9514H306.52" stroke="white" stroke-width="14" stroke-miterlimit="10" stroke-linecap="round"/>
</svg>
