<svg width="1600" height="1200" viewBox="0 0 1600 1200" fill="none" xmlns="http://www.w3.org/2000/svg">
<path d="M835.8 623.5C828.4 623.5 821.9 620.6 817.4 615.5C812.9 610.2 811.1 603.1 812.3 595.6L852.1 344C854.6 328.2 869.4 315.4 885.2 315.4H1267.4C1274.8 315.4 1281.3 318.3 1285.8 323.4C1290.3 328.7 1292.1 335.8 1290.9 343.3L1251.1 595C1248.6 610.8 1233.8 623.6 1218 623.6L835.8 623.5Z" fill="white"/>
<path d="M1267.4 317.5C1274.2 317.5 1280.2 320.1 1284.2 324.8C1288.3 329.6 1290 336.1 1288.9 343.1L1249.1 594.6C1246.8 609.4 1232.8 621.5 1218 621.5H835.8C829 621.5 823 618.9 819 614.2C814.9 609.4 813.2 602.9 814.3 595.9L854.1 344.4C856.4 329.6 870.4 317.5 885.2 317.5H1267.4ZM1267.4 313.5H885.2C868.5 313.5 852.8 327.1 850.1 343.8L810.3 595.3C807.7 612 819.1 625.6 835.8 625.6H1218C1234.7 625.6 1250.4 612 1253.1 595.3L1292.9 343.8C1295.6 327 1284.2 313.5 1267.4 313.5Z" fill="#444444"/>
<path d="M1248.8 375.7C1248.2 375.7 1247.7 375.5 1247.3 375L1226.7 350C1226 349.1 1226.1 347.9 1227 347.2C1227.9 346.5 1229.1 346.6 1229.8 347.5L1250.4 372.5C1251.1 373.4 1251 374.6 1250.1 375.3C1249.7 375.6 1249.2 375.7 1248.8 375.7Z" fill="#444444"/>
<path d="M1223.8 375.7C1223.2 375.7 1222.7 375.5 1222.3 375C1221.6 374.2 1221.7 372.9 1222.5 372.2L1251.9 347.2C1252.7 346.5 1254 346.6 1254.7 347.4C1255.4 348.2 1255.3 349.5 1254.5 350.2L1225.1 375.2C1224.7 375.5 1224.3 375.7 1223.8 375.7Z" fill="#444444"/>
<path d="M915.3 693.5L898.2 1007H915.3L941.2 822.9H1110L1212.2 1007H1230.6L1091.2 693.5H915.3Z" fill="#46B160"/>
<path d="M1118.5 695.5H883.1C882 695.5 881.1 694.6 881.1 693.5C881.1 692.4 882 691.5 883.1 691.5H1118.5C1119.6 691.5 1120.5 692.4 1120.5 693.5C1120.5 694.6 1119.6 695.5 1118.5 695.5Z" fill="#444444"/>
<path d="M941.2 824.9H908.2C907.1 824.9 906.2 824 906.2 822.9C906.2 821.8 907.1 820.9 908.2 820.9H941.2C942.3 820.9 943.2 821.8 943.2 822.9C943.2 824 942.3 824.9 941.2 824.9Z" fill="#444444"/>
<path d="M1148.7 824.9H1110.4C1109.3 824.9 1108.4 824 1108.4 822.9C1108.4 821.8 1109.3 820.9 1110.4 820.9H1148.7C1149.8 820.9 1150.7 821.8 1150.7 822.9C1150.7 824 1149.8 824.9 1148.7 824.9Z" fill="#444444"/>
<path d="M1010.1 770.6C1016.56 770.6 1021.8 765.362 1021.8 758.9C1021.8 752.438 1016.56 747.2 1010.1 747.2C1003.64 747.2 998.4 752.438 998.4 758.9C998.4 765.362 1003.64 770.6 1010.1 770.6Z" fill="#444444"/>
<path d="M466 915.4C465.6 915.2 425.6 894 420.6 872.2C419.3 866.6 420.4 861.3 423.9 856.5C424 856.4 429.6 852 443.1 852C455.8 852 471.6 855.2 489.2 862.7L488.9 863.4L488.8 863.6C478.2 883.9 466.5 915 466.3 915.3L466.2 915.5L466 915.4Z" fill="#444444"/>
<path d="M773.5 886.9C773.5 886.8 771.8 873.6 771.6 840.1V840L771.7 833.5C783.6 827.3 797.9 819.4 820 821C832.9 821.9 838.2 830.9 838.3 831C840.7 837 840.5 843 837.6 848.9C825.9 872.5 774.3 886.9 773.8 887.1L773.6 887.2L773.5 886.9Z" fill="#444444"/>
<path d="M594.5 957.2C593.7 957.2 592.9 956.7 592.6 955.9C592.3 955 592.6 954 593.4 953.5L691.4 892.8C704.3 884.9 721.3 888.9 729.3 901.7C730.3 903.4 731.2 905.2 731.9 907.1C734.3 914 733.9 921.5 730.7 928.1C727.5 934.8 721.9 939.7 714.9 942.1C713.2 942.7 711.3 943.1 709.2 943.5L594.6 957.1C594.7 957.2 594.6 957.2 594.5 957.2ZM705.9 892.7C701.7 892.7 697.4 893.8 693.6 896.2L603.3 952.1L708.8 939.6C710.7 939.3 712.3 938.9 713.8 938.4C719.7 936.4 724.5 932.1 727.3 926.4C730 920.7 730.4 914.4 728.3 908.5C727.7 906.9 727 905.3 726.1 903.9C721.5 896.7 713.8 892.7 705.9 892.7Z" fill="#444444"/>
<path d="M670.2 993.4C669.6 993.4 669.1 993.2 668.7 992.7C653.3 975.3 641.1 973.4 628.2 971.5C617.2 969.9 605.9 968.2 593 956.4C592.2 955.7 592.1 954.4 592.9 953.6C593.7 952.8 594.9 952.7 595.7 953.5C607.7 964.4 617.9 965.9 628.8 967.6C641.9 969.5 655.4 971.6 671.7 990.1C672.4 990.9 672.4 992.2 671.5 992.9C671.1 993.2 670.7 993.4 670.2 993.4Z" fill="#444444"/>
<path d="M744.3 1007.2C718.4 952.7 670.6 939.6 644.3 936.7H644.2V936.6C642 926.7 640.1 916.8 638.5 907.3V907.2L638.6 907.1C643.9 904.4 767.6 840 771.7 840C771.9 840 772 840.2 772 840.3C772.2 873.7 773.9 886.9 773.9 887C773.9 887.5 776.3 932.2 810.9 960.1C837.6 981.6 838.4 993.4 839.3 1007.1V1007.3H744.3V1007.2V1007.2Z" fill="#FFBCD8"/>
<path d="M665.2 1007.2C656.7 984.2 649.6 960.4 644.3 936.5L644.2 936.2H644.5C662.4 938.2 688.5 944.7 711.9 964L712 964.1L710.5 1007.2H665.2Z" fill="#444444"/>
<path d="M423.9 856.5C424.2 856.2 452.9 825.9 590 711.9C613.1 693.2 632.6 683.7 647.9 683.7C669.5 683.7 675.2 703 675.3 703.2L646 863.5C630.4 882.8 620 896.3 612.1 907.3L612 907.4H611.9C611.9 907.4 611.5 907.4 610.8 907.4C605 907.4 574.2 906.5 538.3 888.1C506.3 871.7 490.6 864.2 488.9 863.4C436.7 846.7 423.9 856.5 423.9 856.5Z" fill="#CBE1FF"/>
<path d="M396.7 575.5L396.8 575.2C398.8 568.6 401.1 561.5 403.5 553.6C405.2 548.3 406.9 542.7 408.8 536.7V536.6L540.4 536.1L545.9 575.6H396.7V575.5Z" fill="#FFBCD8"/>
<path d="M638.5 907.2C622.1 810 635.9 735 636.8 730.2H473.3C440.3 730.2 414.6 720.9 399 703.2C384.1 686.3 378.4 662.7 382.1 633C383.9 618.6 388.5 602.3 396.8 575.3V575.2H545.8L546.8 582.6C550.5 582.9 615.2 588.8 666.2 597.7C692.1 602.2 712.9 607.5 730.2 618.4C747.8 629.5 760.6 645.8 771.8 671.1C786.8 704.9 812.2 766.2 838.2 831.3C833.5 827.4 810.7 820.2 771.4 840.6C758.3 847.5 749.4 853.9 740 860.6C728.6 868.7 716.8 877.1 696.5 887.2C678.2 896.5 658.7 903.4 638.6 907.5H638.4L638.5 907.2Z" fill="#CBE1FF"/>
<path d="M429.9 338.4C454.145 338.4 473.8 318.745 473.8 294.5C473.8 270.255 454.145 250.6 429.9 250.6C405.655 250.6 386 270.255 386 294.5C386 318.745 405.655 338.4 429.9 338.4Z" fill="#444444"/>
<path d="M350.6 303.7C374.845 303.7 394.5 284.045 394.5 259.8C394.5 235.555 374.845 215.9 350.6 215.9C326.355 215.9 306.7 235.555 306.7 259.8C306.7 284.045 326.355 303.7 350.6 303.7Z" fill="#444444"/>
<path d="M464.8 399.2C452.3 399.2 442.1 389 442.1 376.5C442.1 364 452.3 353.8 464.8 353.8C477.3 353.8 487.5 364 487.5 376.5C487.5 389 477.3 399.2 464.8 399.2Z" fill="white"/>
<path d="M464.8 355.8C476.2 355.8 485.5 365.1 485.5 376.5C485.5 387.9 476.2 397.2 464.8 397.2C453.4 397.2 444.1 387.9 444.1 376.5C444.1 365.1 453.3 355.8 464.8 355.8ZM464.8 351.8C451.1 351.8 440.1 362.9 440.1 376.5C440.1 390.1 451.2 401.2 464.8 401.2C478.4 401.2 489.5 390.1 489.5 376.5C489.5 362.9 478.4 351.8 464.8 351.8Z" fill="#444444"/>
<path d="M461.7 382.3C461.1 382.3 460.4 382 460 381.4C459.4 380.5 459.6 379.2 460.5 378.6L475.1 368.8C476 368.2 477.3 368.4 477.9 369.3C478.5 370.2 478.3 371.5 477.4 372.1L462.8 381.9C462.5 382.2 462.1 382.3 461.7 382.3Z" fill="#444444"/>
<path d="M509.4 398.7C498.9 398.7 488.8 392.1 480.4 379.6C450.8 335.9 455.2 316.2 471.8 298.6C472 298.4 491.6 278.7 516.1 278.7C520.6 278.7 525.1 279.4 529.4 280.7C546.5 286 555 315.8 549.2 349.9C544.2 378.6 527.8 398.7 509.4 398.7Z" fill="white"/>
<path d="M516.1 280.7C520.4 280.7 524.7 281.3 528.8 282.6C536.2 284.9 542.2 292.6 545.8 304.3C549.6 316.9 550.1 332.9 547.2 349.5C544.8 363.6 539.6 375.6 532.3 384.2C525.6 392.2 517.4 396.6 509.4 396.6C499.6 396.6 490.1 390.3 482 378.4C453.2 335.9 457.3 316.8 473.2 300C473.9 299.3 492.8 280.7 516.1 280.7ZM516.1 276.7C490.4 276.7 470.3 297.3 470.3 297.3C451.8 316.9 450.2 338.6 478.7 380.7C488.1 394.5 498.9 400.6 509.4 400.6C528.3 400.6 545.9 380.7 551.1 350.2C557.3 314.4 547.9 284.3 530 278.8C525.2 277.3 520.6 276.7 516.1 276.7Z" fill="#444444"/>
<path d="M470.3 297.3C454.2 314.3 450.9 333 469 365.1C499.7 345.1 489.4 299.2 489.4 299.2C521.5 315.3 550.9 308 550.9 308C547.5 292.8 540.1 281.9 530 278.8C498.1 268.9 470.3 297.3 470.3 297.3Z" fill="#444444"/>
<path d="M528.9 350.6C528.3 350.6 527.7 350.3 527.3 349.8C526.6 348.9 526.7 347.7 527.6 347C528.8 346 529.7 344.8 530.2 343.5C530.9 341.3 530.1 336.5 527.5 327C527.2 325.9 527.8 324.8 528.9 324.5C530 324.2 531.1 324.8 531.4 325.9C534.4 336.6 535.1 341.5 534.1 344.8C533.4 346.9 532 348.7 530.2 350.1C529.8 350.5 529.3 350.6 528.9 350.6Z" fill="#444444"/>
<path d="M514 337.3C513 337.3 512.2 336.6 512 335.6L511.6 333C511.4 331.9 512.2 330.9 513.3 330.7C514.4 330.5 515.4 331.3 515.6 332.4L516 335C516.2 336.1 515.4 337.1 514.3 337.3C514.2 337.3 514.1 337.3 514 337.3Z" fill="#444444"/>
<path d="M540.8 326.7C539.8 326.7 539 326 538.8 325L538.4 322.5C538.2 321.4 539 320.4 540.1 320.2C541.2 320 542.2 320.8 542.4 321.9L542.8 324.4C543 325.5 542.2 326.5 541.1 326.7C541 326.7 540.9 326.7 540.8 326.7Z" fill="#444444"/>
<path d="M521.4 364.7C519.4 364.7 517.5 364.1 515.8 363C513.5 361.5 511.9 359.1 511.4 356.4C511.2 355.3 511.9 354.3 513 354C514.1 353.8 515.1 354.5 515.4 355.6C515.7 357.3 516.7 358.7 518.1 359.6C519.5 360.5 521.1 360.9 522.7 360.5C523 360.4 523.4 360.3 523.9 360.1C524.9 359.7 526.1 360.2 526.5 361.2C526.9 362.2 526.4 363.4 525.4 363.8C524.9 364 524.2 364.3 523.5 364.4C522.7 364.6 522 364.7 521.4 364.7Z" fill="#444444"/>
<path d="M587.8 611C565.2 611 549.7 603.8 540.6 597.8C530.8 591.3 526.2 584.6 526.2 584.5L526.1 584.4C525.9 584.1 503.6 555.9 486.7 511.9C486.7 511.9 486.7 511.8 486.6 511.8L470.2 476.8L553 436L579.4 474.1C583.6 483 589 495 589.1 495.1C589.4 495.8 590 496.2 590.7 496.3C590.8 496.3 590.8 496.3 590.9 496.3C591.6 496.3 592.2 496 592.6 495.4C593.2 494.5 655.5 403.3 685.3 374.5C691.7 368.4 696 367.1 698.5 367.1C702.6 367.1 704.5 370.7 705.4 373.7C705.6 374.3 706 374.7 706.5 375C706.8 375.1 707 375.2 707.3 375.2C707.6 375.2 707.9 375.1 708.2 375C708.3 374.9 721.8 368.2 734.1 365.4C735.5 365.1 736.7 364.9 737.9 364.9C745.4 364.9 747.2 371.4 747.3 371.7C747.5 372.5 748.1 373 748.9 373.2C752.2 373.8 754.4 375.1 755.6 377.1C757.4 380.2 756.2 384.2 756.2 384.3C756 384.9 756.1 385.5 756.4 386C756.7 386.5 757.3 386.8 757.8 386.9C760.8 387.3 762.9 388.4 764 390.3C765.3 392.4 765.2 395.4 764 398.9C763.6 399.9 764.1 400.9 765 401.4C765 401.4 768.6 403.3 768.9 406.7C769.2 410 766.4 414.1 760.7 418.5C759 419.9 757.2 421.2 755.6 422.4C740.3 434 727.1 444.1 708.4 479.7C706.4 483.6 704.3 487.6 702.2 491.6C688.2 518.5 672.4 549 653.7 572.1C632.6 598.3 611 611 587.8 611Z" fill="white"/>
<path d="M737.9 366.9C743.6 366.9 745.1 371.4 745.4 372.2C745.7 373.8 747 374.9 748.6 375.2C751.3 375.7 753 376.7 753.9 378.1C755.1 380 754.6 382.8 754.3 383.7C753.9 384.8 754.1 386.1 754.7 387.1C755.3 388.1 756.4 388.8 757.6 388.9C759.2 389.1 761.4 389.7 762.4 391.3C763.3 392.9 763.3 395.3 762.2 398.1C761.5 400 762.3 402.1 764.1 403.1C764.1 403.1 766.8 404.5 767 406.8C767.2 409.4 764.5 413 759.6 416.9C757.9 418.3 756.1 419.6 754.5 420.8C739 432.6 725.6 442.8 706.8 478.7C704.8 482.6 702.7 486.6 700.6 490.6C686.7 517.4 670.9 547.8 652.3 570.8C631.5 596.5 610.5 609 587.9 609C565.9 609 550.8 602.1 542 596.2C532.4 589.9 528 583.4 527.9 583.4C527.8 583.3 527.8 583.2 527.7 583.1C527.5 582.8 505.3 554.8 488.6 511.2C488.6 511.1 488.5 511 488.5 510.9L472.9 477.7L552.4 438.5L577.7 475.1C581.9 484 587.2 495.8 587.3 496C587.9 497.3 589.2 498.2 590.6 498.3C590.7 498.3 590.8 498.3 591 498.3C592.3 498.3 593.6 497.7 594.3 496.6C594.9 495.7 657.1 404.7 686.8 376C693 370 696.8 369.1 698.6 369.1C699.5 369.1 702.1 369.1 703.6 374.2C703.9 375.3 704.8 376.3 705.8 376.7C706.3 376.9 706.8 377 707.4 377C708 377 708.6 376.9 709.2 376.6C709.3 376.5 722.6 369.9 734.7 367.2C735.8 367 736.9 366.9 737.9 366.9ZM737.9 362.9C736.6 362.9 735.2 363.1 733.6 363.4C720.9 366.3 707.2 373.2 707.2 373.2C705.7 368.1 702.6 365.2 698.3 365.2C694.4 365.2 689.4 367.7 683.7 373.2C653.4 402.5 590.7 494.4 590.7 494.4C590.7 494.4 585.2 482.2 580.9 473.2L553.4 433.5L467.3 476L484.5 512.7C501.7 557.5 524.2 585.7 524.2 585.7C524.2 585.7 542.6 613.1 587.5 613.1C645 613.1 680.1 537.5 709.9 480.7C730.4 441.6 744.1 433.8 761.7 420.1C779.3 406.4 765.6 399.6 765.6 399.6C768.5 391.8 765.6 385.9 757.8 385C757.8 385 761.6 373.6 749 371.3C749.3 371.2 747.2 362.9 737.9 362.9Z" fill="#444444"/>
<path d="M650.6 417.2C650.1 417.2 649.6 417 649.2 416.6C648.4 415.8 648.4 414.6 649.1 413.8C672.6 389.3 705.1 374.4 705.4 374.3C706.4 373.8 707.6 374.3 708 375.3C708.5 376.3 708 377.5 707 377.9C706.7 378 674.9 392.6 651.9 416.6C651.7 417 651.1 417.2 650.6 417.2Z" fill="#444444"/>
<path d="M406.5 545.2C406.2 545.1 385.8 539 382.9 516.7C380.6 498.9 384.7 483.1 413.5 445.9C442.9 408.1 467.8 379.1 498.7 379.1C499.8 379.1 500.9 379.1 502 379.2C524.6 380.8 542.4 394.3 555 419.5C565 439.4 573.8 457.5 581.4 473.4L581.5 473.6L485 512.8C489.2 523.7 494.1 534.6 499.5 545L499.7 545.3L406.5 545.2Z" fill="#FFBCD8"/>
<path d="M500.2 547H406.5C405.4 547 404.5 546.1 404.5 545C404.5 543.9 405.4 543 406.5 543H500.2C501.3 543 502.2 543.9 502.2 545C502.2 546.1 501.3 547 500.2 547Z" fill="#444444"/>
<path d="M518.8 577.3H396.7C395.6 577.3 394.7 576.4 394.7 575.3C394.7 574.2 395.6 573.3 396.7 573.3H518.8C519.9 573.3 520.8 574.2 520.8 575.3C520.8 576.4 519.9 577.3 518.8 577.3Z" fill="#444444"/>
<path d="M488.5 518.7C487.7 518.7 487 518.3 486.7 517.5C481.1 504.5 474 485.3 471 476.3C470.7 475.3 471.2 474.1 472.3 473.8C473.3 473.5 474.5 474 474.8 475.1C477.7 484 484.7 503.1 490.3 515.9C490.7 516.9 490.3 518.1 489.3 518.5C489 518.6 488.8 518.7 488.5 518.7Z" fill="#444444"/>
<path d="M420 577.3C419.9 577.3 419.8 577.3 419.7 577.3C418.6 577.1 417.9 576.1 418.1 575L423.1 544.7C423.3 543.6 424.3 542.9 425.4 543.1C426.5 543.3 427.2 544.3 427 545.4L422 575.7C421.8 576.6 421 577.3 420 577.3Z" fill="#444444"/>
<path d="M451.4 577.3H451.3C450.2 577.2 449.4 576.3 449.4 575.2L451.5 544.9C451.6 543.8 452.5 543 453.6 543C454.7 543.1 455.5 544 455.5 545.1L453.4 575.4C453.3 576.5 452.4 577.3 451.4 577.3Z" fill="#444444"/>
<path d="M483.9 577.3C482.8 577.3 481.9 576.4 481.9 575.3L481.6 545C481.6 543.9 482.5 543 483.6 543C484.7 543 485.6 543.9 485.6 545L485.9 575.3C485.9 576.4 485 577.3 483.9 577.3Z" fill="#444444"/>
<path d="M687.7 406.4C687.1 406.4 686.5 406.1 686.1 405.6C685.5 404.7 685.7 403.5 686.6 402.8C707.9 387.6 729.3 376.1 746.7 370.3C747.7 370 748.9 370.5 749.2 371.6C749.5 372.7 749 373.8 747.9 374.1C730.8 379.7 709.8 391.1 688.8 406C688.5 406.3 688.1 406.4 687.7 406.4Z" fill="#444444"/>
<path d="M699.5 420C698.9 420 698.3 419.7 697.9 419.2C697.3 418.3 697.5 417.1 698.4 416.4C722 399.3 741.5 388.1 754.7 383.9C755.8 383.6 756.9 384.1 757.2 385.2C757.5 386.3 757 387.4 755.9 387.7C743.1 391.8 724.1 402.8 700.8 419.6C700.3 419.9 699.9 420 699.5 420Z" fill="#444444"/>
<path d="M710 435.5C709.5 435.5 708.9 435.3 708.6 434.9C707.8 434.1 707.9 432.8 708.7 432.1C721.1 420.2 749.1 403.7 763.3 398.7C764.3 398.3 765.5 398.9 765.9 399.9C766.3 400.9 765.7 402.1 764.7 402.5C750.9 407.4 723.6 423.4 711.5 435.1C711 435.3 710.5 435.5 710 435.5Z" fill="#444444"/>
<path d="M598.9 518.7C598.1 518.7 597.4 518.3 597.1 517.5L588.3 498C587.8 497 588.3 495.8 589.3 495.4C590.3 494.9 591.5 495.4 591.9 496.4L600.7 515.9C601.2 516.9 600.7 518.1 599.7 518.5C599.5 518.6 599.2 518.7 598.9 518.7Z" fill="#444444"/>
<path d="M639.1 909C638.1 909 637.3 908.3 637.1 907.3C620.1 807 635.3 730.1 635.4 729.4C635.6 728.3 636.7 727.6 637.8 727.8C638.9 728 639.6 729.1 639.4 730.2C639.2 731 624.3 807.1 641.1 906.7C641.3 907.8 640.6 908.8 639.5 909C639.3 909 639.2 909 639.1 909Z" fill="#444444"/>
<path d="M670.2 731.9H568.6C567.5 731.9 566.6 731 566.6 729.9C566.6 728.8 567.5 727.9 568.6 727.9H670.2C671.3 727.9 672.2 728.8 672.2 729.9C672.2 731 671.3 731.9 670.2 731.9Z" fill="#444444"/>
<path d="M439.5 1007.2V1007C439.6 1006.7 445.5 976.3 458.6 936.5L458.7 936.3H458.9C480.1 940.6 494.9 954.7 503.6 965.7L503.7 965.8L488.8 1007.2H439.5V1007.2Z" fill="#444444"/>
<path d="M522.1 1007.2V1007C520.3 994.3 513 978.5 503.2 966C494.6 955 479.9 941 458.8 936.7H458.6L458.7 936.5C460.9 929.8 463.4 922.6 466 915.2C466.1 914.8 480.7 876.9 488.5 863.4L488.6 863.3L612.2 907L612 907.2C601 922.6 595.2 933.2 594.2 939.6C592.3 952.1 596 961.1 608.8 975.6C615.9 983.6 618.6 991.7 619.5 997.1C620.5 1002.9 619.8 1007 619.8 1007V1007.2H522.1Z" fill="#FFBCD8"/>
<path d="M748.5 856.1C747.8 856.1 747.1 855.7 746.7 855C744.4 850.4 741 847.5 736.4 846.1C723 842.2 704.5 853.2 704.3 853.3C703.5 853.8 702.6 853.7 701.9 853C701.2 852.4 701.1 851.4 701.5 850.6C701.8 850.1 727.5 799 720.9 779.2C719.9 776.3 718.4 774.4 716.1 773.2C712.9 771.6 709.6 771.5 706 773C697.3 776.6 687.4 789.3 677.5 809.8C669.9 825.5 664.9 840.3 664.8 840.5C664.5 841.4 663.6 842 662.6 841.8C661.6 841.7 660.9 840.9 660.9 839.9C660.9 839.4 658.9 786.3 642.5 772.7C639.5 770.2 636.4 769.3 632.8 769.8C631.7 770 630.7 769.2 630.5 768.1C630.3 767 631.1 766 632.2 765.8C636.9 765.1 641.2 766.4 645 769.5C658.4 780.6 662.8 813.6 664.2 830.1C670.8 812.9 686.6 776.5 704.4 769.2C709 767.3 713.6 767.4 717.8 769.5C721 771.1 723.3 773.9 724.6 777.8C730.4 795.4 714.2 832.7 707.6 846.8C714.6 843.5 727 839 737.4 842C743.1 843.7 747.4 847.3 750.2 852.9C750.7 853.9 750.3 855.1 749.3 855.6C749.1 856 748.8 856.1 748.5 856.1Z" fill="#444444"/>
<path d="M659.8 903.7C659 903.7 658.2 903.2 657.9 902.3C655.9 896.2 656.9 888.9 660.3 883.3C663.1 878.8 667.2 875.9 671.8 875.1C678.1 874 682.1 876.6 684.3 878.9C688.1 882.8 689.4 888.6 688.6 892.1C688.4 893.2 687.3 893.9 686.2 893.6C685.1 893.4 684.4 892.3 684.6 891.2C685 889.1 684.1 884.5 681.3 881.6C679 879.2 676 878.3 672.3 879C668.8 879.6 665.7 881.8 663.5 885.3C660.6 890 659.8 896 661.5 901C661.8 902.1 661.3 903.2 660.2 903.5C660.2 903.7 660 903.7 659.8 903.7Z" fill="#444444"/>
<path d="M825.4 801.6C825.3 801.6 825.2 801.6 825.1 801.6C820.3 800.9 803.4 798.3 785.3 792.5C768.4 787 757.2 780.8 752.2 774C749.7 770.6 748.7 767.1 749.2 763.5C750 758.6 753.3 754.4 759 751.4C771.6 744.8 793 745.1 807.8 752.2C808.8 752.7 809.2 753.9 808.7 754.9C808.2 755.9 807 756.3 806 755.8C792.5 749.3 772.2 749 760.8 755C757.7 756.6 753.8 759.6 753.1 764.1C752.7 766.6 753.5 769.1 755.4 771.6C765.3 784.8 803.8 794.6 825.6 797.6C826.7 797.8 827.5 798.8 827.3 799.9C827.2 800.9 826.4 801.6 825.4 801.6Z" fill="#444444"/>
<path d="M696.8 718.9C694.6 718.9 692.4 718.6 690.2 718C685.4 716.6 681.8 713.6 679.7 708.9C672.2 692.6 684.1 660.4 689.5 647.5C675.1 655.2 635.5 674.4 621 659.9C617 655.9 615.4 650.6 616.5 644.6C618 635.6 626.9 617.5 669.5 596.8C670.5 596.3 671.7 596.7 672.2 597.7C672.7 598.7 672.3 599.9 671.3 600.4C641.4 614.9 622.9 631.3 620.5 645.2C619.7 649.9 620.9 654 623.9 657.1C636.6 669.8 677.9 649.9 692.8 641.2C693.6 640.8 694.5 640.9 695.2 641.4C695.8 642 696 642.9 695.7 643.7C695.5 644.1 675.1 688.7 683.6 707.2C685.3 710.8 687.9 713.1 691.6 714.1C716.8 721.3 731 676.8 731.1 676.3C731.4 675.5 732.2 674.9 733 674.9C733.9 674.9 734.7 675.5 734.9 676.4C734.9 676.6 740 694.1 753.9 700.1C762.1 703.6 771.8 702.5 782.9 696.7C783.9 696.2 785.1 696.6 785.6 697.5C786.1 698.5 785.7 699.7 784.8 700.2C772.6 706.6 761.7 707.8 752.3 703.7C741.7 699.1 735.8 689 733.1 682.7C731.3 687.2 728.3 694 724 700.5C715.7 712.6 706.5 718.9 696.8 718.9Z" fill="#444444"/>
<path d="M600.2 731.7C599.7 731.7 599.2 731.5 598.8 731.1C598 730.3 598 729.1 598.8 728.3C598.9 728.2 611.9 714.4 604.2 702.1C592.2 682.5 547.4 702.8 546.9 703C546.1 703.4 545.1 703.2 544.5 702.5C543.9 701.8 543.9 700.8 544.4 700.1C544.7 699.7 572.4 657.7 565.3 637.3C563.7 632.7 560.4 629.6 555.3 627.9C549.4 626 543.9 626.6 538.6 629.7C517.2 642.2 507.2 690.4 507.1 690.9C506.9 691.7 506.2 692.4 505.4 692.5C504.5 692.6 503.7 692.1 503.4 691.4C503.2 691 482.6 647 463.2 642C459.3 641 455.9 641.7 452.6 644.1C448.5 647.2 446.3 651 446.1 655.9C445.1 675.9 476 704.3 476.3 704.6C477 705.2 477.1 706.2 476.7 707C476.3 707.8 475.4 708.2 474.6 708.1L472.9 707.8C456.2 704.9 430.9 700.4 422.2 719.9C421.7 720.9 420.6 721.4 419.6 720.9C418.6 720.4 418.1 719.3 418.6 718.3C427.7 698 452 700.3 469 703.1C460 693.9 441.3 672.8 442.2 655.8C442.5 649.7 445.2 644.7 450.3 641C454.5 637.9 459.2 636.9 464.3 638.2C481.5 642.6 498.4 672.5 504.6 684.7C508 671.2 518.1 637.3 536.7 626.4C543 622.7 549.7 622 556.7 624.2C563 626.2 567.3 630.2 569.3 636.1C575.5 654 558.8 684.7 551.3 697.1C564.6 692 596.7 682.1 607.8 700.2C617.1 715.1 602.5 730.6 601.8 731.2C601.2 731.5 600.7 731.7 600.2 731.7Z" fill="#444444"/>
<path d="M491.6 624.9C488.3 624.9 485.1 623.9 482 621.9C472 615.3 464.3 597.5 462.1 575.5C462 574.4 462.8 573.4 463.9 573.3C465 573.2 466 574 466.1 575.1C468.2 596 475.2 612.6 484.2 618.6C487.8 621 491.7 621.5 495.7 620.3C498.4 619.5 500.3 617.7 501.7 615C507.8 602.7 498.4 576.2 498.4 576C498 575 498.6 573.8 499.6 573.4C500.6 573 501.8 573.6 502.2 574.6C502.6 575.7 512.2 602.9 505.4 616.8C503.6 620.5 500.8 622.9 497.1 624.1C495.1 624.7 493.3 624.9 491.6 624.9Z" fill="#444444"/>
<path d="M386.2 631.1C385.1 631.1 383.9 631.1 382.8 631C381.7 630.9 380.9 630 380.9 628.9C381 627.8 381.9 627 383 627C399.5 628 423.1 621 424 607.4C424.2 603.7 422.9 600.7 420 598.6C413.9 594.1 402 593.8 391.5 597.7C390.5 598.1 389.3 597.6 388.9 596.5C388.5 595.5 389 594.3 390.1 593.9C401.9 589.4 415.2 590 422.3 595.3C426.3 598.3 428.3 602.5 428 607.6C427.5 615.5 421.7 621.9 411.1 626.3C403.9 629.3 394.6 631.1 386.2 631.1Z" fill="#444444"/>
<path d="M400.6 683.7C393.1 683.7 385.3 680.8 384.8 680.6C383.8 680.2 383.2 679.1 383.6 678C384 677 385.1 676.4 386.2 676.8C390.1 678.3 401.5 681.4 407.1 678.3C408.9 677.3 409.9 675.8 410.3 673.6C412.1 663.7 399 652 380.6 647C379.5 646.7 378.9 645.6 379.2 644.5C379.5 643.4 380.6 642.8 381.7 643.1C402.4 648.7 416.4 662.1 414.2 674.3C413.6 677.7 411.9 680.2 409 681.8C406.8 683.2 403.7 683.7 400.6 683.7Z" fill="#444444"/>
<path d="M738 638.8C730.9 638.8 724.9 635.1 721.3 630.3C716.7 624.1 716.8 617 721.4 612.7C722.2 611.9 723.5 612 724.2 612.8C725 613.6 724.9 614.9 724.1 615.6C720.5 618.9 721.7 624.2 724.5 627.9C730.7 636.3 740.8 635.9 747.5 632C748.5 631.4 749.7 631.8 750.2 632.7C750.7 633.6 750.4 634.9 749.5 635.4C745.6 637.8 741.7 638.8 738 638.8Z" fill="#444444"/>
<path d="M499.4 731.9H499.3C498.2 731.8 497.4 730.9 497.4 729.8C498 721.4 506.3 716.4 513.6 716.7C520.9 717 525.7 722.1 525.7 729.8C525.7 730.9 524.8 731.8 523.7 731.8C522.6 731.8 521.7 730.9 521.7 729.8C521.7 721.9 516 720.8 513.5 720.7C508 720.5 501.8 724.2 501.4 730.1C501.3 731.1 500.4 731.9 499.4 731.9Z" fill="#444444"/>
<path d="M634 754.1C633.8 754.1 633.5 754.1 633.3 754C619.3 748.3 593.5 750.2 593.2 750.2C592.2 750.3 591.3 749.6 591.1 748.7C590.9 747.8 591.3 746.8 592.2 746.4C592.4 746.3 607.3 739.7 613.2 730.4C613.8 729.5 615 729.2 616 729.8C616.9 730.4 617.2 731.6 616.6 732.6C613 738.3 606.7 742.9 601.7 746C610.9 745.9 625.2 746.5 634.8 750.4C635.8 750.8 636.3 752 635.9 753C635.5 753.6 634.8 754.1 634 754.1Z" fill="#444444"/>
<path d="M569.4 852.5C563.8 852.5 558.7 850.8 554.1 847.4C539.1 836.4 533.7 810.7 532.1 800C528.2 804.6 520.7 812.8 511 819.7C491.8 833.4 473.4 835.6 457.7 825.9C456.8 825.3 456.5 824.1 457 823.1C457.6 822.2 458.8 821.9 459.8 822.4C494.4 843.8 531.5 794.3 531.8 793.8C532.3 793.1 533.1 792.8 533.9 793.1C534.7 793.3 535.3 794 535.4 794.8C535.4 795.2 539.1 831.4 556.4 844.1C561.8 848 568 849.3 575 847.8C580.1 846.7 583.6 844.1 585.6 839.7C594.4 821.2 573.8 779.9 573.6 779.5C573.2 778.6 573.4 777.5 574.2 777C575 776.4 576.1 776.5 576.8 777.2C576.9 777.3 583.6 784.2 593.7 790.3C602.8 795.8 616.7 801.8 630.7 799C631.8 798.8 632.8 799.5 633.1 800.6C633.4 801.7 632.6 802.7 631.5 803C619.4 805.5 605.6 802.3 591.6 793.8C587.5 791.3 584 788.7 581.2 786.5C587 800.2 596.4 826.6 589.3 841.6C586.7 847 582.2 850.5 575.9 851.9C573.7 852.2 571.5 852.5 569.4 852.5Z" fill="#444444"/>
<path d="M585.8 900.1C585.5 900.1 585.1 900 584.8 899.8C583.8 899.2 583.5 898 584.1 897.1C584.2 897 589.7 887.5 587.3 880.1C586.3 877 584.1 874.7 580.6 873.2C564.9 866.2 545.7 875.5 535.8 881.7C534.9 882.3 533.6 882 533 881C532.4 880.1 532.7 878.8 533.7 878.2C544.4 871.6 564.8 861.8 582.3 869.5C586.9 871.5 589.9 874.7 591.2 878.9C594.1 888 587.9 898.7 587.7 899.2C587.2 899.7 586.5 900.1 585.8 900.1Z" fill="#444444"/>
<path d="M534.2 771.2C531.1 771.2 528.1 770 525.8 767.3C525.1 766.4 525.2 765.2 526.1 764.5C527 763.8 528.2 763.9 528.9 764.8C531.8 768.3 536.4 767.7 539.5 765.6C542.8 763.4 545.5 758.7 542.4 752.8C541.9 751.8 542.3 750.6 543.2 750.1C544.2 749.6 545.4 750 545.9 750.9C550 758.7 546.7 765.6 541.6 768.9C539.5 770.3 536.9 771.2 534.2 771.2Z" fill="#444444"/>
<path d="M595 938.5H566.6C565.5 938.5 564.6 937.6 564.6 936.5C564.6 935.4 565.5 934.5 566.6 934.5H595C596.1 934.5 597 935.4 597 936.5C597 937.6 596.1 938.5 595 938.5Z" fill="#444444"/>
<path d="M570.6 969C569.9 969 569.2 968.6 568.8 967.9C568.3 966.9 568.7 965.7 569.7 965.2L594.1 953.1C595.1 952.6 596.3 953 596.8 954C597.3 955 596.9 956.2 595.9 956.7L571.5 968.8C571.2 968.9 570.9 969 570.6 969Z" fill="#444444"/>
<path d="M753.7 919C752.8 919 751.9 918.3 751.7 917.4C751.5 916.3 752.2 915.3 753.3 915.1L778.8 910.4C779.9 910.2 780.9 910.9 781.1 912C781.3 913.1 780.6 914.1 779.5 914.3L754 919C753.9 919 753.8 919 753.7 919Z" fill="#444444"/>
<path d="M765.9 948.4C765.2 948.4 764.5 948 764.1 947.3C763.6 946.3 764 945.1 765 944.6L788.4 932.9C789.4 932.4 790.6 932.8 791.1 933.8C791.6 934.8 791.2 936 790.2 936.5L766.8 948.2C766.5 948.3 766.2 948.4 765.9 948.4Z" fill="#444444"/>
<path d="M788.9 937.2C788.2 937.2 787.5 936.8 787.2 936.2C786.7 935.4 786.9 934.4 787.6 933.7L872.6 855.9C874.1 854.5 875.7 853.3 877.5 852.3C883.8 848.6 891.2 847.6 898.4 849.5C905.5 851.4 911.4 855.9 915.1 862.3C916 863.9 916.8 865.7 917.5 867.8C919.7 874.8 919 882.3 915.6 888.8C912.2 895.3 906.5 900.1 899.5 902.3L789.6 937C789.3 937.2 789.1 937.2 788.9 937.2ZM891.2 852.6C887.1 852.6 883.1 853.7 879.5 855.8C878 856.6 876.6 857.7 875.4 858.8L797.1 930.5L898.4 898.5C904.4 896.6 909.3 892.5 912.2 886.9C915.1 881.3 915.7 874.9 913.8 869C913.2 867.2 912.5 865.6 911.8 864.3C908.6 858.9 903.6 855 897.5 853.4C895.2 852.9 893.2 852.6 891.2 852.6Z" fill="#444444"/>
<path d="M857.2 963.1C855.1 963.1 853 962.7 851 961.9L788.1 937.2C787.2 936.9 786.7 936 786.9 935C787 934.1 787.8 933.4 788.8 933.3L856.2 929.1H856.3C857.5 929.1 858.7 929.1 860 929.3C864.5 930 868.4 932.4 871.1 936C873.8 939.7 874.9 944.1 874.1 948.6C873.9 949.5 873.6 950.8 873.1 952.1C871.5 956.3 868.3 959.6 864.1 961.5C861.9 962.7 859.6 963.1 857.2 963.1ZM798 936.8L852.5 958.2C855.7 959.5 859.3 959.4 862.4 958C865.6 956.6 868 954.1 869.3 950.8C869.7 949.8 870 948.7 870.1 948C870.6 944.6 869.8 941.2 867.8 938.4C865.8 935.6 862.7 933.8 859.3 933.2C858.4 933 857.4 933 856.4 933L798 936.8Z" fill="#444444"/>
<path d="M788.9 937.4C787.9 937.4 787 936.6 786.9 935.5C785.8 919.3 791.2 907 796.4 895.1C802.5 881.1 808.3 867.9 803.1 849.3C802.8 848.2 803.4 847.1 804.5 846.8C805.6 846.5 806.7 847.1 807 848.2C812.5 868.1 806.2 882.6 800.1 896.6C795.1 908.1 789.9 920 791 935.2C791.1 936.3 790.2 937.3 789.1 937.3C789 937.4 788.9 937.4 788.9 937.4Z" fill="#444444"/>
<path d="M800.3 441.9C795.1 441.9 793.1 438.8 793.1 438.7V438.6C787.3 417.3 820.2 381.2 820.5 380.8L820.8 380.5L820.9 380.9C821 381.2 828.3 411 833.5 428.4V428.5L833.4 428.6C826.7 433.6 818.9 439.1 810.7 440.9C806.4 441.8 805.9 441.9 802.8 441.9C802.8 441.9 800.3 441.9 800.3 441.9Z" fill="#444444"/>
<path d="M835.1 427.8C829.9 410.5 822.6 380.8 822.5 380.5C816.6 355.9 801.4 289.8 803 279.7C803.9 274.2 806.3 271.3 810.4 271.3C811.5 271.3 812.2 271.5 812.2 271.5C812.4 271.6 812.6 271.6 812.8 271.6C813.3 271.6 813.7 271.4 814.1 271.1C814.6 270.7 814.9 270 814.8 269.3C813.5 259.9 815.2 255.7 816.8 253.9C818.2 252.3 819.9 252 820.9 252C821.1 252 821.3 252 821.3 252C821.4 252 821.5 252 821.6 252C822.6 252 823.4 251.3 823.6 250.3C824.7 243.5 828.2 242.1 831 242.1C831.6 242.1 832 242.2 832 242.2C832.1 242.2 832.3 242.2 832.4 242.2C833.3 242.2 834.1 241.6 834.3 240.8C835.3 237.5 837.2 235.8 839.8 235.8C842.4 235.8 845.1 237.6 846.2 240C849.1 246.7 858.8 273.8 858.9 274.1C859.2 274.9 860 275.4 860.8 275.4C860.9 275.4 861.1 275.4 861.2 275.4C861.8 275.3 862.4 275.2 863 275.2C869.4 275.2 874.4 283.8 880.5 297.7C883.1 303.5 891.5 323.4 905.6 356.6L919.1 396.8L847.1 462.2L835.1 427.8Z" fill="white"/>
<path d="M839.7 237.9C841.5 237.9 843.5 239.2 844.2 240.9C847 247.5 856.7 274.6 856.8 274.9C857.4 276.5 858.9 277.6 860.6 277.6C860.9 277.6 861.2 277.6 861.5 277.5C862 277.4 862.4 277.3 862.8 277.3C868.4 277.3 873.6 287.5 878.4 298.6C880.9 304.4 889.4 324.2 903.5 357.5L916.6 396.4L847.8 458.9L837 427.2C831.8 409.9 824.5 380.3 824.5 380C816.3 345.9 803.7 288.7 805 280C806 273.4 809.3 273.3 810.4 273.3C811 273.3 811.5 273.4 811.6 273.4C812 273.5 812.4 273.6 812.8 273.6C813.7 273.6 814.6 273.3 815.3 272.7C816.4 271.8 816.8 270.4 816.7 269.1C815.5 260 817.1 256.5 818.2 255.2C819.1 254.2 820.1 254 820.7 254C820.8 254 820.8 254 820.8 254C821.1 254.1 821.3 254.1 821.6 254.1C822.4 254.1 823.1 253.9 823.8 253.4C824.7 252.8 825.2 251.8 825.4 250.7C826.1 246.4 827.9 244.2 830.8 244.2C831.1 244.2 831.3 244.2 831.4 244.2C831.7 244.3 832 244.3 832.4 244.3C834.1 244.3 835.6 243.1 836.1 241.4C836.9 239.1 838.1 237.9 839.7 237.9ZM839.7 233.9C836.7 233.9 833.7 235.7 832.3 240.3C832.3 240.3 831.8 240.2 830.9 240.2C828.3 240.2 823 241.3 821.6 250.1C821.6 250.1 821.3 250.1 820.9 250.1C818.4 250.1 810.4 251.5 812.8 269.7C812.8 269.7 811.8 269.4 810.4 269.4C807.4 269.4 802.4 270.8 801 279.5C799 292.2 820.5 381.1 820.5 381.1C820.5 381.1 827.8 411 833.1 428.6L845.9 466.1L921.1 397.7L907.3 356C896 329.4 885.2 303.8 882.2 297C875.9 282.7 870.5 273.3 862.9 273.3C862.2 273.3 861.5 273.4 860.7 273.5C860.7 273.5 850.9 246.2 848 239.3C846.6 236.2 843.1 233.9 839.7 233.9Z" fill="#444444"/>
<path d="M909.6 553.1C891.9 553.1 864.3 545.6 833.5 510C812.2 485.4 797.8 456.4 793 438.7C793 438.7 809.1 446.9 833.2 428.2C843.5 419.3 849.8 411.2 857.1 401.8C862.2 395.2 868 387.8 876 379C895.1 358 907 356 907.1 355.9H907.3L907.4 356C921.2 388.6 935.7 422.8 936.9 425.7L1069.2 358.2L1079.1 369.5L1010.2 515.9C1009.9 516.3 980 550.2 912.4 553.1C911.5 553.1 910.6 553.1 909.6 553.1Z" fill="#46B160"/>
<path d="M841 363.4C840 363.4 839.1 362.6 839 361.5C837.3 335.7 853.3 320.2 857.4 316.7C857.2 315.6 857 314.5 856.8 313.3C854.2 298.3 850.5 277.8 859.8 273.7C860.8 273.3 862 273.7 862.4 274.7C862.8 275.7 862.4 276.9 861.4 277.3C855.1 280.1 858.9 302 860.8 312.5C861.1 314.2 861.4 315.8 861.6 317.1C861.7 317.8 861.4 318.6 860.8 319C860.6 319.1 841.2 334.3 843 361.2C843.1 362.3 842.2 363.3 841.1 363.3C841.1 363.4 841 363.4 841 363.4Z" fill="#444444"/>
<path d="M846 299C845.2 299 844.4 298.5 844.1 297.6C842.6 292.8 829.3 250.8 832.4 240.7C832.7 239.6 833.8 239.1 834.9 239.4C836 239.7 836.6 240.8 836.2 241.9C834.1 248.6 842.1 278.2 847.9 296.4C848.2 297.5 847.7 298.6 846.6 298.9C846.4 299 846.2 299 846 299Z" fill="#444444"/>
<path d="M835.2 306.8C834.3 306.8 833.6 306.3 833.3 305.4C822.6 271.4 821.6 252 821.5 251.2C821.4 250.1 822.3 249.2 823.4 249.1C824.5 249.1 825.4 249.9 825.5 251C825.5 251.2 826.6 270.7 837.1 304.2C837.4 305.3 836.8 306.4 835.8 306.7C835.6 306.8 835.4 306.8 835.2 306.8Z" fill="#444444"/>
<path d="M824.5 316.5C823.6 316.5 822.8 315.9 822.6 315C816.7 293.8 812.8 271.1 812.8 270.9C812.6 269.8 813.3 268.8 814.4 268.6C815.5 268.4 816.5 269.1 816.7 270.2C816.7 270.4 820.7 292.9 826.5 313.9C826.8 315 826.2 316.1 825.1 316.4C824.9 316.5 824.7 316.5 824.5 316.5Z" fill="#444444"/>
<path d="M818.6 321.4C818 321.4 817.4 321.1 817 320.6C816.3 319.7 816.5 318.5 817.4 317.8L847.7 294.4C848.6 293.7 849.8 293.9 850.5 294.8C851.2 295.7 851 296.9 850.1 297.6L819.8 321C819.5 321.3 819 321.4 818.6 321.4Z" fill="#444444"/>
<path d="M945.6 449.4C944.8 449.4 944.1 448.9 943.7 448.2L934.9 426.7C934.5 425.7 935 424.5 936 424.1C937 423.7 938.2 424.2 938.6 425.2L947.4 446.7C947.8 447.7 947.3 448.9 946.3 449.3C946.1 449.4 945.9 449.4 945.6 449.4Z" fill="#444444"/>
<path d="M825.5 490.9C822.4 490.9 819.5 490.6 816.9 490C815.8 489.8 815.1 488.7 815.4 487.6C815.6 486.5 816.7 485.8 817.8 486.1C831.4 489 852.5 485.5 875.2 452.1C892.4 427 913.7 407.2 928.2 402.9C929.3 402.6 930.4 403.2 930.7 404.3C931 405.4 930.4 406.5 929.3 406.8C915.6 410.8 895.2 430 878.5 454.4C858.7 483.3 839.8 490.9 825.5 490.9Z" fill="#444444"/>
<path d="M946.3 625.3L1078.3 357.3L1136.3 354L1221.3 625.3H946.3Z" fill="#46B160"/>
<path d="M1064.8 562.7C1064.7 562.7 1064.6 562.7 1064.4 562.7C1063.3 562.5 1062.6 561.4 1062.8 560.4L1093 400.2C1093.2 399.1 1094.3 398.4 1095.3 398.6C1096.4 398.8 1097.1 399.9 1096.9 400.9L1066.7 561.1C1066.6 562 1065.7 562.7 1064.8 562.7Z" fill="#444444"/>
<path d="M994 530.9C993.7 530.9 993.4 530.8 993.1 530.7C992.1 530.2 991.7 529 992.2 528L1067.8 375.2C1068.3 374.2 1069.5 373.8 1070.5 374.3C1071.5 374.8 1071.9 376 1071.4 377L995.8 529.8C995.4 530.5 994.7 530.9 994 530.9Z" fill="#444444"/>
<path d="M904.6 420.1C903.8 420.1 903.1 419.7 902.8 418.9L882.3 371.8C881.9 370.8 882.3 369.6 883.3 369.2C884.3 368.8 885.5 369.2 885.9 370.2L906.4 417.3C906.8 418.3 906.4 419.5 905.4 419.9C905.1 420 904.9 420.1 904.6 420.1Z" fill="#444444"/>
<path d="M874.6 458.1C873.9 458.1 873.2 457.7 872.8 457L849.7 410.1C849.2 409.1 849.6 407.9 850.6 407.4C851.6 406.9 852.8 407.3 853.3 408.3L876.4 455.2C876.9 456.2 876.5 457.4 875.5 457.9C875.2 458 874.9 458.1 874.6 458.1Z" fill="#444444"/>
<path d="M841.1 486.5C840.4 486.5 839.8 486.2 839.4 485.5L839.1 485C831.4 472.4 821.7 456.7 813.9 437.3C813.5 436.3 814 435.1 815 434.7C816 434.3 817.2 434.8 817.6 435.8C825.3 454.9 834.9 470.4 842.5 482.9L842.8 483.4C843.4 484.3 843.1 485.6 842.1 486.2C841.8 486.4 841.5 486.5 841.1 486.5Z" fill="#444444"/>
<path d="M1157.5 736.9C1150.7 736.9 1142.4 729.9 1136.6 724C1130.2 717.4 1123.4 708.6 1119.3 701.4L1119.2 701.2L1119.4 701.1C1119.6 701 1138.6 693.7 1157.6 684.9L1157.8 684.8L1157.9 685C1158 685.2 1170.3 702.3 1169.3 718.8C1168.4 733.4 1159.8 736.7 1159.5 736.7C1158.9 736.8 1158.2 736.9 1157.5 736.9Z" fill="#444444"/>
<path d="M1090.1 556.2C1013.5 548.3 907.5 594.7 888 605.4C879.9 609.8 874.3 615.7 875.9 625.5H965.4C954 649.7 950.7 669.8 966.6 670.9C987.4 672.3 1008.7 643.1 1019.6 625.5H1152.6C1152.7 625.5 1166.3 564 1090.1 556.2Z" fill="#FC3E48"/>
<path d="M973.8 518.9H1009.4C1009.4 518.9 1038.8 490.5 1046 496.5C1058.2 506.7 1034.8 603.4 964.6 596.3C899.8 589.7 943.2 487.5 960.5 489.5C968.7 490.4 973.8 518.9 973.8 518.9Z" fill="#FC3E48"/>
<path d="M971.7 598.6C969.3 598.6 966.9 598.5 964.4 598.2C952.4 597 943.3 592.6 937.1 585C936.4 584.1 936.5 582.9 937.4 582.2C938.3 581.5 939.5 581.6 940.2 582.5C945.6 589.2 953.9 593.2 964.7 594.3C983.6 596.2 1010.4 591.4 1031.2 557.4C1031.8 556.5 1033 556.2 1034 556.7C1034.9 557.3 1035.2 558.5 1034.7 559.5C1019.1 584.9 997 598.6 971.7 598.6Z" fill="#444444"/>
<path d="M980.4 555.5H968.7C967.6 555.5 966.7 554.6 966.7 553.5C966.7 552.4 967.6 551.5 968.7 551.5H980.4C981.5 551.5 982.4 552.4 982.4 553.5C982.4 554.6 981.5 555.5 980.4 555.5Z" fill="#444444"/>
<path d="M971.7 569.7C971.6 569.7 971.4 569.7 971.3 569.7C970.2 569.5 969.5 568.4 969.7 567.4L972.5 553.2C972.7 552.1 973.8 551.4 974.8 551.6C975.9 551.8 976.6 552.9 976.4 553.9L973.6 568.1C973.5 569 972.6 569.7 971.7 569.7Z" fill="#444444"/>
<path d="M972.6 570.7C967.3 570.7 962.2 568.7 959 564.9C958.3 564.1 958.4 562.8 959.3 562.1C960.1 561.4 961.4 561.5 962.1 562.4C966.2 567.3 976.1 568.8 983.8 563.1C984.7 562.4 985.9 562.6 986.6 563.5C987.3 564.4 987.1 565.6 986.2 566.3C982.1 569.2 977.2 570.7 972.6 570.7Z" fill="#444444"/>
<path d="M1003.3 550.4C1003 550.4 1002.7 550.3 1002.4 550.2C1001.4 549.7 1001 548.5 1001.5 547.5L1002.5 545.4C1003 544.4 1004.2 544 1005.2 544.5C1006.2 545 1006.6 546.2 1006.1 547.2L1005.1 549.3C1004.8 550 1004 550.4 1003.3 550.4Z" fill="#444444"/>
<path d="M1028.7 527C1028.4 527 1028 526.9 1027.7 526.7C1026.7 526.2 1026.4 524.9 1026.9 524L1032 514.8C1032.5 513.8 1033.8 513.5 1034.7 514C1035.7 514.5 1036 515.8 1035.5 516.7L1030.4 525.9C1030.1 526.6 1029.4 527 1028.7 527Z" fill="#444444"/>
<path d="M956.5 524.9C955.4 524.9 954.5 524 954.5 522.9V512.8C954.5 511.7 955.4 510.8 956.5 510.8C957.6 510.8 958.5 511.7 958.5 512.8V522.9C958.5 524 957.6 524.9 956.5 524.9Z" fill="#444444"/>
<path d="M953.4 550.4C953.1 550.4 952.8 550.3 952.5 550.2C951.5 549.7 951.1 548.5 951.6 547.5L952.6 545.4C953.1 544.4 954.3 544 955.3 544.5C956.3 545 956.7 546.2 956.2 547.2L955.2 549.3C954.9 550 954.1 550.4 953.4 550.4Z" fill="#444444"/>
<path d="M1019.7 627.5C1019.4 627.5 1019.1 627.4 1018.7 627.3C1017.7 626.8 1017.4 625.6 1017.9 624.6L1022.9 615.4C1023.4 614.4 1024.6 614.1 1025.6 614.6C1026.6 615.1 1026.9 616.3 1026.4 617.3L1021.4 626.5C1021.1 627.1 1020.4 627.5 1019.7 627.5Z" fill="#444444"/>
<path d="M965.4 627.5C965.1 627.5 964.8 627.4 964.5 627.3C963.5 626.8 963.2 625.6 963.7 624.6L972.2 608.6C972.7 607.6 973.9 607.3 974.9 607.8C975.9 608.3 976.2 609.5 975.7 610.5L967.2 626.5C966.8 627.1 966.1 627.5 965.4 627.5Z" fill="#444444"/>
<path d="M961.2 670.1C960.1 670.1 959.2 669.2 959.2 668.1C959.2 664.8 959.9 661.6 961.4 658.5C961.9 657.5 963.1 657.1 964.1 657.5C965.1 658 965.5 659.2 965.1 660.2C963.9 662.8 963.3 665.5 963.3 668.2C963.2 669.2 962.3 670.1 961.2 670.1Z" fill="#444444"/>
<path d="M971 672.1C969.9 672.1 969 671.2 969 670.1C969 666.8 969.7 663.6 971.2 660.5C971.7 659.5 972.9 659.1 973.9 659.5C974.9 660 975.3 661.2 974.9 662.2C973.7 664.8 973.1 667.5 973.1 670.2C973 671.2 972.1 672.1 971 672.1Z" fill="#444444"/>
<path d="M886.3 627.5C885.3 627.5 884.4 626.7 884.3 625.6C884.3 625.4 884 620.6 886.2 617.2C886.8 616.3 888 616 889 616.6C889.9 617.2 890.2 618.4 889.6 619.4C888.4 621.3 888.3 624.4 888.3 625.4C888.4 626.5 887.5 627.5 886.4 627.5H886.3Z" fill="#444444"/>
<path d="M896.1 627.5C895.1 627.5 894.2 626.7 894.1 625.6C894.1 625.4 893.8 620.6 896 617.2C896.6 616.3 897.8 616 898.8 616.6C899.7 617.2 900 618.4 899.4 619.4C898.2 621.3 898.1 624.4 898.1 625.4C898.2 626.5 897.3 627.5 896.2 627.5H896.1Z" fill="#444444"/>
<path d="M1054 715.2C1039.5 715.2 1037.4 709.5 1037.4 709.5C1037.2 708.6 1036.4 708.1 1035.5 708.1C1035.4 708.1 1028.4 708 1024.9 704.2C1023.3 702.5 1022.7 700.3 1022.9 697.6C1023 696.8 1022.5 696 1021.8 695.7C1021.8 695.7 1017.6 693.5 1016.8 689.8C1016.3 687.5 1017.2 684.9 1019.5 682.1C1019.8 681.7 1020 681.1 1019.9 680.6C1019.8 680.1 1019.6 679.6 1019.1 679.2C1019.1 679.2 1015.8 676.6 1015.8 672.8C1015.9 669.6 1018.3 666.3 1022.9 662.9C1029.5 658.2 1052.7 646.6 1052.9 646.5C1053.6 646.2 1054 645.4 1054 644.6C1054 643.8 1053.5 643.1 1052.8 642.8C1052.8 642.8 1048.6 641 1047.6 637.5C1047 635.4 1047.7 632.9 1049.7 630.2C1053.8 624.5 1067.7 617 1086.9 606.6C1091.6 604 1096.6 601.3 1101.9 598.4L1155.5 574.1L1192.1 660.5L1156.7 683.3C1137.7 692.1 1118.9 699.4 1118.7 699.4C1118.4 699.5 1092.3 709.8 1067.3 713.9C1062.4 714.8 1057.9 715.2 1054 715.2Z" fill="white"/>
<path d="M1154.5 576.7L1189.7 659.7L1155.8 681.5C1136.9 690.2 1118.2 697.4 1118 697.5C1117.7 697.6 1091.8 707.8 1067.1 711.9C1062.2 712.7 1057.9 713.1 1054 713.1C1042.5 713.1 1039.7 709.5 1039.3 708.8C1039 706.9 1037.4 706 1035.5 706C1033.8 706 1028.7 705.4 1026.3 702.7C1025.1 701.4 1024.7 699.8 1024.8 697.6C1024.9 696 1024.1 694.5 1022.6 693.7C1021.7 693.2 1019.1 691.5 1018.7 689.2C1018.4 687.5 1019.1 685.5 1021 683.2C1021.7 682.4 1022 681.3 1021.9 680.2C1021.8 679.1 1021.2 678.2 1020.4 677.5C1020.4 677.5 1017.8 675.4 1017.9 672.7C1018 670.2 1020.1 667.3 1024.2 664.4C1030.7 659.8 1053.7 648.2 1053.9 648.1C1055.3 647.4 1056.2 646 1056.1 644.4C1056 642.8 1055.1 641.5 1053.7 640.9C1052.8 640.5 1050.2 639 1049.7 636.9C1049.3 635.4 1049.9 633.5 1051.5 631.3C1055.4 626 1069.8 618.2 1088 608.3C1092.8 605.7 1097.7 603 1103 600.1L1154.5 576.7ZM1156.6 571.4L1101.1 596.6C1073.8 611.7 1053.7 621.5 1048.2 629C1040.4 639.7 1052.1 644.6 1052.1 644.6C1052.1 644.6 1028.7 656.3 1021.8 661.2C1006.5 672.1 1017.9 680.7 1017.9 680.7C1009.1 691.4 1020.8 697.3 1020.8 697.3C1019.8 710 1035.4 710 1035.4 710C1035.4 710 1037.3 717.1 1053.9 717.1C1057.7 717.1 1062.2 716.7 1067.6 715.8C1093.1 711.5 1119.4 701.2 1119.4 701.2C1119.4 701.2 1138.3 693.9 1157.6 685L1194.6 661.2L1156.6 571.4Z" fill="#444444"/>
<path d="M1286.7 539.1C1283.1 516.8 1273.1 492.8 1256.8 467.9C1243.8 448 1226.8 427.4 1206.4 406.7C1171.5 371.5 1138.2 347.9 1137.8 347.6L1137.6 347.5L1116.3 375L1184.7 543.9C1154.3 566.1 1125.3 582.9 1101 596.3L1100.9 596.4V596.5C1100.9 596.7 1104.8 612.5 1114.5 626.1C1120.6 634.6 1126.2 641.5 1131.6 648.1C1140.5 659.1 1148.9 669.4 1157.5 684.8C1172.6 713.9 1167.4 733.6 1159.6 736.5C1165.5 735 1201 710.3 1233.4 673.3C1251.8 652.3 1265.8 631.2 1275.1 610.7C1286.3 585.7 1290.2 561.6 1286.7 539.1Z" fill="#46B160"/>
<path d="M1184.9 546.1C1184.1 546.1 1183.4 545.6 1183 544.8L1142.7 445.1C1142.3 444.1 1142.8 442.9 1143.8 442.5C1144.8 442.1 1146 442.6 1146.4 443.6L1186.7 543.3C1187.1 544.3 1186.6 545.5 1185.6 545.9C1185.4 546.1 1185.2 546.1 1184.9 546.1Z" fill="#444444"/>
<path d="M1137.9 577.3C1137.2 577.3 1136.6 577 1136.2 576.3C1135.6 575.4 1135.9 574.1 1136.9 573.6C1154.3 563 1169.6 552.8 1183.7 542.5L1196.4 532.7C1197.3 532 1198.5 532.2 1199.2 533.1C1199.9 534 1199.7 535.2 1198.8 535.9L1186.1 545.7C1171.9 556.1 1156.5 566.3 1139 577C1138.6 577.2 1138.3 577.3 1137.9 577.3Z" fill="#444444"/>
<path d="M1216.2 693C1216.2 693 1216.1 693 1216.2 693C1215 692.9 1214.1 692 1214.2 690.9C1214.5 683.8 1213 675.7 1209.5 666.9C1205 655.4 1194.2 641.5 1182.7 626.8C1167.8 607.6 1152.3 587.8 1147.9 569.7C1147.6 568.6 1148.3 567.5 1149.4 567.3C1150.5 567 1151.6 567.7 1151.8 568.8C1156 586 1171.2 605.5 1185.9 624.4C1197.5 639.3 1208.6 653.5 1213.2 665.5C1216.8 674.9 1218.5 683.5 1218.1 691.1C1218.1 692.2 1217.3 693 1216.2 693Z" fill="#444444"/>
<path d="M1042.6 438.5C1048.56 438.5 1053.4 433.665 1053.4 427.7C1053.4 421.735 1048.56 416.9 1042.6 416.9C1036.64 416.9 1031.8 421.735 1031.8 427.7C1031.8 433.665 1036.64 438.5 1042.6 438.5Z" fill="#444444"/>
<path d="M1054.3 456.1C1060.26 456.1 1065.1 451.265 1065.1 445.3C1065.1 439.335 1060.26 434.5 1054.3 434.5C1048.34 434.5 1043.5 439.335 1043.5 445.3C1043.5 451.265 1048.34 456.1 1054.3 456.1Z" fill="#444444"/>
<path d="M1070.5 469.4C1076.46 469.4 1081.3 464.565 1081.3 458.6C1081.3 452.635 1076.46 447.8 1070.5 447.8C1064.54 447.8 1059.7 452.635 1059.7 458.6C1059.7 464.565 1064.54 469.4 1070.5 469.4Z" fill="#444444"/>
<path d="M1091 473.6C1096.96 473.6 1101.8 468.765 1101.8 462.8C1101.8 456.835 1096.96 452 1091 452C1085.04 452 1080.2 456.835 1080.2 462.8C1080.2 468.765 1085.04 473.6 1091 473.6Z" fill="#444444"/>
<path d="M1111.6 470.5C1117.56 470.5 1122.4 465.665 1122.4 459.7C1122.4 453.735 1117.56 448.9 1111.6 448.9C1105.64 448.9 1100.8 453.735 1100.8 459.7C1100.8 465.665 1105.64 470.5 1111.6 470.5Z" fill="#444444"/>
<path d="M1130.3 463.1C1136.26 463.1 1141.1 458.265 1141.1 452.3C1141.1 446.335 1136.26 441.5 1130.3 441.5C1124.34 441.5 1119.5 446.335 1119.5 452.3C1119.5 458.265 1124.34 463.1 1130.3 463.1Z" fill="#444444"/>
<path d="M1148.6 453.3C1154.56 453.3 1159.4 448.465 1159.4 442.5C1159.4 436.536 1154.56 431.7 1148.6 431.7C1142.64 431.7 1137.8 436.536 1137.8 442.5C1137.8 448.465 1142.64 453.3 1148.6 453.3Z" fill="#444444"/>
<path d="M1164.8 439.9C1170.76 439.9 1175.6 435.065 1175.6 429.1C1175.6 423.135 1170.76 418.3 1164.8 418.3C1158.84 418.3 1154 423.135 1154 429.1C1154 435.065 1158.84 439.9 1164.8 439.9Z" fill="#444444"/>
<path d="M1178.6 424.6C1184.56 424.6 1189.4 419.765 1189.4 413.8C1189.4 407.835 1184.56 403 1178.6 403C1172.64 403 1167.8 407.835 1167.8 413.8C1167.8 419.765 1172.64 424.6 1178.6 424.6Z" fill="#444444"/>
<path d="M1192.9 410.2C1198.86 410.2 1203.7 405.365 1203.7 399.4C1203.7 393.435 1198.86 388.6 1192.9 388.6C1186.94 388.6 1182.1 393.435 1182.1 399.4C1182.1 405.365 1186.94 410.2 1192.9 410.2Z" fill="#444444"/>
<path d="M1114.6 628.1C1113.9 628.1 1113.2 627.7 1112.9 627.1C1112.3 626.1 1112.7 624.9 1113.6 624.4L1162.4 596.1C1163.4 595.5 1164.6 595.9 1165.1 596.8C1165.7 597.8 1165.3 599 1164.4 599.5L1115.6 627.8C1115.3 628 1114.9 628.1 1114.6 628.1Z" fill="#444444"/>
<path d="M1143.7 666C1143 666 1142.4 665.7 1142 665.1C1141.4 664.2 1141.7 662.9 1142.6 662.3L1189.8 632.7C1190.7 632.1 1192 632.4 1192.6 633.3C1193.2 634.2 1192.9 635.5 1192 636.1L1144.8 665.7C1144.4 665.9 1144.1 666 1143.7 666Z" fill="#444444"/>
<path d="M1164.4 708.2C1163.7 708.2 1163.1 707.9 1162.7 707.3C1162.1 706.4 1162.4 705.1 1163.3 704.5C1182.1 692.7 1208.2 672.2 1210.8 669.6C1211.6 668.8 1212.8 668.8 1213.6 669.6C1214.4 670.4 1214.4 671.6 1213.6 672.4C1210.3 675.7 1183.9 696.2 1165.4 707.9C1165.1 708.1 1164.8 708.2 1164.4 708.2Z" fill="#444444"/>
<path d="M1054 647.6C1053.2 647.6 1052.5 647.2 1052.2 646.5C1051.7 645.5 1052.2 644.3 1053.2 643.8L1086.4 628.2C1087.4 627.7 1088.6 628.2 1089.1 629.2C1089.6 630.2 1089.1 631.4 1088.1 631.9L1054.9 647.5C1054.6 647.5 1054.3 647.6 1054 647.6Z" fill="#444444"/>
<path d="M1019.7 682.4C1018.8 682.4 1018 681.8 1017.8 680.9C1017.5 679.8 1018.2 678.7 1019.2 678.5C1019.4 678.4 1044.1 671.9 1084.5 653.6C1085.5 653.1 1086.7 653.6 1087.1 654.6C1087.6 655.6 1087.1 656.8 1086.1 657.2C1045.4 675.7 1020.4 682.2 1020.2 682.3C1020 682.4 1019.9 682.4 1019.7 682.4Z" fill="#444444"/>
<path d="M1023.7 698.4C1022.8 698.4 1021.9 697.7 1021.7 696.8C1021.5 695.7 1022.2 694.7 1023.3 694.4C1055.9 687.7 1093.8 670.3 1094.2 670.1C1095.2 669.6 1096.4 670.1 1096.9 671.1C1097.4 672.1 1096.9 673.3 1095.9 673.8C1095.5 674 1057.2 691.6 1024.2 698.3C1024 698.4 1023.8 698.4 1023.7 698.4Z" fill="#444444"/>
<path d="M1038.4 710.1C1037.4 710.1 1036.6 709.4 1036.4 708.4C1036.2 707.3 1037 706.3 1038.1 706.1C1038.3 706.1 1062.8 702 1103.5 686.2C1104.5 685.8 1105.7 686.3 1106.1 687.3C1106.5 688.3 1106 689.5 1105 689.9C1063.9 705.9 1039 710 1038.8 710C1038.6 710.1 1038.5 710.1 1038.4 710.1Z" fill="#444444"/>
<path d="M1171.2 299.3C1166.2 299.3 1161.7 298.9 1158 298.4C1145.7 296.6 1134.7 292.4 1128 286.9C1126.8 285.9 1125.6 285 1124.3 284C1112.9 275.2 1098.6 264.2 1096 230.8C1095.9 229.7 1096.7 228.7 1097.8 228.6C1098.9 228.5 1099.9 229.3 1100 230.4C1102.5 262 1115.4 272 1126.8 280.8C1128.1 281.8 1129.3 282.8 1130.6 283.8C1142.9 294 1171.8 299.7 1197.1 291.3C1198.2 291 1199.3 291.5 1199.6 292.6C1199.9 293.6 1199.4 294.8 1198.3 295.1C1188.6 298.2 1179.2 299.3 1171.2 299.3Z" fill="#444444"/>
<path d="M1156.7 385.2C1170.01 385.2 1180.8 374.41 1180.8 361.1C1180.8 347.79 1170.01 337 1156.7 337C1143.39 337 1132.6 347.79 1132.6 361.1C1132.6 374.41 1143.39 385.2 1156.7 385.2Z" fill="white"/>
<path d="M1156.7 339C1168.9 339 1178.8 348.9 1178.8 361.1C1178.8 373.3 1168.9 383.2 1156.7 383.2C1144.5 383.2 1134.6 373.3 1134.6 361.1C1134.6 348.9 1144.5 339 1156.7 339ZM1156.7 335C1142.3 335 1130.6 346.7 1130.6 361.1C1130.6 375.5 1142.3 387.2 1156.7 387.2C1171.1 387.2 1182.8 375.5 1182.8 361.1C1182.8 346.7 1171.2 335 1156.7 335Z" fill="#444444"/>
<path d="M1104 400C1103.5 400 1103 400 1102.5 400C1083.9 399 1066.5 379.3 1059.4 351.1C1050.3 315.1 1056.9 282.6 1074.9 275.4C1080.6 273.1 1086.6 272 1092.8 272C1117.3 272 1137.8 289.6 1138 289.8C1149.2 299.9 1154.3 310.1 1154.4 322.8C1154.6 336.9 1148.6 354.2 1135.5 377.1C1127.1 392.1 1116.2 400 1104 400Z" fill="white"/>
<path d="M1092.9 274C1116.3 274 1136.1 290.7 1136.8 291.3C1155.3 308.1 1161.2 328.1 1133.9 376.1C1125.7 390.4 1115.4 398 1104.1 398C1103.7 398 1103.2 398 1102.8 398C1085 397 1068.5 378 1061.5 350.6C1057.1 333.1 1056.3 315.9 1059.3 302.1C1062.1 289.2 1068 280.4 1075.8 277.3C1081.1 275.1 1086.9 274 1092.9 274ZM1092.9 270C1086.9 270 1080.6 271 1074.2 273.5C1055.5 280.9 1048 313.8 1057.5 351.5C1065.1 381.6 1083.5 400.9 1102.4 401.9C1102.9 401.9 1103.4 401.9 1104 401.9C1115.9 401.9 1127.9 394.6 1137.3 378C1164.2 330.7 1160.8 307.6 1139.4 288.2C1139.4 288.3 1118.5 270 1092.9 270Z" fill="#444444"/>
<path d="M1139.4 288.3C1159.1 306.1 1163.6 327 1143.3 367C1114.5 335.1 1124.3 291.1 1124.3 291.1C1124.3 291.1 1088.2 321.4 1054.7 304.2C1057.4 288.8 1064.2 277.5 1074.2 273.5C1107.4 260.3 1139.4 288.3 1139.4 288.3Z" fill="#444444"/>
<path d="M1081.1 349.8C1080.7 349.8 1080.4 349.7 1080 349.5C1078 348.2 1076.4 346.4 1075.5 344.2C1074.9 342.7 1074.6 340.6 1074.7 337.7C1074.7 336.6 1075.7 335.7 1076.8 335.8C1077.9 335.8 1078.8 336.8 1078.7 337.9C1078.6 340.1 1078.8 341.7 1079.1 342.7C1079.7 344.1 1080.8 345.3 1082.1 346.2C1083 346.8 1083.3 348 1082.7 349C1082.4 349.5 1081.8 349.8 1081.1 349.8Z" fill="#444444"/>
<path d="M1097.9 332.5H1097.8C1096.7 332.4 1095.9 331.5 1096 330.4L1096.2 327.7C1096.3 326.6 1097.2 325.8 1098.3 325.9C1099.4 326 1100.2 326.9 1100.1 328L1099.9 330.7C1099.8 331.7 1098.9 332.5 1097.9 332.5Z" fill="#444444"/>
<path d="M1064.5 327.4H1064.4C1063.3 327.3 1062.5 326.4 1062.6 325.3L1062.8 322.6C1062.9 321.5 1063.8 320.7 1064.9 320.8C1066 320.9 1066.8 321.8 1066.7 322.9L1066.5 325.6C1066.4 326.6 1065.5 327.4 1064.5 327.4Z" fill="#444444"/>
<path d="M1091.1 371.4C1087.6 371.4 1083.5 369.3 1081.4 363C1081.2 362.5 1081.3 361.9 1081.5 361.5C1081.7 361 1082.2 360.7 1082.7 360.5L1098.3 355.6C1098.9 355.4 1099.5 355.5 1100 355.9C1100.5 356.3 1100.8 356.8 1100.9 357.4C1101.6 365.7 1097.1 370.4 1092.7 371.3C1092.2 371.3 1091.6 371.4 1091.1 371.4ZM1086 363.7C1087.4 366.4 1089.6 367.8 1091.9 367.4C1094.2 366.9 1096.5 364.5 1096.9 360.3L1086 363.7Z" fill="#444444"/>
<path d="M1160.8 366.3C1160.5 366.3 1160.3 366.2 1160 366.1L1145.9 360.1C1144.9 359.7 1144.4 358.5 1144.8 357.5C1145.2 356.5 1146.4 356 1147.4 356.4L1161.5 362.4C1162.5 362.8 1163 364 1162.6 365C1162.3 365.8 1161.6 366.3 1160.8 366.3Z" fill="#444444"/>
<path d="M1151.2 292.6C1173.46 292.6 1191.5 274.557 1191.5 252.3C1191.5 230.043 1173.46 212 1151.2 212C1128.94 212 1110.9 230.043 1110.9 252.3C1110.9 274.557 1128.94 292.6 1151.2 292.6Z" fill="#444444"/>
<path d="M1076.25 320.608C1077.21 305.618 1068.34 292.846 1056.43 292.081C1044.53 291.316 1034.1 302.849 1033.14 317.84C1032.17 332.83 1041.04 345.602 1052.95 346.367C1064.85 347.131 1075.28 335.599 1076.25 320.608Z" stroke="#444444" stroke-width="3.9998" stroke-miterlimit="3.9998" stroke-linecap="round" stroke-linejoin="round"/>
<path d="M1126.06 324.848C1127.02 309.857 1118.15 297.085 1106.25 296.321C1094.34 295.556 1083.91 307.088 1082.95 322.079C1081.99 337.07 1090.86 349.842 1102.76 350.606C1114.67 351.371 1125.1 339.838 1126.06 324.848Z" stroke="#444444" stroke-width="3.9998" stroke-miterlimit="3.9998" stroke-linecap="round" stroke-linejoin="round"/>
</svg>
