<svg width="1600" height="1200" viewBox="0 0 1600 1200" fill="none" xmlns="http://www.w3.org/2000/svg">
<path d="M970.6 835.4H801V1005H970.6V835.4Z" fill="#444444"/>
<path d="M745.5 1005.2V1004.9C744.1 996.2 748.1 989.5 757.8 984.1C777.3 973.4 837.9 953.8 838.5 953.6C839.3 953.3 924.4 923.8 998.6 923.8C1002.4 923.8 1006.1 923.9 1009.8 924C1028.7 924.8 1042.6 931.2 1051 942.9C1067.9 966.6 1056.9 1004.5 1056.8 1004.9V1005H745.5V1005.2Z" fill="#8DB9E4"/>
<path d="M874.1 975.9C871.8 975.9 869.4 975.8 867 975.5C836.2 972.4 832.9 947.1 833.6 932.4C835 904.3 852.3 871.9 862.5 871.9C862.7 871.9 862.8 871.9 863 871.9C870.7 872.8 875.5 897.9 875.9 900.4H910.1C911.7 898.9 933.6 877.9 943.1 877.9C944.2 877.9 945.1 878.2 945.8 878.8C950.8 883 949.6 900.4 943.1 918.5C938.3 931.9 918.9 975.9 874.1 975.9Z" fill="#8DB9E4"/>
<path d="M874.3 977.7C871.9 977.7 869.4 977.6 866.9 977.3C851.1 975.7 840 968 835 955C834.6 954 835.1 952.8 836.1 952.4C837.1 952 838.3 952.5 838.7 953.5C843.2 965.1 852.8 971.8 867.2 973.2C884.2 974.9 915.7 971.4 936.6 928.1C937.1 927.1 938.3 926.7 939.3 927.2C940.3 927.7 940.7 928.9 940.2 929.9C933.2 944.5 923.7 956.5 912.8 964.6C901.4 973.3 888.4 977.7 874.3 977.7Z" fill="#444444"/>
<path d="M882.4 936H871C869.9 936 869 935.1 869 934C869 932.9 869.9 932 871 932H882.4C883.5 932 884.4 932.9 884.4 934C884.4 935.1 883.5 936 882.4 936Z" fill="#444444"/>
<path d="M874 949.7C873.9 949.7 873.7 949.7 873.6 949.7C872.5 949.5 871.8 948.4 872 947.4L874.7 933.7C874.9 932.6 876 931.9 877 932.1C878.1 932.3 878.8 933.4 878.6 934.4L875.9 948.1C875.8 949 874.9 949.7 874 949.7Z" fill="#444444"/>
<path d="M874.9 950.8C869.7 950.8 864.8 948.9 861.7 945.1C861 944.3 861.1 943 862 942.3C862.8 941.6 864.1 941.7 864.8 942.6C869.7 948.5 879.7 947.7 885.7 943.3C886.6 942.6 887.8 942.8 888.5 943.7C889.2 944.6 889 945.8 888.1 946.5C884.1 949.3 879.4 950.8 874.9 950.8Z" fill="#444444"/>
<path d="M904.5 931.1C904.2 931.1 903.9 931 903.6 930.9C902.6 930.4 902.2 929.2 902.7 928.2L903.7 926.2C904.2 925.2 905.4 924.8 906.4 925.3C907.4 925.8 907.8 927 907.3 928L906.3 930C905.9 930.7 905.2 931.1 904.5 931.1Z" fill="#444444"/>
<path d="M929.1 908.4C928.8 908.4 928.4 908.3 928.1 908.1C927.1 907.6 926.8 906.3 927.3 905.4L932.2 896.6C932.7 895.6 934 895.3 934.9 895.8C935.9 896.3 936.2 897.6 935.7 898.5L930.8 907.3C930.5 908 929.8 908.4 929.1 908.4Z" fill="#444444"/>
<path d="M859.2 906.5C858.1 906.5 857.2 905.6 857.2 904.5V894.6C857.2 893.5 858.1 892.6 859.2 892.6C860.3 892.6 861.2 893.5 861.2 894.6V904.5C861.2 905.6 860.3 906.5 859.2 906.5Z" fill="#444444"/>
<path d="M856.3 931.1C856 931.1 855.7 931 855.4 930.9C854.4 930.4 854 929.2 854.5 928.2L855.5 926.2C856 925.2 857.2 924.8 858.2 925.3C859.2 925.8 859.6 927 859.1 928L858.1 930C857.7 930.7 857 931.1 856.3 931.1Z" fill="#444444"/>
<path d="M814.5 1005.9C813.5 1005.9 812.7 1005.2 812.5 1004.2C811 994.7 815.3 987.2 825.7 981.4C831 978.4 840 974.5 852.4 969.8C853.4 969.4 854.6 969.9 855 971C855.4 972 854.9 973.2 853.8 973.6C841.6 978.3 832.8 982.1 827.7 985C818.8 989.9 815.2 995.9 816.5 1003.6C816.7 1004.7 815.9 1005.7 814.8 1005.9C814.7 1005.9 814.6 1005.9 814.5 1005.9Z" fill="#444444"/>
<path d="M906.4 1005.8C905.4 1005.8 904.6 1005.1 904.4 1004.1C902.6 992.9 908 985.6 921.4 981.2C929.8 978.4 936.3 977.4 947.2 976.3C949.6 969.8 961.8 941.5 996.7 938.8C997.8 938.7 998.8 939.5 998.9 940.6C999 941.7 998.2 942.7 997.1 942.8C960.5 945.7 950.8 978.4 950.7 978.8C950.5 979.6 949.8 980.2 949 980.2C937.6 981.2 931.1 982.2 922.8 985C908.3 989.8 907.4 997 908.4 1003.5C908.6 1004.6 907.8 1005.6 906.7 1005.8C906.6 1005.8 906.5 1005.8 906.4 1005.8Z" fill="#444444"/>
<path d="M758.4 1005.8C757.5 1005.8 756.7 1005.2 756.5 1004.3C755.4 1000.2 756.5 995.9 759.3 992.7C760 991.9 761.3 991.8 762.1 992.5C762.9 993.2 763 994.5 762.3 995.3C760.3 997.5 759.6 1000.5 760.3 1003.3C760.6 1004.4 759.9 1005.5 758.9 1005.7C758.7 1005.8 758.6 1005.8 758.4 1005.8Z" fill="#444444"/>
<path d="M769.3 1005.8C768.4 1005.8 767.6 1005.2 767.4 1004.3C766.3 1000.2 767.4 995.9 770.2 992.7C770.9 991.9 772.2 991.8 773 992.5C773.8 993.2 773.9 994.5 773.2 995.3C771.2 997.5 770.5 1000.5 771.2 1003.3C771.5 1004.4 770.8 1005.5 769.8 1005.7C769.6 1005.8 769.5 1005.8 769.3 1005.8Z" fill="#444444"/>
<path d="M827.3 1005.8C826.4 1005.8 825.6 1005.2 825.4 1004.3C824.3 1000.2 825.4 995.9 828.2 992.7C828.9 991.9 830.2 991.8 831 992.5C831.8 993.2 831.9 994.5 831.2 995.3C829.2 997.5 828.5 1000.5 829.2 1003.3C829.5 1004.4 828.8 1005.5 827.8 1005.7C827.6 1005.8 827.5 1005.8 827.3 1005.8Z" fill="#444444"/>
<path d="M918.8 1005.8C917.9 1005.8 917.1 1005.2 916.9 1004.3C915.8 1000.2 916.9 995.9 919.7 992.7C920.4 991.9 921.7 991.8 922.5 992.5C923.3 993.2 923.4 994.5 922.7 995.3C920.7 997.5 920 1000.5 920.7 1003.3C921 1004.4 920.3 1005.5 919.3 1005.7C919.1 1005.8 919 1005.8 918.8 1005.8Z" fill="#444444"/>
<path d="M1221.5 835.4H970.2V1005H1221.5V835.4Z" fill="#46B160"/>
<path d="M1221.3 1006.8C1220.9 1006.8 1220.5 1006.7 1220.2 1006.5L969.301 837.3C968.401 836.7 968.101 835.4 968.801 834.5C969.401 833.6 970.701 833.3 971.601 834L1222.5 1003.2C1223.4 1003.8 1223.7 1005.1 1223 1006C1222.6 1006.5 1221.9 1006.8 1221.3 1006.8Z" fill="#444444"/>
<path d="M970.4 1006.8C969.8 1006.8 969.1 1006.5 968.7 1005.9C968.1 1005 968.3 1003.7 969.2 1003.1L1220.1 833.9C1221 833.3 1222.3 833.5 1222.9 834.4C1223.5 835.3 1223.3 836.6 1222.4 837.2L971.5 1006.4C971.2 1006.7 970.8 1006.8 970.4 1006.8Z" fill="#444444"/>
<path d="M838.6 482.4H665.4V708.7H838.6V482.4Z" fill="#FFBCD8"/>
<path d="M665.4 482.4H574.9V708.7H665.4V482.4Z" fill="#FFBCD8"/>
<path d="M687.8 440L665.4 482.4H838.6L861 440H687.8Z" fill="#FC3E48"/>
<path d="M552.4 440L574.9 482.4H665.4L642.9 440H552.4Z" fill="#FC3E48"/>
<path d="M780.8 661.8C780.4 661.8 780 661.7 779.7 661.5C779.1 661.1 778.7 660.3 778.8 659.6L783.1 628.2L754.1 615.3C753.4 615 752.9 614.3 752.9 613.6C752.9 612.8 753.3 612.1 753.9 611.8L837.6 565.3C838.6 564.8 839.8 565.1 840.3 566.1C840.8 567.1 840.5 568.3 839.5 568.8L759.3 613.4L786 625.3C786.8 625.7 787.3 626.5 787.2 627.4L783.2 656.3L837.5 626.1C838.5 625.6 839.7 625.9 840.2 626.9C840.7 627.9 840.4 629.1 839.4 629.6L781.6 661.7C781.5 661.7 781.1 661.8 780.8 661.8Z" fill="#444444"/>
<path d="M665.4 711.6C664.3 711.6 663.4 710.7 663.4 709.6V482.4C663.4 481.3 664.3 480.4 665.4 480.4C666.5 480.4 667.4 481.3 667.4 482.4V709.6C667.4 710.7 666.5 711.6 665.4 711.6Z" fill="#444444"/>
<path d="M370.6 1005C336.2 1004.1 337.1 947.6 337.1 947V946.8L337.3 946.9C337.4 946.9 350.7 949.9 371.5 956.4H371.6V956.5C371.7 956.7 378.2 973.5 378.2 987.2C378.3 1003.8 371 1005 370.6 1005Z" fill="#444444"/>
<path d="M660.8 863.1C670 860.4 679.3 858 688.9 857.9C700.6 857.9 705.1 860.5 706.8 862.3C707.6 863.2 708.8 867.3 708.8 867.3C705 896.1 656.1 900.6 655.6 900.6H655.3L660.8 863.1Z" fill="#444444"/>
<path d="M230.8 979.9C229.5 979.9 228.8 979.8 228.8 979.8H228.6L253.9 813.8H254.1C285.5 815.8 316.9 820.4 347.5 827.5L347.6 827.6V827.7C347.7 828.6 361.5 917.7 371.6 956.5L371.7 956.8L371.4 956.7C350.6 950.2 337.4 947.3 337.2 947.2C330 945.7 321.1 943.8 311.5 943.8C294.7 943.8 280 949.8 266.4 962.3C249.1 978.2 235.8 979.9 230.8 979.9Z" fill="#46B160"/>
<path d="M370.6 1005C385 994.6 371.2 956.2 371.2 956.2C368.3 947.5 364.8 939.1 361 930.1C355.7 917.3 350.2 904.1 346.3 889.7C335.6 849.7 347.1 827.8 347.2 827.6L347.3 827.5H347.4C404.9 840.7 448.8 859.1 470.2 869.1C466.6 862.2 428.3 789.5 401.3 740.2L401.2 740L575 709.4V709.6C575.2 710.4 590.9 789.5 598.6 850.3C604.7 898.5 608.4 957.5 582.9 986.5C572.1 998.8 556.4 1005 536.4 1005H370.6Z" fill="#8DB9E4"/>
<path d="M245.8 870.6C244.7 870.6 243.8 869.8 243.8 868.7C243.8 867.6 244.6 866.7 245.7 866.6C274.7 865.5 298.9 845.2 302 819.4C302.1 818.3 303.1 817.5 304.2 817.7C305.3 817.8 306.1 818.8 305.9 819.9C302.7 847.6 276.8 869.4 245.8 870.6C245.8 870.6 245.9 870.6 245.8 870.6Z" fill="#444444"/>
<path d="M540.8 938.2C539.5 938.2 538.3 938.1 537 937.9L351.5 907.7C350.4 907.5 349.7 906.5 349.8 905.4C350 904.3 351 903.6 352.1 903.7L537.6 933.9C541.7 934.5 546 933.9 549.8 932.1C554.6 929.7 558.2 925.6 560 920.5C561.7 915.4 561.4 909.9 559 905L481.6 747.9C481.1 746.9 481.5 745.7 482.5 745.2C483.5 744.7 484.7 745.1 485.2 746.1L562.6 903.2C565.5 909 565.9 915.6 563.8 921.7C561.7 927.9 557.4 932.8 551.6 935.7C548.1 937.3 544.5 938.2 540.8 938.2Z" fill="#444444"/>
<path d="M377.6 648.8L377.7 648.5C379.7 641.6 382.2 633.4 385.7 621.9V621.8H509L512 648.8H377.6Z" fill="#46B160"/>
<path d="M533.4 1005V1004.8C529.9 974 529.4 942.7 531.8 911.8V911.7L665.7 837.1L661.2 863.2L655.8 900.4C653.9 919.3 651.3 945.3 678.5 969.1C690.1 979.3 695.4 988.4 697.7 994.3C700.2 1000.7 700 1004.6 700 1004.7V1004.9L533.4 1005Z" fill="#46B160"/>
<path d="M542.1 912.8C535.8 912.8 532 912.1 532 912.1H531.8V911.9C538.4 827.7 565.1 770.8 567.3 766.2H448.1C419.8 766.2 397.8 758.2 384.4 743.1C371.6 728.6 366.7 708.3 369.9 682.9C371 673.9 373.4 663.6 377.7 648.6V648.5H511.8C512.4 648.5 575.2 649.5 608.2 653.4C635 656.6 652 661.7 664.9 670.6C680.5 681.3 689.8 697.5 694 721.5C699.6 753 708 835.1 708.8 867.3C700.4 849.7 661.2 863.5 661.2 863.5C646.5 869.4 641.6 872.2 630.2 879C623.2 883.2 613.7 888.9 597.5 897.8C575.3 910.2 555.1 912.8 542.1 912.8Z" fill="#8DB9E4"/>
<path d="M532 913.9C531.9 913.9 531.9 913.9 531.8 913.9C530.7 913.8 529.9 912.9 530 911.7C536.9 824 565.5 765.6 565.8 765.1C566.3 764.1 567.5 763.7 568.5 764.2C569.5 764.7 569.9 765.9 569.4 766.9C569.1 767.5 540.8 825.2 534 912.1C533.9 913.1 533 913.9 532 913.9Z" fill="#444444"/>
<path d="M437.2 483.2C426.6 483.2 418 474.6 418 464C418 453.4 426.6 444.8 437.2 444.8C447.8 444.8 456.4 453.4 456.4 464C456.4 474.6 447.8 483.2 437.2 483.2Z" fill="white"/>
<path d="M437.2 446.8C446.7 446.8 454.4 454.5 454.4 464C454.4 473.5 446.7 481.2 437.2 481.2C427.7 481.2 420 473.5 420 464C420 454.5 427.7 446.8 437.2 446.8ZM437.2 442.8C425.5 442.8 416 452.3 416 464C416 475.7 425.5 485.2 437.2 485.2C448.9 485.2 458.4 475.7 458.4 464C458.4 452.3 449 442.8 437.2 442.8Z" fill="#444444"/>
<path d="M434.6 469.2C434 469.2 433.3 468.9 432.9 468.3C432.3 467.4 432.5 466.1 433.5 465.5L446 457.2C446.9 456.6 448.2 456.8 448.8 457.8C449.4 458.7 449.2 460 448.2 460.6L435.7 468.9C435.4 469.1 435 469.2 434.6 469.2Z" fill="#444444"/>
<path d="M475.499 482.7C466.499 482.7 457.999 477.1 450.899 466.5C425.699 429.2 429.399 412.4 443.499 397.5C443.599 397.4 460.499 380.5 481.299 380.5C485.199 380.5 488.999 381.1 492.599 382.2C507.199 386.7 514.399 412 509.299 441.2C505.099 465.6 491.199 482.7 475.499 482.7Z" fill="white"/>
<path d="M481.299 382.5C484.999 382.5 488.599 383 491.999 384.1C505.399 388.2 512.099 413.1 507.299 440.8C505.299 452.6 500.799 463 494.699 470.3C488.999 477 482.199 480.7 475.499 480.7C467.199 480.7 459.299 475.4 452.499 465.4C427.999 429.2 431.399 413.1 444.899 398.9C445.499 398.2 461.499 382.5 481.299 382.5ZM481.299 378.5C459.299 378.5 441.999 396.1 441.999 396.1C426.099 412.9 424.799 431.5 449.199 467.6C457.199 479.5 466.499 484.7 475.499 484.7C491.699 484.7 506.799 467.6 511.299 441.5C516.599 410.8 508.499 385 493.199 380.3C489.099 379 485.099 378.5 481.299 378.5Z" fill="#444444"/>
<path d="M442 396.1C428.2 410.7 425.4 426.7 440.9 454.2C467.2 437.1 458.4 397.7 458.4 397.7C485.9 411.5 511.1 405.3 511.1 405.3C508.2 392.2 501.8 382.9 493.2 380.3C465.8 371.8 442 396.1 442 396.1Z" fill="#444444"/>
<path d="M492.299 441.9C491.699 441.9 491.099 441.6 490.699 441.1C489.999 440.2 490.199 439 491.099 438.3C491.999 437.6 492.799 436.6 493.099 435.6C493.899 433.4 492.399 427.3 490.799 421.7C490.499 420.6 491.099 419.5 492.199 419.2C493.299 418.9 494.399 419.5 494.699 420.6C497.299 429.9 497.899 434.2 496.999 436.9C496.399 438.7 495.199 440.4 493.599 441.5C493.099 441.8 492.699 441.9 492.299 441.9Z" fill="#444444"/>
<path d="M479.399 430.7C478.399 430.7 477.599 430 477.399 429L477.099 426.8C476.999 425.7 477.699 424.7 478.799 424.5C479.899 424.4 480.899 425.1 481.099 426.2L481.399 428.4C481.499 429.5 480.799 430.5 479.699 430.7C479.599 430.7 479.499 430.7 479.399 430.7Z" fill="#444444"/>
<path d="M502.4 421.6C501.4 421.6 500.6 420.9 500.4 419.9L500.1 417.8C499.9 416.7 500.7 415.7 501.8 415.5C502.9 415.3 503.9 416.1 504.1 417.2L504.4 419.3C504.6 420.4 503.8 421.4 502.7 421.6C502.6 421.6 502.5 421.6 502.4 421.6Z" fill="#444444"/>
<path d="M485.899 454.1C481.599 454.1 477.799 451.1 476.899 446.8C476.699 445.7 477.399 444.7 478.399 444.4C479.499 444.2 480.499 444.9 480.799 445.9C481.399 448.7 483.999 450.4 486.799 450H486.899C487.099 449.9 487.399 449.9 487.599 449.8C488.599 449.3 489.799 449.7 490.299 450.7C490.799 451.7 490.399 452.9 489.399 453.4C488.899 453.7 488.299 453.8 487.899 453.9H487.699H487.599C486.999 454.1 486.399 454.1 485.899 454.1Z" fill="#444444"/>
<path d="M540.9 664.8C501.2 664.8 480 623 479.1 621.2C472.9 609.2 467 596.3 461.8 582.8L454 558L522.9 524.1L536.6 549.2C543.5 563.8 547.4 572.7 548 574.2C548.2 574.7 548.6 575.1 549.1 575.3C549.3 575.4 549.6 575.4 549.8 575.4C550.1 575.4 550.4 575.3 550.6 575.2L552.8 574.2C665.2 522.4 686.3 514.3 688.8 514.1C688.9 514.1 689 514.1 689.1 514.1C690.3 514.4 691 515.1 691.4 516C692.2 518.1 691.1 521.4 688.3 525.2C687.8 525.9 687.8 526.8 688.2 527.5C688.6 528.1 689.2 528.4 689.9 528.4C690 528.4 690.2 528.4 690.3 528.3L691.1 528.1C706 524.7 717.2 522.7 724.5 522.3H725.5C728.7 522.3 731 523.1 732.4 524.7C734.2 526.8 733.9 529.6 733.8 530.1C733.7 531 734.2 531.9 735.1 532.2C737.3 533.1 738.6 534.2 739 535.7C739.7 538.1 737.9 541.3 736.8 542.6C736.5 543 736.3 543.6 736.4 544.1C736.5 544.6 736.8 545.1 737.2 545.4C738.3 546.2 738.9 547.4 738.9 548.7C738.7 551.1 736.5 553.7 732.9 555.4C729.6 557 724.1 558.5 718.2 560.1C714 561.1 703.1 564.3 699.2 565.5C698.3 565.8 697.7 566.7 697.8 567.7C698 568.7 698.8 569.4 699.8 569.4H705.4C730.5 569.4 732.8 572.5 732.9 573.4C733.3 577.1 729.4 578.1 718.1 579.9L717.5 580C706.2 581.8 690.7 584.3 674.1 593.7C662.1 600.5 649 609.7 636.3 618.6C607.7 638.6 575.4 661.3 546.8 664.3C545.1 664.7 543 664.8 540.9 664.8Z" fill="white"/>
<path d="M689 516.1C689.5 516.3 689.6 516.6 689.7 516.7C690.1 517.7 689.6 520.2 686.8 523.9C685.8 525.2 685.7 527.1 686.6 528.5C687.3 529.7 688.6 530.3 690 530.3C690.3 530.3 690.6 530.3 690.9 530.2L691.7 530C706.5 526.6 717.6 524.7 724.7 524.3H725.7C729.6 524.3 730.7 525.6 731.1 526C732.3 527.5 732.1 529.7 732.1 529.9C731.9 531.7 732.9 533.5 734.6 534.1C736.1 534.7 737.1 535.4 737.3 536.2C737.7 537.7 736.4 540.1 735.5 541.4C734.8 542.3 734.5 543.4 734.7 544.4C734.9 545.5 735.5 546.4 736.3 547.1C736.9 547.5 737.1 548 737.1 548.6C737 550 735.5 552.1 732.3 553.6C732.3 553.6 732.3 553.6 732.2 553.6C729.1 555.1 723.5 556.6 718 558.1C713.7 559.2 702.7 562.3 698.9 563.6C697 564.2 695.9 566.1 696.2 568C696.5 569.9 698.2 571.4 700.2 571.4H702.7H705.8C710.5 571.4 716.6 571.5 721.9 572C728.5 572.7 730.7 573.7 731.4 574.2C731.4 574.6 731.1 575 729.8 575.5C727.4 576.5 723.1 577.2 718.2 578H718L717.6 578.1C706.2 579.9 690.5 582.5 673.5 592C661.4 598.9 648.3 608.1 635.6 617C607.3 636.9 575.2 659.4 547.1 662.4C545 662.6 543 662.7 541 662.7C502.5 662.7 481.8 622 481 620.2C481 620.2 481 620.2 481 620.1C474.8 608.2 469 595.4 463.8 582L456.6 558.9L522.3 526.6L535 549.9C541.8 564.4 545.8 573.3 546.4 574.7C546.8 575.7 547.6 576.5 548.6 576.9C549.1 577.1 549.6 577.2 550.1 577.2C550.7 577.2 551.2 577.1 551.8 576.8L554 575.8C662.3 526 685.3 516.9 689 516.1ZM689.1 512C689 512.1 689 512.1 688.9 512.1C682.9 512.1 572.5 563 549.9 573.4C549.2 571.7 545.1 562.5 538.4 548.3L523.8 521.5L451.6 557L459.9 583.5C465 596.6 470.8 609.6 477.3 622.1C477.5 622.5 499.3 666.8 540.9 666.8C543 666.8 545.2 666.7 547.4 666.5C576.5 663.4 609 640.6 637.8 620.4C651.2 611 663.8 602.2 675.4 595.6C691.9 586.3 707.3 583.9 718.5 582.1C729.3 580.4 735.9 579.4 735.2 573.4C734.6 567.9 716.3 567.6 705.7 567.6C704.6 567.6 703.6 567.6 702.6 567.6C701.6 567.6 700.8 567.6 700.1 567.6C704.1 566.3 714.9 563.2 719 562.2C725 560.6 730.6 559.1 734 557.4C738.2 555.4 740.9 552.2 741.1 549C741.2 547 740.3 545.2 738.6 544C739.3 543.1 742.1 539 741.1 535.3C740.5 533.2 738.8 531.6 736 530.5C736.1 529.7 736.4 526.2 734.1 523.5C732.3 521.4 729.5 520.4 725.7 520.4C725.3 520.4 725 520.4 724.6 520.4C712.8 521 693.5 525.6 690 526.4C693.3 522 694.5 518.1 693.4 515.3C692.7 513.5 691.2 512.4 689.1 512Z" fill="#444444"/>
<path d="M385.799 622.3C373.899 613.1 366.899 598.7 366.999 583.7C366.999 566.8 376.099 546.9 394.199 524.5L395.299 523.1C418.499 494.4 440.399 467.2 467.299 467.2C468.199 467.2 469.199 467.2 470.099 467.3C489.399 468.6 503.199 478.4 513.599 497.9C523.099 515.9 530.599 531.8 536.599 544.6L538.399 548.4L459.899 583.1C464.999 596.2 470.799 609.6 477.199 622L477.399 622.3H385.799Z" fill="#46B160"/>
<path d="M479.4 624.1H386C384.9 624.1 384 623.2 384 622.1C384 621 384.9 620.1 386 620.1H479.4C480.5 620.1 481.4 621 481.4 622.1C481.4 623.2 480.5 624.1 479.4 624.1Z" fill="#444444"/>
<path d="M500.1 650.6H378.1C377 650.6 376.1 649.7 376.1 648.6C376.1 647.5 377 646.6 378.1 646.6H500.1C501.2 646.6 502.1 647.5 502.1 648.6C502.1 649.7 501.2 650.6 500.1 650.6Z" fill="#444444"/>
<path d="M462.2 585.6C461.4 585.6 460.7 585.1 460.3 584.3L458.6 580.2C455.1 571.4 450.2 559.4 447.9 552.9C447.5 551.9 448.1 550.7 449.1 550.3C450.1 549.9 451.3 550.5 451.7 551.5C454 557.9 458.8 569.9 462.3 578.7L464 582.8C464.4 583.8 463.9 585 462.9 585.4C462.7 585.6 462.4 585.6 462.2 585.6Z" fill="#444444"/>
<path d="M394.1 650.6C394 650.6 393.9 650.6 393.8 650.6C392.7 650.4 392 649.4 392.2 648.3L396.8 621.8C397 620.7 398 620 399.1 620.2C400.2 620.4 400.9 621.4 400.7 622.5L396.1 649C395.9 649.9 395.1 650.6 394.1 650.6Z" fill="#444444"/>
<path d="M420.699 650.6H420.599C419.499 650.5 418.699 649.6 418.699 648.5L420.399 622C420.499 620.9 421.399 620.1 422.499 620.1C423.599 620.2 424.399 621.1 424.399 622.2L422.699 648.7C422.599 649.8 421.699 650.6 420.699 650.6Z" fill="#444444"/>
<path d="M446.3 650.6C445.1 650.6 444.3 649.7 444.3 648.5L445 622C445 620.9 445.9 620 447.1 620.1C448.2 620.1 449.1 621 449 622.2L448.3 648.7C448.3 649.7 447.4 650.6 446.3 650.6Z" fill="#444444"/>
<path d="M473.8 650.6C472.7 650.6 471.9 649.8 471.8 648.7L470.5 622.2C470.4 621.1 471.3 620.2 472.4 620.1C473.5 620.1 474.4 620.9 474.5 622L475.8 648.5C475.9 649.6 475 650.5 473.8 650.6C473.8 650.6 473.9 650.6 473.8 650.6Z" fill="#444444"/>
<path d="M594.5 768H448.1C434 768 421.4 766.1 410.6 762.3C409.6 761.9 409 760.8 409.4 759.7C409.8 758.7 410.9 758.1 412 758.5C422.3 762.1 434.5 764 448.1 764H594.5C595.6 764 596.5 764.9 596.5 766C596.5 767.1 595.6 768 594.5 768Z" fill="#444444"/>
<path d="M586.1 1006.8C585.1 1006.8 584.3 1006.1 584.1 1005.1C579.6 976.5 556.5 954.9 530.5 954.9C529.4 954.9 528.5 954 528.5 952.9C528.5 951.8 529.4 950.9 530.5 950.9C558.5 950.9 583.3 973.9 588.1 1004.5C588.3 1005.6 587.5 1006.6 586.4 1006.8C586.3 1006.8 586.2 1006.8 586.1 1006.8Z" fill="#444444"/>
<path d="M597.6 899.5C597.5 899.5 597.3 899.5 597.2 899.5C596.1 899.3 595.4 898.2 595.7 897.1L629.9 740.8C630.3 739.2 630.5 737.3 630.5 735.5C630.5 721.8 619.3 710.6 605.6 710.6H452C450.1 710.6 448.1 710.4 446.2 710C432 706.6 423.2 692.5 426.4 678.4L433.3 648.2C433.5 647.1 434.6 646.4 435.7 646.7C436.8 646.9 437.5 648 437.2 649.1L430.3 679.3C427.6 691.2 435.1 703.3 447.1 706.1C448.7 706.5 450.4 706.6 452 706.6H605.5C621.4 706.6 634.4 719.6 634.4 735.5C634.4 737.6 634.2 739.7 633.8 741.6L599.6 897.9C599.3 898.9 598.5 899.5 597.6 899.5Z" fill="#444444"/>
<path d="M496.1 882.9C495.8 882.9 495.5 882.8 495.2 882.7C487.5 878.8 470.2 871.5 470 871.5C469 871.1 468.5 869.9 468.9 868.9C469.3 867.9 470.5 867.4 471.5 867.8C472.2 868.1 489.1 875.2 496.9 879.2C497.9 879.7 498.3 880.9 497.8 881.9C497.5 882.5 496.8 882.9 496.1 882.9Z" fill="#444444"/>
<path d="M628 943.8C627.1 943.8 626.2 943.1 626 942.2C625.8 941.1 626.5 940.1 627.6 939.9L656.4 934.3C657.5 934.1 658.5 934.8 658.7 935.9C658.9 937 658.2 938 657.1 938.2L628.3 943.8C628.3 943.8 628.1 943.8 628 943.8Z" fill="#444444"/>
<path d="M643.7 974.3C643.1 974.3 642.5 974 642.1 973.5C641.5 972.6 641.7 971.4 642.6 970.7L665.2 954.6C666.1 954 667.3 954.2 668 955.1C668.6 956 668.4 957.2 667.5 957.9L644.9 974C644.5 974.2 644.1 974.3 643.7 974.3Z" fill="#444444"/>
<path d="M653.9 938.3C653.1 938.3 652.3 937.8 652 937C651.7 936.1 652 935.1 652.8 934.6L728 885.9C729.7 884.9 731 884.2 732.4 883.7C743.8 879.5 756.6 885.4 760.8 896.9C761.4 898.7 761.8 900.2 762 901.6C762.8 907.5 761.2 913.3 757.6 918C754 922.7 748.8 925.7 742.9 926.5L654.1 938.2C654.1 938.3 654 938.3 653.9 938.3ZM740 886.4C737.9 886.4 735.8 886.8 733.8 887.5C732.7 887.9 731.6 888.5 730.2 889.3L662.5 933.2L742.5 922.7C747.3 922 751.6 919.6 754.6 915.7C757.6 911.8 758.8 907.1 758.2 902.2C758 901 757.7 899.8 757.2 898.3C754.4 890.9 747.4 886.4 740 886.4Z" fill="#444444"/>
<path d="M721.499 977.3C720.599 977.3 719.699 976.6 719.499 975.7C711.999 936.6 654.599 938.5 653.999 938.5C652.899 938.5 651.999 937.7 651.899 936.6C651.899 935.5 652.699 934.6 653.799 934.5C654.399 934.5 669.199 933.9 685.199 938.5C706.799 944.7 719.899 957.3 723.299 974.9C723.499 976 722.799 977 721.699 977.2C721.699 977.3 721.599 977.3 721.499 977.3Z" fill="#444444"/>
<path d="M316.399 1056.5C315.999 1056.5 315.599 1056.5 315.099 1056.5C309.299 1056.2 303.799 1053.7 299.899 1049.3C295.899 1044.9 293.899 1039.2 294.199 1033.2L298.899 943.7C298.899 942.8 299.599 942 300.599 941.8C301.499 941.6 302.399 942.1 302.799 943L336.999 1025.8C337.599 1027.4 337.999 1028.9 338.299 1030.5C339.299 1036.4 337.999 1042.3 334.599 1047.1C331.199 1051.9 326.099 1055.1 320.199 1056.2C318.899 1056.4 317.699 1056.5 316.399 1056.5ZM302.399 952.7L298.199 1033.4C297.899 1038.3 299.599 1042.9 302.899 1046.6C306.199 1050.2 310.599 1052.3 315.399 1052.5C316.799 1052.6 318.099 1052.5 319.399 1052.2C324.299 1051.4 328.399 1048.7 331.199 1044.8C333.999 1040.8 335.099 1036 334.299 1031.2C333.999 1029.9 333.699 1028.6 333.199 1027.2L302.399 952.7Z" fill="#444444"/>
<path d="M250.3 1005.1C249.2 1005.1 248.3 1004.2 248.3 1003.1C248.3 1002 249.2 1001.1 250.3 1001.1C288.7 1000.9 298 947.9 298.7 943.8L295.4 916.6C295.3 915.5 296.1 914.5 297.1 914.4C298.2 914.3 299.2 915.1 299.3 916.1L302.6 943.6C302.6 943.8 302.6 943.9 302.6 944.1C302.5 944.7 300.4 959.4 293 974.3C283.1 994.4 268.3 1005 250.3 1005.1Z" fill="#444444"/>
<path d="M282.9 952.5C282.2 952.5 281.6 952.2 281.2 951.6L267.2 929.2C266.6 928.3 266.9 927 267.8 926.4C268.7 925.8 270 926.1 270.6 927L284.6 949.4C285.2 950.3 284.9 951.6 284 952.2C283.6 952.4 283.3 952.5 282.9 952.5Z" fill="#444444"/>
<path d="M666.4 537.5C665.6 537.5 664.8 537 664.5 536.1C664.2 535.1 664.7 533.9 665.8 533.6C677.5 529.7 690 526.5 690.1 526.5C691.2 526.2 692.3 526.9 692.5 527.9C692.8 529 692.1 530.1 691.1 530.3C691 530.3 678.6 533.5 667 537.4C666.8 537.5 666.6 537.5 666.4 537.5Z" fill="#444444"/>
<path d="M682.1 546.4C681.2 546.4 680.4 545.8 680.2 545C679.9 543.9 680.5 542.8 681.6 542.5C705.1 535.7 732.7 529.7 732.9 529.7C734 529.5 735 530.2 735.3 531.2C735.5 532.3 734.8 533.3 733.8 533.6C733.5 533.7 706.1 539.6 682.7 546.4C682.5 546.4 682.3 546.4 682.1 546.4Z" fill="#444444"/>
<path d="M686.999 559.1C686.199 559.1 685.399 558.6 685.099 557.7C684.799 556.7 685.299 555.5 686.399 555.2C702.599 549.8 719.199 545.5 735.599 542.3C736.699 542.1 737.699 542.8 737.899 543.9C738.099 545 737.399 546 736.299 546.2C720.099 549.3 703.699 553.6 687.699 558.9C687.399 559.1 687.199 559.1 686.999 559.1Z" fill="#444444"/>
<path d="M875.9 274.7H1015.6C1035.2 274.7 1051 290.6 1051 310.1C1051 329.7 1035.1 345.5 1015.6 345.5H875.9C856.3 345.5 840.5 329.6 840.5 310.1C840.5 290.6 856.4 274.7 875.9 274.7Z" fill="#46B160"/>
<path d="M875.9 345.5H1015.6C1035.2 345.5 1051 361.4 1051 380.9C1051 400.5 1035.1 416.3 1015.6 416.3H875.9C856.3 416.3 840.5 400.4 840.5 380.9C840.5 361.3 856.4 345.5 875.9 345.5Z" fill="#46B160"/>
<path d="M945.8 418.4C944.7 418.4 943.8 417.5 943.8 416.4V274.7C943.8 273.6 944.7 272.7 945.8 272.7C946.9 272.7 947.8 273.6 947.8 274.7V416.4C947.8 417.5 946.9 418.4 945.8 418.4Z" fill="#444444"/>
<path d="M945.6 278.5C945.6 278.5 945.5 278.5 945.4 278.5C944.5 278.4 943.7 277.7 943.6 276.8L930.5 188.2C930.2 186.7 930.1 185.2 930.3 183.2C931.3 171 942 161.9 954.1 162.7C955.6 162.8 957.2 163.1 958.9 163.6C964.6 165.3 969.3 169.1 972 174.3C974.8 179.5 975.4 185.6 973.6 191.3L947.4 277C947.3 277.9 946.5 278.5 945.6 278.5ZM952.5 166.7C943.1 166.7 935 174 934.2 183.5C934.1 185.1 934.1 186.3 934.4 187.4V187.5L946.2 267.3L969.8 190.1C971.2 185.4 970.8 180.5 968.5 176.2C966.2 171.9 962.4 168.8 957.8 167.4C956.4 167 955.1 166.8 953.8 166.7C953.4 166.8 953 166.7 952.5 166.7Z" fill="#444444"/>
<path d="M945.7 277.1C945.4 277.1 945.1 277 944.8 276.9L881.8 245.6C880.8 245.1 879.8 244.4 878.6 243.5C871 237.3 869.8 226.1 875.9 218.4C876.8 217.1 877.9 216.2 878.8 215.5C882.6 212.6 887.2 211.3 892 211.8C896.7 212.4 901 214.8 903.9 218.5L947.3 273.8C947.9 274.5 947.9 275.6 947.3 276.3C946.9 276.8 946.3 277.1 945.7 277.1ZM889.8 215.7C886.7 215.7 883.7 216.7 881.3 218.7C880.6 219.2 879.8 219.9 879.2 220.8L879.1 220.9C874.3 226.9 875.2 235.6 881.1 240.4C882.1 241.1 882.9 241.7 883.6 242.1L938.7 269.5L900.7 221C898.4 218.1 895.1 216.2 891.4 215.8C890.9 215.8 890.3 215.7 889.8 215.7Z" fill="#444444"/>
<path d="M946.201 277C945.701 277 945.301 276.8 944.901 276.5C944.101 275.8 944.001 274.5 944.701 273.7C945.101 273.2 954.901 262.1 969.301 253.6C988.601 242.2 1006.9 241.3 1022 251.1C1022.9 251.7 1023.2 252.9 1022.6 253.9C1022 254.8 1020.8 255.1 1019.8 254.5C986.201 232.9 948.101 275.9 947.701 276.3C947.301 276.8 946.801 277 946.201 277Z" fill="#444444"/>
<path d="M1022.4 835.8L1014.7 794.5L1014.8 794.4C1033.3 773.2 1056.2 764.8 1071.4 763.9H1071.6V764.1C1070.6 788 1067.7 812.1 1063.1 835.6V835.8H1022.4Z" fill="#444444"/>
<path d="M949.7 731.5C949.2 731.5 898.7 729 898.7 700.5C905.5 688 924.7 686.1 935.5 686.1C939.6 686.1 942.4 686.4 942.5 686.4H942.6V686.5C942.6 686.5 943.3 690.1 943.7 692.1C945.9 703 948.7 718.6 949.8 731.2V731.4L949.7 731.5Z" fill="#444444"/>
<path d="M1308.7 907.4C1308.6 907.1 1302.8 880.3 1297.3 862.5V862.3L1297.4 862.2C1297.5 862.1 1312 853.9 1326.6 852C1328.5 851.7 1330.4 851.6 1332.1 851.6C1346 851.6 1349.4 859.9 1349.5 860C1349.6 860.2 1354.9 881.1 1309.1 907.5L1308.9 907.6L1308.7 907.4Z" fill="#444444"/>
<path d="M1250.6 443.9C1250.8 443.7 1253.4 441.1 1268.4 430C1275 425.1 1281.3 422.6 1287 422.6C1293.6 422.6 1297.1 426 1297.2 426.1C1297.3 426.2 1301.2 434.2 1299 445.6C1295.3 464.6 1277.8 478.3 1263.7 486.4L1263.5 486.5L1250.6 443.9Z" fill="#444444"/>
<path d="M1156.2 1005V1004.8C1156.2 1004.7 1155.4 991.7 1171 975.1C1184.7 960.5 1197.9 941.6 1191.6 911.3V911.2L1296.2 857.9L1296.3 858.1C1302.1 875.6 1309 907 1309.1 907.3C1309.1 907.4 1311.2 917.9 1313.6 933.1V933.3H1313.4C1298.1 937 1260.7 951.4 1243.1 1004.8V1004.9L1156.2 1005Z" fill="#FC3E48"/>
<path d="M1313.6 933.1L1313.4 933C1294.8 937.5 1278.7 947.7 1265.6 963.3L1265.5 963.4L1279.3 1005V1004.9H1318.9V1004.7C1318.9 986.5 1316.8 953.3 1313.6 933.1Z" fill="#444444"/>
<path d="M1197.2 911.9C1193.7 911.9 1191.7 911.6 1191.7 911.6H1191.6V911.5C1189.1 899.2 1180.5 878.3 1169.6 852C1155.7 818.2 1138.3 776.1 1127.7 736.4C1118 700.3 1113.5 644.4 1111.3 603.9C1109 560 1109 524.2 1109 523.8V523.6L1250.1 535.4V535.6C1249.9 556.1 1249.3 574.4 1248.6 592.2C1246.1 663 1244.5 709.8 1277.6 753.9C1289.4 769.6 1299.5 782.3 1308.4 793.4C1330.5 821 1344.5 842.3 1349.5 860.1C1349.6 860.3 1339.5 841.5 1297.3 862.8C1284.2 870 1274.9 876.4 1265.9 882.6C1255.9 889.5 1246.5 896 1233.2 902.6C1217.2 910.7 1203.8 911.9 1197.2 911.9Z" fill="#FFBCD8"/>
<path d="M1216.4 939.9H1192.3C1191.2 939.9 1190.3 939 1190.3 937.9C1190.3 936.8 1191.2 935.9 1192.3 935.9H1216.4C1217.5 935.9 1218.4 936.8 1218.4 937.9C1218.4 939 1217.5 939.9 1216.4 939.9Z" fill="#444444"/>
<path d="M1208.5 966.5C1208.2 966.5 1207.9 966.4 1207.7 966.3L1185.8 956.2C1184.8 955.7 1184.4 954.5 1184.8 953.5C1185.3 952.5 1186.5 952.1 1187.5 952.5L1209.4 962.6C1210.4 963.1 1210.8 964.3 1210.4 965.3C1210 966.1 1209.3 966.5 1208.5 966.5Z" fill="#444444"/>
<path d="M1239.1 901.4C1238.2 901.4 1237.4 900.8 1237.2 899.9L1224.3 846.9C1224.2 846.4 1224.3 845.8 1224.5 845.4C1224.8 844.9 1225.2 844.6 1225.8 844.5L1283 832L1225.7 818.9C1225.1 818.8 1224.5 818.3 1224.3 817.7C1224.1 817.1 1224.1 816.4 1224.5 815.9L1251.9 772.2L1201.6 800C1201.1 800.3 1200.4 800.3 1199.8 800.1C1199.2 799.9 1198.8 799.4 1198.7 798.8L1182.6 735.3L1173.1 811.4C1173 812 1172.7 812.5 1172.2 812.8C1171.7 813.1 1171.1 813.2 1170.5 813.1L1149.9 807.2C1148.8 806.9 1148.2 805.8 1148.5 804.7C1148.8 803.6 1149.9 803 1151 803.3L1169.4 808.6L1179.9 724.3C1180 723.3 1180.8 722.6 1181.8 722.6C1182.8 722.5 1183.6 723.2 1183.9 724.1L1202 795.4L1256.8 765.2C1257.6 764.8 1258.6 764.9 1259.2 765.6C1259.8 766.3 1259.9 767.3 1259.4 768L1229.4 815.8L1292.7 830.3C1293.6 830.5 1294.3 831.3 1294.3 832.3C1294.3 833.3 1293.6 834 1292.7 834.2L1228.7 848.2L1241.1 899.2C1241.4 900.3 1240.7 901.4 1239.6 901.6C1239.4 901.4 1239.3 901.4 1239.1 901.4Z" fill="#444444"/>
<path d="M1226.1 907.6C1225.5 907.6 1224.9 907.3 1224.5 906.9L1196.7 872.3L1185.3 887.7C1184.6 888.6 1183.4 888.8 1182.5 888.1C1181.6 887.4 1181.4 886.2 1182.1 885.3L1195 867.8C1195.4 867.3 1195.9 867 1196.6 867C1197.2 867 1197.8 867.3 1198.2 867.7L1227.6 904.3C1228.3 905.2 1228.2 906.4 1227.3 907.1C1227 907.5 1226.5 907.6 1226.1 907.6Z" fill="#444444"/>
<path d="M1129.3 743.5C1128.8 743.5 1128.4 743.3 1128 743C1127.2 742.3 1127 741 1127.7 740.2L1167.2 692.6L1120.2 698.7C1119.1 698.8 1118.1 698.1 1118 697C1117.9 695.9 1118.6 694.9 1119.7 694.8L1171.8 688C1172.6 687.9 1173.4 688.3 1173.8 689C1174.2 689.7 1174.1 690.6 1173.6 691.2L1130.8 742.7C1130.4 743.3 1129.9 743.5 1129.3 743.5Z" fill="#444444"/>
<path d="M1221.3 726.4C1221.2 726.4 1221.1 726.4 1221 726.4C1220.1 726.3 1219.4 725.5 1219.3 724.6L1213.5 657.4L1142.4 653.6C1141.5 653.6 1140.7 652.9 1140.5 652C1140.3 651.1 1140.8 650.2 1141.6 649.8L1206.7 619.6L1182.5 599C1181.7 598.3 1181.6 597 1182.3 596.2C1183 595.4 1184.3 595.3 1185.1 596L1211.7 618.6C1212.2 619 1212.5 619.7 1212.4 620.4C1212.3 621.1 1211.9 621.7 1211.3 621.9L1150.7 650L1215.5 653.5C1216.5 653.6 1217.3 654.3 1217.4 655.3L1222.6 716.1L1246.1 660.5C1246.5 659.5 1247.7 659 1248.7 659.4C1249.7 659.8 1250.2 661 1249.8 662L1223.2 725C1222.8 725.9 1222.1 726.4 1221.3 726.4Z" fill="#444444"/>
<path d="M896.4 835.8V835.6C896.4 835.5 895.7 820.5 923 800C950 779.7 951.5 753.9 949.5 731.3C948.4 718.7 945.5 703.1 943.4 692.2C943 690.1 942.6 688.2 942.3 686.6V686.5L1000 624.7L1072.1 738.1V738.2C1072.2 746.7 1072 755.4 1071.6 764.1V764.3H1071.4C1057.7 765.1 1042.2 771.4 1029.1 781.5C1012.4 794.4 999.6 813.1 992.2 835.7V835.8H896.4Z" fill="#FC3E48"/>
<path d="M1236.3 303.2C1257.62 303.2 1274.9 285.918 1274.9 264.6C1274.9 243.282 1257.62 226 1236.3 226C1214.98 226 1197.7 243.282 1197.7 264.6C1197.7 285.918 1214.98 303.2 1236.3 303.2Z" fill="#444444"/>
<path d="M1312.5 303.2C1333.82 303.2 1351.1 285.918 1351.1 264.6C1351.1 243.282 1333.82 226 1312.5 226C1291.18 226 1273.9 243.282 1273.9 264.6C1273.9 285.918 1291.18 303.2 1312.5 303.2Z" fill="#444444"/>
<path d="M1199.1 313C1188.5 313 1179.9 304.4 1179.9 293.8C1179.9 283.2 1188.5 274.6 1199.1 274.6C1209.7 274.6 1218.3 283.2 1218.3 293.8C1218.3 304.4 1209.7 313 1199.1 313Z" fill="white"/>
<path d="M1199.1 276.6C1208.6 276.6 1216.3 284.3 1216.3 293.8C1216.3 303.3 1208.6 311 1199.1 311C1189.6 311 1181.9 303.3 1181.9 293.8C1181.9 284.3 1189.6 276.6 1199.1 276.6ZM1199.1 272.6C1187.4 272.6 1177.9 282.1 1177.9 293.8C1177.9 305.5 1187.4 315 1199.1 315C1210.8 315 1220.3 305.5 1220.3 293.8C1220.3 282.1 1210.8 272.6 1199.1 272.6Z" fill="#444444"/>
<path d="M1201.8 299C1201.4 299 1201 298.9 1200.7 298.7L1188.1 290.4C1187.2 289.8 1186.9 288.6 1187.5 287.6C1188.1 286.7 1189.3 286.4 1190.3 287L1202.9 295.3C1203.8 295.9 1204.1 297.1 1203.5 298.1C1203.1 298.7 1202.4 299 1201.8 299Z" fill="#444444"/>
<path d="M1160.9 312.5C1145.2 312.5 1131.3 295.4 1127.1 271C1122.1 241.9 1129.3 216.6 1143.8 212C1147.4 210.9 1151.2 210.3 1155.1 210.3C1173.5 210.3 1188.6 223.2 1192.8 227.2C1192.9 227.3 1192.9 227.3 1193 227.4C1201.2 236.1 1204.6 244.4 1203.9 254.3C1203.2 265.5 1197.3 278.8 1185.5 296.3C1178.4 306.9 1169.9 312.5 1160.9 312.5Z" fill="white"/>
<path d="M1155.1 212.3C1172.8 212.3 1187.4 224.8 1191.4 228.6C1191.4 228.6 1191.5 228.7 1191.6 228.8C1205 243 1208.3 259.1 1183.9 295.2C1177.2 305.2 1169.2 310.5 1160.9 310.5C1154.2 310.5 1147.3 306.8 1141.7 300.1C1135.6 292.9 1131.1 282.4 1129.1 270.6C1126.7 256.5 1127.1 242.8 1130.3 232.2C1133.3 222.4 1138.3 215.9 1144.5 213.9C1147.8 212.8 1151.4 212.3 1155.1 212.3ZM1155.1 208.3C1151.3 208.3 1147.3 208.8 1143.2 210.1C1127.8 214.9 1119.8 240.7 1125.1 271.3C1129.6 297.4 1144.7 314.5 1160.9 314.5C1169.9 314.5 1179.2 309.3 1187.2 297.4C1211.6 261.3 1210.3 242.7 1194.4 225.9C1194.3 225.9 1177.1 208.3 1155.1 208.3Z" fill="#444444"/>
<path d="M1194.3 225.9C1208.1 240.5 1210.9 256.5 1195.4 284C1169.1 266.9 1177.9 227.5 1177.9 227.5C1150.4 241.3 1125.2 235.1 1125.2 235.1C1128.1 222 1134.5 212.7 1143.1 210.1C1170.5 201.6 1194.3 225.9 1194.3 225.9Z" fill="#444444"/>
<path d="M1144.1 271.7C1143.7 271.7 1143.3 271.6 1142.9 271.3C1141.3 270.1 1140.1 268.5 1139.5 266.6C1138.6 263.9 1139.1 259.6 1141.8 250.3C1142.1 249.2 1143.2 248.6 1144.3 248.9C1145.4 249.2 1146 250.3 1145.7 251.4C1144.1 257 1142.6 263.1 1143.4 265.3C1143.8 266.4 1144.5 267.4 1145.4 268.1C1146.3 268.8 1146.5 270 1145.8 270.9C1145.3 271.4 1144.7 271.7 1144.1 271.7Z" fill="#444444"/>
<path d="M1156.9 260.4C1156.8 260.4 1156.7 260.4 1156.6 260.4C1155.5 260.2 1154.7 259.2 1154.9 258.1L1155.2 256C1155.4 254.9 1156.4 254.1 1157.5 254.3C1158.6 254.5 1159.4 255.5 1159.2 256.6L1158.9 258.7C1158.7 259.7 1157.9 260.4 1156.9 260.4Z" fill="#444444"/>
<path d="M1134 251.4C1133.9 251.4 1133.8 251.4 1133.7 251.4C1132.6 251.3 1131.8 250.2 1132 249.1L1132.3 246.9C1132.4 245.8 1133.5 245 1134.6 245.2C1135.7 245.3 1136.5 246.4 1136.3 247.5L1136 249.7C1135.8 250.7 1135 251.4 1134 251.4Z" fill="#444444"/>
<path d="M1150.4 283.9C1149.8 283.9 1149.3 283.9 1148.7 283.7H1148.6H1148.4C1148 283.6 1147.4 283.5 1146.9 283.2C1145.9 282.7 1145.5 281.5 1146 280.5C1146.5 279.5 1147.7 279.1 1148.7 279.6C1148.8 279.7 1149.1 279.7 1149.4 279.8H1149.5C1152.3 280.3 1155 278.5 1155.5 275.7C1155.7 274.6 1156.8 273.9 1157.9 274.2C1159 274.4 1159.7 275.5 1159.4 276.6C1158.5 281 1154.7 283.9 1150.4 283.9Z" fill="#444444"/>
<path d="M1269.8 513.7C1267.9 498.2 1262.4 480.7 1251.5 445.8C1250.1 441.2 1248.6 436.4 1247 431.2L1246.9 431L1128.7 470.4C1128.1 470.5 1063.3 475.4 1018.5 483.2C993.7 487.6 977.7 493.2 965 502.1C951.2 511.7 941.3 525.4 932.8 546.3C923.3 569.7 914.6 616 906.8 656.9C904.2 670.8 899.8 690.3 898.7 700.5C909.3 684.1 937.4 686.1 942.8 686.8C968 691.7 986.7 703.4 1003.1 713.8C1011.5 719.1 1019.6 724.2 1027.4 727.5C1050.2 737.2 1062.9 738.6 1068.4 738.6C1070.8 738.6 1071.9 738.4 1071.9 738.4H1072.1V738.2C1071.4 657.4 1050.7 601.4 1049 597H1191.6C1219.9 597 1241.9 589 1255.3 573.9C1268.1 559.4 1273 539.2 1269.8 513.7Z" fill="#FFBCD8"/>
<path d="M1096.3 497.6C1094.8 497.6 1093.2 497.5 1091.5 497.4C1058.3 494.6 1027.3 462.7 1000 434.6L999.7 434.3C988.4 422.7 977.8 411.8 967.5 403.3C952.5 390.9 937.1 385.9 925.9 382.3L925.7 382.2C914.8 378.7 911.1 377.2 912.1 373.7C912.3 372.9 914.4 371.7 920.9 371.7C928.2 371.7 938.2 373.6 941.5 374.2C941.9 374.3 942.2 374.3 942.4 374.4C942.5 374.4 942.6 374.4 942.7 374.4C943.5 374.4 944.3 373.9 944.6 373C944.9 372.1 944.5 371 943.6 370.6L942.6 370.1L942.1 369.9C936.7 367.3 920.1 359.3 915.3 356C912.1 353.6 910.3 350.7 910.6 348.3C910.8 346.9 911.6 345.9 912.8 345.4C913.3 345.2 913.7 344.8 913.9 344.3C914.1 343.8 914.1 343.2 913.8 342.7C913.4 342 911.6 338.1 912.9 335.5C913.4 334.6 914.3 333.3 917.4 332.7C918.3 332.5 918.9 331.8 919 330.9C919.2 328.9 920.2 324.3 926 324.3C927 324.3 928.2 324.5 929.6 324.8C942.1 327.7 962 336.7 962.2 336.8C962.5 336.9 962.7 337 963 337C963.5 337 964.1 336.8 964.5 336.4C965.1 335.8 965.2 334.9 964.8 334.1C962.7 330 962.1 326.5 963.3 324.6C964.1 323.4 965.3 323.1 966.2 323.1C972.7 325.2 1049.7 378.6 1086.2 404.3C1086.5 404.5 1086.9 404.7 1087.4 404.7C1087.6 404.7 1087.8 404.7 1087.9 404.6C1088.5 404.4 1089 404 1089.2 403.5C1089.8 402 1093.4 393.9 1100.8 378.2L1115.2 352.3L1187 386.5L1180 410.4C1165.6 447.6 1146.7 471.8 1146.3 472.3C1146.2 472.4 1146.2 472.4 1146.1 472.5C1146.2 472.4 1126.5 497.6 1096.3 497.6Z" fill="white"/>
<path d="M966 324.8C975 328.8 1051.1 381.7 1085.2 405.6C1085.9 406.1 1086.7 406.3 1087.5 406.3C1087.9 406.3 1088.2 406.3 1088.6 406.1C1089.8 405.8 1090.7 404.9 1091.2 403.8C1091.8 402.3 1095.4 394.2 1102.8 378.7L1116.3 354.5L1184.9 387.2L1178.4 409.4C1164.2 446.2 1145.6 470 1145 470.7C1144.9 470.8 1144.9 470.8 1144.8 470.9C1144.6 471.2 1139.6 477.5 1131 483.6C1119.9 491.5 1108.3 495.5 1096.3 495.5C1094.9 495.5 1093.3 495.4 1091.7 495.3C1059.2 492.5 1028.5 460.9 1001.5 433.1L1001.2 432.8C989.9 421.2 979.2 410.2 968.8 401.7C953.5 389.1 937.9 384 926.5 380.3H926.4H926.3C921.6 378.8 917.5 377.5 915.3 376.1C914.1 375.4 913.9 375 914 374.6C914.5 374.3 916.3 373.7 920.9 373.7C928 373.7 937.9 375.6 941.1 376.2C941.5 376.3 941.8 376.3 942 376.4C942.2 376.4 942.5 376.5 942.7 376.5C944.4 376.5 945.9 375.4 946.5 373.8C947.1 371.9 946.3 369.9 944.5 369L943.5 368.5C943.5 368.5 943.5 368.5 943.4 368.5L942.9 368.3C937.5 365.7 921.1 357.8 916.5 354.6C913.9 352.7 912.5 350.5 912.6 348.8C912.7 347.9 913.2 347.6 913.6 347.5C914.6 347.1 915.4 346.2 915.8 345.2C916.2 344.2 916.1 343 915.6 342C914.7 340.3 914.1 337.8 914.7 336.6C914.9 336.3 915.3 335.3 917.8 334.8C919.5 334.5 920.9 333 921 331.2C921.3 328.1 922.9 326.5 926 326.5C926.6 326.5 927.6 326.6 929.1 326.9C941.4 329.8 961.1 338.6 961.3 338.7C961.8 338.9 962.4 339.1 963 339.1C964.1 339.1 965.1 338.7 965.9 337.9C967.1 336.7 967.3 334.8 966.5 333.3C964.4 329.3 964.4 326.7 964.9 325.8C965.2 325.3 965.4 325 966 324.8ZM966.5 320.8C964.4 320.8 962.7 321.7 961.7 323.3C960.1 325.9 960.6 330 963.1 334.8C959.8 333.3 941.7 325.4 930.1 322.7C928.7 322.4 927.3 322.2 926.1 322.2C918 322.2 917.2 329.4 917.1 330.6C914.1 331.2 912.2 332.5 911.2 334.5C909.5 338 911.6 342.5 912.1 343.5C910.2 344.3 909 345.9 908.7 348C908.3 351.3 910.4 354.8 914.2 357.6C919.2 361.1 936.3 369.3 941.7 371.9L942.7 372.4C941 372.1 929.3 369.7 920.9 369.7C914.4 369.7 910.8 370.9 910.2 373.2C908.6 378.9 914.9 380.9 925.2 384.2C936.3 387.8 951.5 392.7 966.3 404.9C976.6 413.4 987.3 424.4 998.6 436C1026.2 464.4 1057.5 496.5 1091.4 499.4C1093 499.5 1094.7 499.6 1096.3 499.6C1127.6 499.6 1147.8 473.6 1148 473.3C1148.2 473.1 1167.5 448.6 1182.1 410.7L1189.6 385.1L1114.5 349.4L1099.2 377C1091.6 392.9 1088.1 401 1087.5 402.4C1080.4 397.4 971.3 320.8 966.5 320.8Z" fill="#444444"/>
<path d="M970.4 776.7C970.2 776.7 970 776.7 969.8 776.6L946.5 769.2C945.4 768.9 944.9 767.7 945.2 766.7C945.5 765.6 946.7 765.1 947.7 765.4L971 772.8C972.1 773.1 972.6 774.3 972.3 775.3C972 776.2 971.2 776.7 970.4 776.7Z" fill="#444444"/>
<path d="M956.6 802.2C956.2 802.2 955.7 802.1 955.4 801.8L937.1 787.4C936.2 786.7 936.1 785.5 936.8 784.6C937.5 783.7 938.7 783.6 939.6 784.3L957.9 798.7C958.8 799.4 958.9 800.6 958.2 801.5C957.8 801.9 957.2 802.2 956.6 802.2Z" fill="#444444"/>
<path d="M1009.6 719.7C1008.9 719.7 1008.2 719.3 1007.9 718.7C1007.4 717.7 1007.7 716.5 1008.7 716L1024.9 707L993.4 649.6C993 648.8 993.1 647.8 993.8 647.2C994.5 646.6 995.5 646.5 996.2 646.9L1047.3 678.2L1060.8 646.6C1061.2 645.6 1062.4 645.1 1063.4 645.5C1064.4 645.9 1064.9 647.1 1064.5 648.1L1050.1 681.8C1049.9 682.3 1049.4 682.7 1048.9 682.9C1048.3 683.1 1047.7 683 1047.2 682.7L1000.5 654.1L1029.4 706.6C1029.9 707.6 1029.6 708.8 1028.6 709.3L1010.7 719.3C1010.3 719.6 1009.9 719.7 1009.6 719.7Z" fill="#444444"/>
<path d="M960.6 674.2C959.8 674.2 959 673.7 958.7 672.9L939 620.4L911.3 641.8C910.4 642.5 909.2 642.3 908.5 641.4C907.8 640.5 908 639.3 908.9 638.6L938.7 615.5C939.2 615.1 939.9 615 940.5 615.2C941.1 615.4 941.6 615.8 941.8 616.4L959.2 662.5L962.6 601.2C962.6 600.6 962.9 600 963.5 599.7C964 599.3 964.6 599.2 965.2 599.4L1017.1 615.6L978 578.2C977.6 577.8 977.4 577.3 977.4 576.7C977.4 576.1 977.6 575.6 978 575.2L1020.7 535.9L959.3 555C958.8 555.2 958.2 555.1 957.7 554.8C957.2 554.5 956.9 554.1 956.7 553.5L947.8 517.1C947.5 516 948.2 514.9 949.3 514.7C950.4 514.4 951.5 515.1 951.7 516.2L960.1 550.5L1028 529.4C1028.9 529.1 1029.9 529.5 1030.3 530.3C1030.8 531.1 1030.6 532.1 1029.9 532.8L982.3 576.7L1026 618.5C1026.7 619.1 1026.8 620.2 1026.3 621C1025.8 621.8 1024.9 622.2 1024 621.9L966.5 604L962.7 672.2C962.6 673.1 961.9 673.9 961 674.1C960.8 674.2 960.7 674.2 960.6 674.2Z" fill="#444444"/>
<path d="M1090.4 571.9C1090 571.9 1089.7 571.8 1089.4 571.6C1088.6 571.1 1088.3 570.2 1088.5 569.3L1103.6 516.5L1037.1 509.8C1036.2 509.7 1035.5 509 1035.3 508.1C1035.2 507.2 1035.6 506.3 1036.5 506L1071.1 491C1072.1 490.6 1073.3 491 1073.7 492C1074.1 493 1073.7 494.2 1072.7 494.6L1045.2 506.5L1106.4 512.6C1107 512.7 1107.5 513 1107.9 513.5C1108.3 514 1108.3 514.6 1108.2 515.2L1094.5 563L1140.3 518.1C1141.1 517.3 1142.3 517.3 1143.1 518.1L1183.3 556.5L1169.3 502.3C1169.2 501.7 1169.3 501.2 1169.6 500.7C1169.9 500.2 1170.4 499.9 1171 499.8L1223.5 492.6L1195.3 475.9C1194.3 475.3 1194 474.1 1194.6 473.2C1195.2 472.2 1196.4 471.9 1197.3 472.5L1230.4 492.1C1231.1 492.5 1231.5 493.4 1231.3 494.2C1231.1 495 1230.5 495.7 1229.6 495.8L1173.6 503.5L1188.8 562.3C1189 563.2 1188.6 564.1 1187.9 564.5C1187.1 565 1186.2 564.8 1185.5 564.2L1141.6 522.2L1091.8 571C1091.4 571.7 1090.9 571.9 1090.4 571.9Z" fill="#444444"/>
<path d="M1269.5 543.4C1269.3 543.4 1269 543.4 1268.8 543.3L1231.4 528.5C1230.7 528.2 1230.2 527.5 1230.1 526.7C1230.1 525.9 1230.5 525.2 1231.3 524.8L1268.7 508.1C1269.7 507.7 1270.9 508.1 1271.3 509.1C1271.8 510.1 1271.3 511.3 1270.3 511.7L1237.2 526.5L1270.2 539.6C1271.2 540 1271.7 541.2 1271.3 542.2C1271 542.9 1270.3 543.4 1269.5 543.4Z" fill="#444444"/>
<path d="M1191.8 598.8H1111.1C1110 598.8 1109.1 597.9 1109.1 596.8C1109.1 595.7 1110 594.8 1111.1 594.8H1191.8C1215.5 594.8 1234.3 589.3 1247.5 578.5C1248.4 577.8 1249.6 577.9 1250.3 578.8C1251 579.7 1250.9 580.9 1250 581.6C1236.1 593 1216.5 598.8 1191.8 598.8Z" fill="#444444"/>
<path d="M1250.7 444.3C1247.4 447.1 1210.8 478.1 1172.5 478.1C1163.7 478.1 1155.8 476.5 1148.2 473.3L1148.1 473.2L1148.3 473C1148.5 472.8 1167 449.3 1181.9 410.7L1099.2 377.2L1099.3 377C1105.8 363.4 1113.5 347.9 1122 330.8C1132.8 309.2 1148.1 297.6 1167.4 296.3C1168.3 296.2 1169.3 296.2 1170.2 296.2C1197.5 296.2 1219.7 324 1243.3 353.4C1274.4 392.3 1297.2 425.9 1297.4 426.2C1283.2 414 1250.7 444.3 1250.7 444.3Z" fill="#FC3E48"/>
<path d="M1048.7 598.8H1027.5C1026.4 598.8 1025.5 597.9 1025.5 596.8C1025.5 595.7 1026.4 594.8 1027.5 594.8H1048.7C1049.8 594.8 1050.7 595.7 1050.7 596.8C1050.7 597.9 1049.8 598.8 1048.7 598.8Z" fill="#444444"/>
<path d="M1179 414.5C1178.7 414.5 1178.5 414.5 1178.2 414.3C1177.2 413.9 1176.7 412.7 1177.1 411.7C1177.2 411.5 1184 394.9 1189.9 378.3C1190.3 377.3 1191.4 376.7 1192.4 377.1C1193.4 377.5 1194 378.6 1193.6 379.6C1187.8 396.3 1180.8 413 1180.8 413.2C1180.5 414 1179.8 414.5 1179 414.5Z" fill="#444444"/>
<path d="M967.4 354.5C967.1 354.5 966.8 354.4 966.5 354.3C966.3 354.2 941.7 342.5 919.5 334.7C918.5 334.3 917.9 333.2 918.3 332.2C918.7 331.2 919.8 330.6 920.8 331C943.2 338.8 968 350.7 968.2 350.8C969.2 351.3 969.6 352.5 969.1 353.5C968.9 354.1 968.1 354.5 967.4 354.5Z" fill="#444444"/>
<path d="M961.5 366.3C961.2 366.3 960.9 366.2 960.6 366.1C939.6 356 924.1 349.4 914.7 346.5C913.6 346.2 913 345.1 913.4 344C913.7 342.9 914.8 342.4 915.9 342.7C925.5 345.6 941.2 352.3 962.4 362.5C963.4 363 963.8 364.2 963.3 365.2C963 365.9 962.2 366.3 961.5 366.3Z" fill="#444444"/>
<path d="M983.2 348.6C982.9 348.6 982.6 348.5 982.3 348.4L962 338.8C961 338.3 960.6 337.1 961 336.1C961.5 335.1 962.7 334.7 963.7 335.1L984 344.7C985 345.2 985.4 346.4 985 347.4C984.7 348.2 983.9 348.6 983.2 348.6Z" fill="#444444"/>
</svg>
