<svg width="1600" height="1200" viewBox="0 0 1600 1200" fill="none" xmlns="http://www.w3.org/2000/svg">
<path d="M823.001 751.8C821.201 751.8 819.401 751.6 817.701 751.2H817.601V751.1C817.501 750.9 812.101 743.2 818.601 730.2C822.701 722.4 829.701 717.1 835.801 710.7L835.901 710.6L836.001 710.7C842.501 716.6 859.801 727.6 860.001 727.7L860.201 727.8L860.101 728C860.001 728.2 842.601 751.8 823.001 751.8Z" fill="#444444"/>
<path d="M922.6 754.9C908.9 754.9 884.9 741.2 860.9 726.3C860.7 726.2 843.4 715.2 837.1 709.5L837 709.4L796.7 679.2L837.3 621.9L890.1 654.2C899.2 660.9 923.3 678.7 926.3 682.1C928.4 684.4 929.2 686.5 928.8 688.2C928.1 690.8 924.4 692.2 923.7 692.5L919.8 693.9L923.4 696.1C925 697.1 931.2 700.9 943.9 708.8C948.4 711.6 950.7 714.5 950.8 717.2C950.9 720.4 948 722.8 947.4 723.2L945.9 724.3L946.9 725.8C948.4 728.3 948.9 730.6 948.4 732.6C947.4 736.1 943.8 738.1 943.4 738.3L942.5 738.8L942.4 739.9C941.5 747.4 937 748.6 934.4 748.6C934 748.6 933.7 748.6 933.5 748.6L931.9 748.4L931.4 749.9C930 753.3 927.2 754.9 922.6 754.9Z" fill="white"/>
<path d="M837.9 624.6L889 655.9C901.5 665.1 922.2 680.6 924.9 683.5C926.5 685.2 927.2 686.8 926.9 687.7C926.6 688.9 924.7 690.1 923.1 690.6L915.2 693.4L922.3 697.7C923.9 698.7 930.1 702.5 942.8 710.4C946.6 712.8 948.7 715.2 948.7 717.2C948.8 719.5 946.2 721.5 946.1 721.6L943.2 723.8L945.1 726.9C946.3 728.9 946.7 730.6 946.3 732.1C945.5 734.8 942.4 736.5 942.3 736.6L940.4 737.6L940.2 739.7C939.7 744.3 937.7 746.6 934.1 746.6C933.8 746.6 933.6 746.6 933.5 746.6L930.3 746.2L929.2 749.2C928.6 750.9 927.3 752.9 922.5 752.9C909.3 752.9 884.4 738.6 861.9 724.6C861.7 724.5 844.6 713.6 838.4 708L838.3 707.9L838.1 707.8L799.4 678.8L837.9 624.6ZM836.8 619.2L794 679.7L835.8 711C842.3 716.9 859.7 727.9 859.9 728C884.1 743 908.4 756.9 922.6 756.9C928 756.9 931.6 754.8 933.1 750.5C933.3 750.5 933.7 750.6 934.2 750.6C936.9 750.6 943.2 749.6 944.2 740.2C944.9 739.8 949 737.5 950.2 733.3C950.9 730.7 950.4 727.8 948.5 724.9C949.3 724.3 952.8 721.4 952.7 717.3C952.6 713.8 950 710.4 944.9 707.2C932.1 699.2 925.9 695.4 924.4 694.4C925.7 693.9 929.8 692.2 930.7 688.8C931.4 686.4 930.4 683.8 927.8 680.9C924 676.6 892.5 653.6 891.2 652.6L836.8 619.2Z" fill="#444444"/>
<path d="M817.7 751.2C767.2 702.8 716.7 635.9 675.5 562.7C657.4 530.5 662 501.1 669 482.2C676.7 461.7 688.8 448.6 688.9 448.5L689.1 448.3L689.2 448.5C689.9 449.4 757.5 536.1 815.6 588.8C842 612.7 866.7 633.6 891.1 652.6L891.2 652.7V652.8C891.2 653 887 670.1 861.6 689.4C846.2 701.1 837.4 709.7 836.2 710.9C836.2 710.8 811.2 735.5 817.7 751.2Z" fill="#8DB9E4"/>
<path d="M919.801 696.2C919.401 696.2 919.101 696.1 918.801 695.9L899.901 684.3C899.001 683.7 898.701 682.5 899.201 681.5C899.801 680.6 901.001 680.3 902.001 680.8L920.901 692.4C921.801 693 922.101 694.2 921.601 695.2C921.101 695.9 920.501 696.2 919.801 696.2Z" fill="#444444"/>
<path d="M946.1 727.2C945.8 727.2 945.5 727.1 945.2 727C945 726.9 920.7 713.9 902.7 701.7C901.8 701.1 901.5 699.8 902.2 698.9C902.8 698 904.1 697.8 905 698.4C922.8 710.5 946.9 723.4 947.1 723.5C948.1 724 948.4 725.2 947.9 726.2C947.5 726.8 946.8 727.2 946.1 727.2Z" fill="#444444"/>
<path d="M942.2 741.4C941.9 741.4 941.5 741.3 941.2 741.1C940.9 740.9 911.9 723.7 895.5 713C894.6 712.4 894.3 711.2 894.9 710.2C895.5 709.3 896.7 709 897.7 709.6C914 720.3 942.9 737.5 943.2 737.7C944.1 738.3 944.5 739.5 943.9 740.4C943.5 741.1 942.9 741.4 942.2 741.4Z" fill="#444444"/>
<path d="M931.6 749.9C931.3 749.9 931 749.8 930.7 749.7C930.4 749.6 901.3 735.2 886 724.8C885.1 724.2 884.9 722.9 885.5 722C886.1 721.1 887.4 720.9 888.3 721.5C903.4 731.8 932.3 746 932.6 746.2C933.6 746.7 934 747.9 933.5 748.9C933 749.5 932.3 749.9 931.6 749.9Z" fill="#444444"/>
<path d="M883.5 730.2C883.1 730.2 882.7 730.1 882.3 729.8C881.4 729.2 881.2 727.9 881.8 727L904.7 694.9C905.3 694 906.6 693.8 907.5 694.4C908.4 695 908.6 696.3 908 697.2L885.1 729.3C884.7 729.9 884.1 730.2 883.5 730.2Z" fill="#444444"/>
<path d="M1246.2 1035.2V1035C1244.6 1018.9 1253.9 1007.5 1266.8 991.8C1268.5 989.7 1270.3 987.5 1272.2 985.1C1289.8 963 1276.1 931.1 1276 930.8C1275.9 930.6 1267.2 909.4 1253.1 880.1L1235.6 847.1L1387.3 903.7L1403.1 930C1413.3 961.4 1418.7 993.8 1420.8 1034.9V1035.1H1246.2V1035.2Z" fill="#8DB9E4"/>
<path d="M1304 977C1303.8 977 1303.6 977 1303.5 976.9L1279.6 970.2C1278.5 969.9 1277.9 968.8 1278.2 967.7C1278.5 966.6 1279.6 966 1280.7 966.3L1304.6 973C1305.7 973.3 1306.3 974.4 1306 975.5C1305.7 976.4 1304.9 977 1304 977Z" fill="#444444"/>
<path d="M1292.5 999.9C1292.1 999.9 1291.7 999.8 1291.3 999.5L1272 985.5C1271.1 984.9 1270.9 983.6 1271.6 982.7C1272.2 981.8 1273.5 981.6 1274.4 982.3L1293.7 996.3C1294.6 996.9 1294.8 998.2 1294.1 999.1C1293.7 999.6 1293.1 999.9 1292.5 999.9Z" fill="#444444"/>
<path d="M1358 1035.2L1358.1 1034.9C1365.4 1007.3 1387 985.1 1414.4 976.9L1414.6 976.8V977C1417.8 996.1 1419.9 1015.5 1420.8 1034.8V1035H1358V1035.2Z" fill="#BD9FCE"/>
<path d="M1276.1 931C1275.5 930.9 1220.3 924.8 1204.2 887.8C1204.2 887.6 1202.4 875.1 1218.7 872.2C1220.6 871.9 1222.6 871.7 1224.6 871.7C1238.9 871.7 1253.1 879.8 1253.2 879.9H1253.3V880C1267.5 909.3 1276.2 930.5 1276.3 930.7L1276.4 931H1276.1Z" fill="#444444"/>
<path d="M1381 933.1C1395.5 933.1 1402.8 930.4 1402.9 930.4L1403.1 930.3L1403 930.1C1390.8 892.5 1372.6 857.8 1346.1 809.1C1305.5 734.4 1285.1 696.9 1265.4 605.5L1262.9 593.9L1154.5 586.2V586.4C1154.6 587.3 1162.8 674.1 1174.6 752.8C1188.8 847.4 1204.1 887.3 1204.3 887.7C1204.8 867.3 1232.5 869 1253.7 880.4C1256.9 882.1 1273.8 891.2 1294.3 904C1316.1 917.6 1340.5 928.1 1356.5 930.8C1365.1 932.4 1373.4 933.1 1381 933.1Z" fill="#BD9FCE"/>
<path d="M988.7 1035.2V1035C989.6 1016.5 996.1 1009.6 1005.9 999.2C1011.4 993.4 1017.6 986.8 1024.5 976.5C1040.3 952.7 1037.9 915.8 1037.9 915.4C1037.9 915.2 1036.9 897 1034.1 873.3L1031.1 859.5L1145.4 923.8L1147.6 939.4C1146.3 971.3 1143 1003.5 1137.7 1034.9V1035.1L988.7 1035.2Z" fill="#8DB9E4"/>
<path d="M1147.3 939.7C1147.1 939.7 1126.3 939.1 1110.6 932.8C1093.2 925.9 1079.8 915.8 1065.6 899.3C1050 881.1 1036.6 874.7 1034.4 873.7C1037.2 897.2 1038.2 915.3 1038.2 915.4V915.7L1037.9 915.6C1037.4 915.5 992.8 904.8 993.8 880C1008.9 753.3 1056.6 607 1057.1 605.5L1063.7 592H1181.7L1181.6 592.3C1181.3 593.3 1149.2 693.8 1143.4 754.8C1139.8 792.7 1142.4 823.2 1145 852.6C1146.6 871.4 1148.2 889.2 1148.2 908.7C1148.2 918.7 1148 929 1147.5 939.5V939.7H1147.3V939.7Z" fill="#BD9FCE"/>
<path d="M1038 915.7C1037.5 915.6 992.9 904.9 993.9 880.1C993.9 880 995.1 870.5 1010.3 869.4C1011.5 869.3 1012.7 869.3 1013.9 869.3C1020.9 869.3 1027.8 870.6 1034.3 873.3H1034.4V873.4C1037.2 897 1038.2 915.3 1038.2 915.5V915.8L1038 915.7Z" fill="#444444"/>
<path d="M1054.3 975.8C1054.1 975.8 1053.9 975.8 1053.8 975.7L1029.9 969C1028.8 968.7 1028.2 967.6 1028.5 966.5C1028.8 965.4 1029.9 964.8 1031 965.1L1054.9 971.8C1056 972.1 1056.6 973.2 1056.3 974.3C1056 975.2 1055.2 975.8 1054.3 975.8Z" fill="#444444"/>
<path d="M1040 998.7C1039.6 998.7 1039.2 998.6 1038.8 998.3L1019.5 984.4C1018.6 983.8 1018.4 982.5 1019 981.6C1019.6 980.7 1020.9 980.5 1021.8 981.1L1041.1 995C1042 995.6 1042.2 996.9 1041.6 997.8C1041.2 998.4 1040.6 998.7 1040 998.7Z" fill="#444444"/>
<path d="M1162.4 660.6C1161.4 660.6 1160.5 659.8 1160.4 658.8C1155.7 617.8 1152.7 587 1152.7 586.7C1152.6 585.6 1153.4 584.6 1154.5 584.5C1155.6 584.4 1156.6 585.2 1156.7 586.3C1156.7 586.6 1159.7 617.4 1164.4 658.4C1164.5 659.5 1163.7 660.5 1162.6 660.6C1162.6 660.6 1162.5 660.6 1162.4 660.6Z" fill="#444444"/>
<path d="M924.9 684.8C921.2 684.8 918.5 683.1 916.4 679.6L915.6 678.3L914.1 678.7C913.5 678.9 912.8 679 912.1 679C909.2 679 906.3 677.6 904.9 675.4C903.5 673.3 903.4 670.7 904.7 667.7L905.6 665.5L903.3 665C900.4 664.3 898.1 662.4 897 659.6C895.7 656.3 896.3 652.2 898.6 648.8C904.3 640.4 913.2 629.6 913.3 629.5L915.8 626.5L912 626.2C910.4 626.1 905.8 625.1 904.2 622.3C903.2 620.5 903.4 618.1 904.9 615.1C907 610.7 926.3 587.7 943.3 567.2L953.1 562.1L1015.1 625.9L1010.1 633.5C978 665.6 952.7 684 940.6 684C938.6 684 937.1 683.5 935.9 682.5L934.8 681.5L933.6 682.3C933.5 682.2 929.3 684.8 924.9 684.8Z" fill="white"/>
<path d="M952.6 564.5L1012.5 626L1008.5 632.1C977.3 663.3 951.9 681.9 940.6 681.9C939.1 681.9 938 681.6 937.2 680.9L934.9 679L932.4 680.6C932.4 680.6 928.7 682.9 924.8 682.9C921.9 682.9 919.7 681.6 918.1 678.7L916.6 676.1L913.7 676.9C913.2 677 912.7 677.1 912.2 677.1C910 677.1 907.7 676 906.6 674.4C905.6 672.9 905.6 670.9 906.6 668.6L908.4 664.2L903.8 663.1C901.5 662.6 899.8 661.1 898.9 658.9C897.8 656.2 898.4 652.8 900.3 649.9C905.9 641.6 914.8 630.9 914.9 630.7L919.7 624.8L912.1 624.1C910.5 624 906.9 623.1 905.9 621.2C905.1 619.8 905.8 617.5 906.6 615.8C908.6 611.7 928.4 588 944.5 568.7L952.6 564.5ZM953.4 559.5L942 565.5C922.3 589 905.2 609.6 903 614.1C896.9 626.9 911.8 628.1 911.8 628.1C911.8 628.1 902.8 639 897 647.6C891.6 655.5 894.8 665 902.8 666.9C899.1 675.7 905.9 681 912.1 681C913 681 913.8 680.9 914.6 680.7C917.4 685.5 921.2 686.9 924.8 686.9C929.9 686.9 934.5 684 934.5 684C936.1 685.3 938.1 686 940.5 686C955.8 686 986.2 660.1 1011.6 634.8L1017.6 625.7L953.4 559.5Z" fill="#444444"/>
<path d="M941.7 565.6C962.1 541.2 984.7 512.8 1000.2 493.2C1017.9 470.7 1090.6 381.1 1122.4 353.7L1122.5 353.6L1122.6 353.7C1147.6 379.8 1153 407 1153.1 407.3C1152.9 408.2 1136.1 488.7 1074.6 564.7C1058.1 585.1 1029.2 617.2 1011.7 634.8L1011.6 634.9L941.7 565.6Z" fill="#8DB9E4"/>
<path d="M912.9 632C912.5 632 912 631.9 911.6 631.6C910.7 630.9 910.6 629.6 911.3 628.8L921.7 616C922.4 615.1 923.7 615 924.5 615.7C925.4 616.4 925.5 617.7 924.8 618.5L914.4 631.3C914.1 631.7 913.5 632 912.9 632Z" fill="#444444"/>
<path d="M905.1 667.9C904.6 667.9 904.2 667.7 903.8 667.4C903 666.7 902.9 665.4 903.6 664.6C916.9 649.4 935 628.2 943 618.7C943.7 617.9 945 617.8 945.8 618.5C946.6 619.2 946.7 620.5 946 621.3C938 630.8 919.9 652 906.6 667.2C906.2 667.7 905.7 667.9 905.1 667.9Z" fill="#444444"/>
<path d="M915.9 681C915.4 681 915 680.8 914.6 680.5C913.8 679.8 913.7 678.5 914.4 677.7L955.4 631.2C956.1 630.4 957.4 630.3 958.2 631C959 631.7 959.1 633 958.4 633.8L917.4 680.3C917 680.8 916.5 681 915.9 681Z" fill="#444444"/>
<path d="M933.9 684C933.4 684 932.9 683.8 932.5 683.5C931.7 682.7 931.6 681.5 932.4 680.7L967.1 643.4C967.9 642.6 969.1 642.5 969.9 643.3C970.7 644.1 970.8 645.3 970 646.1L935.3 683.4C935 683.8 934.4 684 933.9 684Z" fill="#444444"/>
<path d="M976.5 652.1C976 652.1 975.5 651.9 975.1 651.6L936.4 615.2C935.6 614.4 935.6 613.2 936.3 612.4C937.1 611.6 938.3 611.6 939.1 612.3L977.8 648.7C978.6 649.5 978.6 650.7 977.9 651.5C977.6 651.9 977 652.1 976.5 652.1Z" fill="#444444"/>
<path d="M1057.1 605.8L1057.2 605.5C1076.4 536.7 1125.2 357.7 1121.5 355.2V355V354.8L1184.7 354.9L1184.8 355C1185.4 356.1 1245.3 467.5 1265.5 605.5V605.7L1057.1 605.8Z" fill="#8DB9E4"/>
<path d="M1075.7 607.6C1075.5 607.6 1075.4 607.6 1075.2 607.5C1074.1 607.2 1073.5 606.2 1073.7 605.1L1086.9 550.6C1087.2 549.5 1088.2 548.9 1089.3 549.1C1090.4 549.4 1091 550.4 1090.8 551.5L1077.6 606C1077.4 607 1076.6 607.6 1075.7 607.6Z" fill="#444444"/>
<path d="M1106.8 607.6C1106.7 607.6 1106.5 607.6 1106.4 607.6C1105.3 607.4 1104.6 606.3 1104.8 605.2L1116.1 550.7C1116.3 549.6 1117.4 548.9 1118.5 549.1C1119.6 549.3 1120.3 550.4 1120.1 551.5L1108.8 606C1108.6 607 1107.7 607.6 1106.8 607.6Z" fill="#444444"/>
<path d="M1146.4 607.6C1146.3 607.6 1146.2 607.6 1146.1 607.6C1145 607.5 1144.2 606.5 1144.4 605.4L1151.2 550.9C1151.3 549.8 1152.3 549 1153.4 549.2C1154.5 549.3 1155.3 550.3 1155.1 551.4L1148.3 605.9C1148.3 606.9 1147.4 607.6 1146.4 607.6Z" fill="#444444"/>
<path d="M1133.7 680C1124.8 680 1122.3 676 1122 675.6L1121.4 674.5L1120.2 674.6C1119.7 674.6 1119.3 674.6 1118.9 674.6C1110.4 674.6 1109 668 1108.9 666.6L1108.7 665.4L1107.6 665C1107.2 664.8 1103.7 663.4 1102.4 660.2C1101.6 658.2 1101.7 655.9 1102.9 653.2L1103.5 651.8L1102.3 650.8C1101.4 650.1 1097.3 646.2 1101 638.7C1104.4 631 1120.7 617.6 1122.5 616.1L1124.9 614.1L1122.1 612.7C1121.3 612.3 1117.3 610.1 1116.8 606.6C1116.4 603.4 1119 599.5 1124.4 595.3C1133.7 588.1 1148.7 577.3 1168.9 563.2L1192 563.5L1228 635.6L1219.8 647.7C1214.3 650.7 1208.6 653.6 1202.9 656.3C1176.4 668.8 1155.3 676.4 1140.2 679.1C1137.9 679.8 1135.7 680 1133.7 680Z" fill="white"/>
<path d="M1169.5 565.5L1190.7 565.7L1225.6 635.7L1218.3 646.5C1212.9 649.4 1207.4 652.2 1201.9 654.8C1175.6 667.2 1154.6 674.8 1139.7 677.4C1137.5 677.8 1135.4 678 1133.6 678C1125.8 678 1123.8 674.7 1123.7 674.6L1122.5 672.4L1120 672.6C1119.6 672.6 1119.2 672.6 1118.8 672.6C1112.1 672.6 1110.9 667.8 1110.7 666.4L1110.4 664.1L1108.2 663.2C1108.1 663.2 1105.1 662 1104.1 659.5C1103.5 658 1103.6 656.3 1104.6 654.1L1105.8 651.3L1103.4 649.4C1102.5 648.6 1099.7 645.7 1102.6 639.8V639.7V639.6C1105.2 633.8 1117 623.2 1123.5 617.8L1128.3 613.9L1122.8 611.1C1121.4 610.4 1118.9 608.6 1118.6 606.5C1118.3 604 1120.7 600.7 1125.4 597C1134.8 590 1149.6 579.4 1169.5 565.5ZM1168.3 561.5C1147.8 575.8 1132.6 586.7 1123.2 594C1117.2 598.7 1114.4 603.1 1114.9 607.1C1115.5 611.6 1120.1 614.2 1121.3 614.8C1119.1 616.6 1102.8 630 1099.3 638C1094.9 646.9 1100.2 651.7 1101.1 652.5C1099.7 655.7 1099.5 658.5 1100.6 661C1102.2 664.9 1106.2 666.6 1106.9 666.9C1107.1 668 1108.6 676.6 1118.9 676.6C1119.4 676.6 1119.8 676.6 1120.3 676.5C1120.8 677.3 1123.9 681.9 1133.7 681.9C1135.8 681.9 1138.1 681.7 1140.5 681.3C1155.7 678.6 1177 670.9 1203.7 658.3C1209.6 655.5 1215.4 652.6 1221.2 649.4L1230.4 635.9L1193.3 561.6L1168.3 561.5Z" fill="#444444"/>
<path d="M1168.1 561.6L1168.3 561.5C1196.6 541.9 1225.9 522 1228.3 520.5L1154.7 368.5L1182.8 349.2L1182.9 349.3C1193.5 354.6 1233.1 385.8 1267.8 423.9C1298.8 457.9 1334.2 506.4 1327.3 544.6C1320.9 579.9 1286.2 614.3 1221.2 649.7L1221 649.8L1168.1 561.6Z" fill="#8DB9E4"/>
<path d="M1167 566.8C1166.4 566.8 1165.7 566.5 1165.4 565.9C1164.8 565 1165 563.7 1165.9 563.1C1166.5 562.7 1229.4 518.7 1243.5 507.4C1244.4 506.7 1245.6 506.8 1246.3 507.7C1247 508.6 1246.9 509.8 1246 510.5C1231.8 521.9 1168.8 565.9 1168.2 566.4C1167.8 566.7 1167.4 566.8 1167 566.8Z" fill="#444444"/>
<path d="M1228.5 522.5C1227.8 522.5 1227 522.1 1226.7 521.4L1183 431.6C1182.5 430.6 1182.9 429.4 1183.9 428.9C1184.9 428.4 1186.1 428.8 1186.6 429.8L1230.3 519.6C1230.8 520.6 1230.4 521.8 1229.4 522.3C1229.1 522.4 1228.8 522.5 1228.5 522.5Z" fill="#444444"/>
<path d="M1366.7 870.5C1348.4 870.5 1325.8 863.4 1299.3 849.4C1297.1 848.2 1294.7 847 1292.3 845.7C1260.5 828.6 1212.3 802.8 1188 822.4C1187.1 823.1 1185.9 823 1185.2 822.1C1184.5 821.2 1184.6 820 1185.5 819.3C1211.9 798 1261.4 824.6 1294.2 842.2C1296.6 843.5 1299 844.7 1301.2 845.9C1331.7 862.1 1357.6 868.9 1376.3 865.8C1377.4 865.6 1378.4 866.4 1378.6 867.4C1378.8 868.5 1378 869.5 1377 869.7C1373.8 870.2 1370.3 870.5 1366.7 870.5Z" fill="#444444"/>
<path d="M1065.9 577C1065.7 577 1065.6 577 1065.4 576.9C1064.3 576.6 1063.7 575.5 1064 574.4L1098.4 446.3C1098.7 445.2 1099.8 444.6 1100.9 444.9C1102 445.2 1102.6 446.3 1102.3 447.4L1067.9 575.5C1067.6 576.4 1066.8 577 1065.9 577Z" fill="#444444"/>
<path d="M1147.1 894.5C1147 894.5 1146.9 894.5 1146.8 894.5C1125 891.5 1112.1 879.6 1092.5 861.5C1074.6 844.9 1041.2 814 1003.4 822.8C1002.3 823 1001.2 822.4 1001 821.3C1000.8 820.2 1001.4 819.1 1002.5 818.9C1042.3 809.7 1076.7 841.5 1095.2 858.6C1114.2 876.2 1126.7 887.7 1147.3 890.6C1148.4 890.8 1149.2 891.8 1149 892.9C1148.9 893.8 1148.1 894.5 1147.1 894.5Z" fill="#444444"/>
<path d="M1124.3 617.2C1123.7 617.2 1123.1 616.9 1122.7 616.5C1122 615.6 1122.1 614.4 1123 613.7L1137.3 602.2C1138.2 601.5 1139.4 601.6 1140.1 602.5C1140.8 603.4 1140.7 604.6 1139.8 605.3L1125.5 616.8C1125.2 617.1 1124.7 617.2 1124.3 617.2Z" fill="#444444"/>
<path d="M1121.3 676.1C1120.4 676.1 1119.6 675.5 1119.3 674.5C1119.1 673.4 1119.7 672.4 1120.8 672.1C1146.1 666.5 1183 647.6 1183.4 647.4C1184.4 646.9 1185.6 647.3 1186.1 648.3C1186.6 649.3 1186.2 650.5 1185.2 651C1183.7 651.8 1147.4 670.4 1121.6 676.1C1121.6 676.1 1121.4 676.1 1121.3 676.1Z" fill="#444444"/>
<path d="M1108.8 667.5C1108 667.5 1107.2 667 1106.9 666.2C1106.5 665.2 1107.1 664 1108.1 663.7C1129.7 656.2 1172.3 631.6 1172.8 631.4C1173.8 630.8 1175 631.2 1175.5 632.1C1176.1 633.1 1175.7 634.3 1174.8 634.8C1173 635.8 1131.4 659.8 1109.5 667.5C1109.2 667.5 1109 667.5 1108.8 667.5Z" fill="#444444"/>
<path d="M1103.1 654.1C1102.4 654.1 1101.7 653.7 1101.3 653.1C1100.8 652.1 1101.1 650.9 1102.1 650.4C1102.4 650.2 1132 633.9 1160.3 615.1C1161.2 614.5 1162.5 614.7 1163.1 615.7C1163.7 616.6 1163.5 617.9 1162.5 618.5C1134.1 637.4 1104.4 653.8 1104.1 654C1103.8 654 1103.4 654.1 1103.1 654.1Z" fill="#444444"/>
<path d="M1179.3 359.3C1190.35 359.3 1199.3 350.346 1199.3 339.3C1199.3 328.254 1190.35 319.3 1179.3 319.3C1168.26 319.3 1159.3 328.254 1159.3 339.3C1159.3 350.346 1168.26 359.3 1179.3 359.3Z" fill="white"/>
<path d="M1179.3 321.3C1189.2 321.3 1197.3 329.4 1197.3 339.3C1197.3 349.2 1189.2 357.3 1179.3 357.3C1169.4 357.3 1161.3 349.2 1161.3 339.3C1161.3 329.4 1169.4 321.3 1179.3 321.3ZM1179.3 317.3C1167.2 317.3 1157.3 327.1 1157.3 339.3C1157.3 351.4 1167.1 361.3 1179.3 361.3C1191.5 361.3 1201.3 351.5 1201.3 339.3C1201.2 327.2 1191.4 317.3 1179.3 317.3Z" fill="#444444"/>
<path d="M1137.1 374.2C1121.8 374.2 1106.3 359 1098.6 336.3C1088.6 306.9 1091.9 279.3 1106.3 272.2C1111.9 269.4 1118.1 268 1124.6 268C1143.5 268 1159.8 279.8 1159.9 280C1169.9 287.7 1174.8 295.8 1175.8 306.3C1176.9 318.1 1173 332.9 1163.7 352.9C1157.2 366.7 1147.8 374.2 1137.1 374.2Z" fill="white"/>
<path d="M1124.5 266.1V270.1C1142.4 270.1 1157.9 281.2 1158.6 281.6C1175 294.2 1181.2 310.4 1161.7 352.1C1155.6 365 1146.9 372.2 1137 372.2C1122.5 372.2 1107.8 357.5 1100.4 335.7C1095.5 321.4 1093.7 307.1 1095.3 295.5C1096.8 284.7 1100.9 277.1 1107.1 274.1C1112.4 271.5 1118.3 270.1 1124.5 270.1V266.1ZM1124.5 266.1C1118.3 266.1 1111.8 267.3 1105.3 270.5C1090.2 278 1086.1 306.1 1096.6 337C1104.9 361.4 1121.3 376.2 1137 376.2C1147.7 376.2 1158 369.3 1165.3 353.8C1184.7 312.3 1180.2 293.2 1161 278.4C1161 278.5 1144.4 266.1 1124.5 266.1Z" fill="#444444"/>
<path d="M1150.1 312C1151.1 333.1 1169.3 344.9 1169.3 344.9C1182.4 313.4 1179.8 296.2 1166.5 283.1C1155.8 288.7 1149.3 300 1150.1 312Z" fill="#444444"/>
<path d="M1105.4 270.5C1096.4 274.9 1091.4 286.6 1090.9 301.7C1090.9 301.7 1097.8 301.9 1106.1 292.9C1118.5 279.5 1120.5 266.2 1120.5 266.2C1115.3 266.7 1110.1 268.1 1105.4 270.5Z" fill="#444444"/>
<path d="M1116.2 334.3C1115.9 334.3 1115.6 334.2 1115.3 334.1C1113.4 333.1 1111.9 331.7 1111 329.9C1109.6 327.2 1109.5 322.5 1110.7 312.6C1110.8 311.5 1111.8 310.7 1112.9 310.9C1114 311 1114.8 312 1114.6 313.1C1113.9 319.2 1113.3 325.7 1114.5 328C1115.1 329.1 1115.9 329.9 1117.2 330.6C1118.2 331.1 1118.5 332.3 1118 333.3C1117.6 333.9 1116.9 334.3 1116.2 334.3Z" fill="#444444"/>
<path d="M1127.6 320.4C1126.5 320.4 1125.6 319.5 1125.6 318.4V316.1C1125.6 315 1126.5 314.1 1127.6 314.1C1128.7 314.1 1129.6 315 1129.6 316.1V318.4C1129.6 319.5 1128.7 320.4 1127.6 320.4Z" fill="#444444"/>
<path d="M1102.3 314.8C1101.2 314.8 1100.3 313.9 1100.3 312.8V310.5C1100.3 309.4 1101.2 308.5 1102.3 308.5C1103.4 308.5 1104.3 309.4 1104.3 310.5V312.8C1104.3 313.9 1103.4 314.8 1102.3 314.8Z" fill="#444444"/>
<path d="M1123.7 345.9C1123.5 345.9 1123.4 345.9 1123.2 345.9C1122.6 345.9 1122.2 345.8 1121.7 345.7H1121.5C1120.4 345.5 1119.7 344.4 1119.9 343.3C1120.1 342.2 1121.2 341.5 1122.3 341.7H1122.5C1122.9 341.8 1123.1 341.8 1123.3 341.8C1126.4 341.9 1129 339.7 1129.1 336.6C1129.2 335.5 1130.1 334.6 1131.2 334.7C1132.3 334.8 1133.2 335.7 1133.1 336.8C1132.8 342 1128.8 345.9 1123.7 345.9Z" fill="#444444"/>
<path d="M1182.7 344C1182.4 344 1182.2 343.9 1181.9 343.8L1170 338.8C1169 338.4 1168.5 337.2 1168.9 336.2C1169.3 335.2 1170.5 334.7 1171.5 335.1L1183.4 340.1C1184.4 340.5 1184.9 341.7 1184.5 342.7C1184.2 343.5 1183.5 344 1182.7 344Z" fill="#444444"/>
<path d="M1107.37 311.336C1108.56 302.692 1103.68 294.876 1096.46 293.878C1089.23 292.88 1082.41 299.078 1081.22 307.722C1080.02 316.366 1084.91 324.183 1092.13 325.181C1099.35 326.179 1106.17 319.98 1107.37 311.336Z" stroke="#444444" stroke-width="4.0001" stroke-miterlimit="4.0001" stroke-linecap="round" stroke-linejoin="round"/>
<path d="M1145.21 313.53C1146.4 304.886 1141.51 297.069 1134.29 296.071C1127.07 295.073 1120.25 301.272 1119.05 309.916C1117.86 318.56 1122.74 326.376 1129.97 327.374C1137.19 328.372 1144.01 322.174 1145.21 313.53Z" stroke="#444444" stroke-width="4.0001" stroke-miterlimit="4.0001" stroke-linecap="round" stroke-linejoin="round"/>
<path d="M1146.2 312.1C1145.4 312.1 1144.6 311.6 1144.3 310.8C1143.9 309.8 1144.4 308.6 1145.5 308.2L1178.9 295.7C1182 294.5 1185.5 294.6 1188.6 296C1191.7 297.4 1194.1 300 1195.3 303.2C1195.9 304.9 1196.1 306.3 1196.1 307.6V309.1C1196.1 310.2 1195.2 311.1 1194.1 311.1C1193 311.1 1192.1 310.2 1192.1 309.1V307.6C1192.1 306.8 1191.9 305.7 1191.5 304.5C1190.7 302.4 1189.1 300.6 1186.9 299.6C1184.8 298.6 1182.4 298.6 1180.3 299.4L1146.9 311.9C1146.7 312.1 1146.4 312.1 1146.2 312.1Z" fill="#444444"/>
<path d="M1186.4 553.1H1072.6C1071.5 553.1 1070.6 552.2 1070.6 551.1C1070.6 550 1071.5 549.1 1072.6 549.1H1186.4C1187.5 549.1 1188.4 550 1188.4 551.1C1188.4 552.2 1187.5 553.1 1186.4 553.1Z" fill="#444444"/>
<path d="M1085.1 1035.2V1035C1090.8 1005.6 1114.7 983.8 1144.4 980.7H1144.6V980.9C1141.6 1013.1 1137.6 1034.8 1137.6 1035.1V1035.3L1085.1 1035.2Z" fill="#BD9FCE"/>
<path d="M1122 418.3C1121.9 418.3 1121.9 418.3 1121.8 418.3C1121.2 418.2 1120.6 417.9 1120.3 417.3L1096.7 378.1C1096.1 377.2 1096.4 375.9 1097.4 375.4C1098.3 374.8 1099.6 375.1 1100.1 376.1L1122.3 413L1141.9 391.9C1142.3 391.5 1142.8 391.2 1143.4 391.3C1144 391.3 1144.5 391.6 1144.9 392.1L1161.6 413.2L1203 363.4C1203.7 362.5 1205 362.4 1205.8 363.1C1206.6 363.8 1206.8 365.1 1206.1 365.9L1163.1 417.6C1162.7 418.1 1162.1 418.3 1161.5 418.3C1160.9 418.3 1160.3 418 1160 417.5L1143.2 396.3L1123.4 417.6C1123.1 418.1 1122.6 418.3 1122 418.3Z" fill="#444444"/>
<path d="M1037.8 936.7C1031.9 936.7 1027.7 934.7 1025.5 930.9V930.8C1025.5 930.7 1025.7 918.1 1044.7 903.9L1044.9 903.8L1062.4 930L1062.2 930.1C1062.1 930.1 1048.7 936.7 1037.8 936.7Z" fill="#444444"/>
<path d="M961.099 931.8C961.099 931.7 959.599 920 956.699 902.1V901.9H956.899C960.199 901.6 963.599 901.5 966.999 901.5C970.399 901.5 973.699 901.6 977.099 901.9C991.499 903.3 991.599 906.7 991.599 906.9C994.499 925 961.699 932 961.399 932H961.199L961.099 931.8Z" fill="#444444"/>
<path d="M1084.6 966.9L1079.7 957.5C1076.5 949.8 1071.2 940.4 1063.6 928.8L1046.4 903L1038.5 892L1158.8 874L1163.6 881.1C1188.9 927.6 1201 966.7 1206.6 991.4L1205.8 1001.3L1149.5 1021.6L1084.6 966.9Z" fill="white"/>
<path d="M1157.9 876.1L1161.9 882.1C1187 928.2 1198.9 967 1204.6 991.5L1203.9 999.8L1149.9 1019.3L1086.2 965.8L1081.5 956.8C1078.2 949 1072.9 939.5 1065.2 927.8L1048 902V901.9V901.8L1042 893.5L1157.9 876.1ZM1159.8 871.7L1035 890.5L1044.7 904.1L1061.9 929.9C1069.4 941.4 1074.7 950.7 1077.9 958.4L1083 968.2L1149.1 1023.7L1207.7 1002.6L1208.6 991.2C1203 966.4 1190.9 926.9 1165.3 880L1159.8 871.7Z" fill="#444444"/>
<path d="M1055.6 1035.2V1035C1054.6 1021.9 1061.6 1011.8 1068.5 1002C1074.6 993.2 1081 984.1 1081.4 972.8C1081.5 969.2 1080.3 964.3 1077.8 958.3L1077.7 958H1078C1111.5 962.4 1139.6 984.8 1151.3 1016.4C1166.6 1001.4 1186.9 992.3 1208.3 990.9H1208.5V991.1C1214.7 1018.5 1214.7 1034.8 1214.7 1034.9V1035.1L1055.6 1035.2Z" fill="#FC3E48"/>
<path d="M845.799 963.4L844.399 955.2C845.799 946.6 847.599 933.4 849.899 915.9L854.199 895L952.499 882L955.099 902.2C957.999 920.3 959.499 931.8 959.499 931.9C961.899 951.4 963.499 971.2 964.199 990.9L962.899 1002L899.099 1021.4L845.799 963.4Z" fill="white"/>
<path d="M950.799 884.3L953.199 902.5V902.6V902.7C955.999 920.5 957.499 932.2 957.599 932.3C959.999 951.7 961.599 971.4 962.299 990.9L961.199 1000.5L899.899 1019.2L847.799 962.5L846.599 955.2C847.999 946.6 849.799 933.5 851.999 916.3L855.999 896.9L950.799 884.3ZM954.199 879.9L852.499 893.3L847.899 915.6C845.599 933.4 843.699 946.7 842.399 955.2L843.899 964.3L898.499 1023.7L964.699 1003.5L966.199 991C965.499 971.3 963.899 951.3 961.399 931.7C961.399 931.6 959.899 919.9 956.999 902L954.199 879.9Z" fill="#444444"/>
<path d="M802.199 1035.2V1035C803.199 1018.6 810.499 1010.6 818.999 1001.2C826.699 992.7 835.399 983.1 840.499 965.1C840.999 963.5 841.599 960.1 842.399 955.1V954.9L842.599 955C870.899 964.1 892.899 986.5 901.599 1014.9C918.299 999.3 940.099 990.8 962.999 990.8H963.099C964.099 990.8 964.999 990.8 965.999 990.9H966.199V991.1C967.199 1017.9 966.099 1034.9 966.099 1035.1V1035.3H802.199V1035.2Z" fill="#FC3E48"/>
<path d="M1025.6 930.9C1013.7 903.3 999.799 869.2 998.899 866.9L982.999 866C986.799 884.1 991.599 906.9 991.599 906.9C984.299 899.2 956.799 902.4 956.799 902.4C948.299 903.4 937.999 905.8 927.099 908.5C915.599 911.3 903.699 914.1 891.899 915.8C884.399 916.8 876.799 917.3 869.299 917.3C862.299 917.3 855.299 916.9 848.399 916L847.899 915.9V915.7C863.799 792.9 897.499 485.4 897.799 482.3V482.1L942.599 479.2L942.699 479.3C942.899 479.8 963.499 532.8 993.899 597.6C1021.9 657.3 1064.1 739.5 1106.2 792C1128.4 819.4 1148.3 849.1 1165.3 880L1165.4 880.2L1159.1 883.2C1148.8 887.2 1133.3 891.9 1104.8 891.9C1102.4 891.9 1099.9 891.9 1097.4 891.8C1096.2 891.8 1095 891.8 1093.8 891.8C1068 891.8 1050.8 899.8 1045.1 904.1C1045.2 904 1027.7 916.2 1025.6 930.9Z" fill="#46B160"/>
<path d="M1003.3 884.7C999.9 884.7 996.5 884.5 993.2 884.1C977.5 882.2 964.2 878.3 951.3 874.5C936.1 870.1 921.8 865.9 906.2 865.9C872.2 865.9 853.1 878.2 852.9 878.3L852.5 878.5L852.6 878.1C865 778 882.8 618.7 892.3 532.6V532.4H932.2L1063.3 863.9L1063.2 864C1062.9 864.2 1037.3 884.7 1003.3 884.7C1003.4 884.7 1003.3 884.7 1003.3 884.7Z" fill="#FC3E48"/>
<path d="M950.1 580.3H887.1C886 580.3 885.1 579.4 885.1 578.3C885.1 577.2 886 576.3 887.1 576.3H950.1C951.2 576.3 952.1 577.2 952.1 578.3C952.1 579.4 951.2 580.3 950.1 580.3Z" fill="#444444"/>
<path d="M975.7 646.1H880C878.9 646.1 878 645.2 878 644.1C878 643 878.9 642.1 880 642.1H975.7C976.8 642.1 977.7 643 977.7 644.1C977.7 645.2 976.8 646.1 975.7 646.1Z" fill="#444444"/>
<path d="M1002.2 712H872.6C871.5 712 870.6 711.1 870.6 710C870.6 708.9 871.5 708 872.6 708H1002.2C1003.3 708 1004.2 708.9 1004.2 710C1004.2 711.1 1003.3 712 1002.2 712Z" fill="#444444"/>
<path d="M1028.2 777.8H865C863.9 777.8 863 776.9 863 775.8C863 774.7 863.9 773.8 865 773.8H1028.2C1029.3 773.8 1030.2 774.7 1030.2 775.8C1030.2 776.9 1029.3 777.8 1028.2 777.8Z" fill="#444444"/>
<path d="M1054.3 843.7H857.199C856.099 843.7 855.199 842.8 855.199 841.7C855.199 840.6 856.099 839.7 857.199 839.7H1054.3C1055.4 839.7 1056.3 840.6 1056.3 841.7C1056.3 842.8 1055.4 843.7 1054.3 843.7Z" fill="#444444"/>
<path d="M914.399 868.1C913.299 868.1 912.399 867.2 912.399 866.1V532.9C912.399 531.8 913.299 530.9 914.399 530.9C915.499 530.9 916.399 531.8 916.399 532.9V866.1C916.399 867.2 915.499 868.1 914.399 868.1Z" fill="#444444"/>
<path d="M980.199 885C979.099 885 978.199 884.1 978.199 883V649.6C978.199 648.5 979.099 647.6 980.199 647.6C981.299 647.6 982.199 648.5 982.199 649.6V883C982.199 884.1 981.299 885 980.199 885Z" fill="#444444"/>
<path d="M1046.1 876.1C1045 876.1 1044.1 875.2 1044.1 874.1V820.8C1044.1 819.7 1045 818.8 1046.1 818.8C1047.2 818.8 1048.1 819.7 1048.1 820.8V874.1C1048.1 875.2 1047.2 876.1 1046.1 876.1Z" fill="#444444"/>
<path d="M780 640.3V640.1C780 589.4 810.3 548.1 847.6 548.1C884.9 548.1 915.2 589.4 915.2 640.1V640.3H780Z" fill="#46B160"/>
<path d="M844.9 610.9C841.6 610.9 838.6 609.4 836.2 606.6C833.1 602.9 828.3 593.8 831.4 573.8C818.6 588.5 808 591.6 801.4 591.6C795.3 591.6 791.8 589 791.6 588.9L791.5 588.8L791.6 588.7C804.2 563.3 825.2 548.1 847.7 548.1C868 548.1 887 560.3 899.9 581.6L900 581.7L899.9 581.8C899.9 581.9 894.8 588 885.3 588C879.4 588 873 585.7 866.4 581.1C863.8 595.5 856.2 610.9 844.9 610.9Z" fill="#FC3E48"/>
<path d="M847.6 548.3C854.227 548.3 859.6 542.927 859.6 536.3C859.6 529.672 854.227 524.3 847.6 524.3C840.972 524.3 835.6 529.672 835.6 536.3C835.6 542.927 840.972 548.3 847.6 548.3Z" fill="#444444"/>
<path d="M932 640.1H763.1C762 640.1 761.1 639.2 761.1 638.1C761.1 637 762 636.1 763.1 636.1H932C933.1 636.1 934 637 934 638.1C934 639.2 933.1 640.1 932 640.1Z" fill="#444444"/>
<path d="M932 699.5C913.3 698.6 895.2 695.7 895 695.7C894.4 695.6 880.5 693.5 866.7 689C849 683.2 839.8 676.3 840.1 669V668L839.4 667.4C838.5 666.7 831.1 660.1 834.2 651.4L834.6 650.3L833.8 649.4C833.5 649.1 830.7 646 830.9 642.1C831 639.3 832.6 636.6 835.6 634L836.6 633.1L836.2 631.8C836 631.2 834.5 626 836.9 622.7C838.3 620.7 841 619.7 844.8 619.7C845.7 619.7 846.7 619.8 847.7 619.9C862.2 621.5 868.6 622.1 870.3 622.2L874.1 622.5L872.2 619.2C871.5 618 868.2 611.7 872.1 608.1C873.5 606.9 875.2 606.2 877.1 606.2L925 605.5L943.9 608.1L951.3 699.4L932 699.5Z" fill="white"/>
<path d="M924.7 607.5L941.9 609.9L948.999 697.4H932.2C913.7 696.5 895.6 693.7 895.4 693.6C895.3 693.6 881.1 691.4 867.4 686.9C850.9 681.5 841.9 675.1 842.2 668.9L842.299 667L840.799 665.7C840.599 665.5 838.6 663.8 837.2 661.2C835.5 658.1 835.199 655 836.299 651.9L837.099 649.6L835.4 647.8C835.3 647.7 832.899 645.1 832.999 642C833.099 639.8 834.399 637.5 836.999 635.3L838.999 633.6L838.2 631.1C837.7 629.5 837.099 625.8 838.599 623.7C839.599 622.3 841.699 621.6 844.799 621.6C845.599 621.6 846.499 621.7 847.499 621.8C861.999 623.4 868.499 624 870.099 624.1L877.7 624.7L873.9 618.1C873.3 617.1 870.6 612.1 873.4 609.5C874.4 608.6 875.699 608.1 877.099 608.1L924.7 607.5ZM924.999 603.5L876.999 604.2C874.699 604.2 872.4 605.1 870.7 606.6C865.7 611.2 869.499 618.5 870.499 620.1C868.999 620 862.599 619.4 847.999 617.8C846.899 617.7 845.8 617.6 844.9 617.6C840.4 617.6 837.2 618.9 835.4 621.4C832.5 625.5 834.1 631.3 834.4 632.3C831 635.2 829.199 638.5 828.999 641.9C828.799 646.5 831.899 650 832.499 650.6C828.999 660.6 837.299 668 838.299 668.8C837.999 677.2 847.399 684.6 866.299 690.8C880.399 695.4 894.8 697.6 894.9 697.6C895.1 697.6 913.3 700.5 932.2 701.4H953.499L945.799 606.4L924.999 603.5Z" fill="#444444"/>
<path d="M923.6 735C922.5 735 921.5 735 920.5 734.9C912.5 733.3 907.7 725.2 905 718.7C901.9 711.2 900.5 702.7 900.6 698.2V698H900.8C908.4 699 919.9 700.3 931.8 700.9C931.9 699.1 932.3 684.7 927 658.1C919.7 621.5 924.7 603.7 924.7 603.5V603.4L992.8 602.4L939.3 485.9L952.8 456L953 456.1C1012.1 488.6 1065.2 550 1079.1 602.2C1085.8 627.4 1083.6 649.5 1072.6 667.7C1064.7 680.7 1045.6 699.8 999.5 717.2C969.1 729 938.3 735 923.6 735Z" fill="#46B160"/>
<path d="M1004.3 717.4C1003.5 717.4 1002.7 716.9 1002.4 716.1C1002 715.1 1002.5 713.9 1003.5 713.5C1017 708.3 1030 701.7 1042.3 694C1043.2 693.4 1044.5 693.7 1045.1 694.6C1045.7 695.5 1045.4 696.8 1044.5 697.4C1032 705.2 1018.8 711.9 1005.1 717.3C1004.8 717.4 1004.5 717.4 1004.3 717.4Z" fill="#444444"/>
<path d="M920.5 734.9C905.6 731.9 900.3 706.1 900.6 698.3V698.1H900.8C908.4 699.1 920 700.5 932 701.1H932.2V701.3C932.2 701.4 932.2 714.8 928.4 724.3C924.7 733.5 920.8 734.9 920.5 734.9Z" fill="#444444"/>
<path d="M889 625.8C888.9 625.8 888.9 625.8 888.8 625.8L866.8 623.9C865.7 623.8 864.9 622.8 865 621.7C865.1 620.6 866.1 619.8 867.2 619.9L889.2 621.8C890.3 621.9 891.1 622.9 891 624C890.9 625 890 625.8 889 625.8Z" fill="#444444"/>
<path d="M900.5 645C887.6 645 841.9 638.5 835.5 635.2C834.5 634.7 834.1 633.5 834.6 632.5C835.1 631.5 836.3 631.1 837.3 631.6C842.6 634.3 887.5 641 900.5 641C901.6 641 902.5 641.9 902.5 643C902.5 644.1 901.6 645 900.5 645Z" fill="#444444"/>
<path d="M900.5 664.1C900.5 664.1 900.4 664.1 900.5 664.1C877.6 663.1 840.1 654.6 833.9 652.5C832.9 652.2 832.3 651 832.6 650C832.9 649 834.1 648.4 835.1 648.7C841.2 650.7 878.1 659.1 900.6 660.1C901.7 660.1 902.6 661.1 902.5 662.2C902.5 663.3 901.6 664.1 900.5 664.1Z" fill="#444444"/>
<path d="M901.399 681.3C901.299 681.3 901.299 681.3 901.199 681.3C881.799 679.4 847.299 672.6 839.499 669.7C838.499 669.3 837.899 668.2 838.299 667.1C838.699 666.1 839.799 665.5 840.899 665.9C848.299 668.7 882.799 675.4 901.599 677.3C902.699 677.4 903.499 678.4 903.399 679.5C903.299 680.5 902.399 681.3 901.399 681.3Z" fill="#444444"/>
<path d="M931.999 534.6C931.399 534.6 930.899 534.4 930.499 533.9C929.799 533.1 929.899 531.8 930.699 531.1L989.099 480.8C989.899 480.1 991.199 480.2 991.899 481C992.599 481.8 992.499 483.1 991.699 483.8L933.299 534.1C932.899 534.4 932.499 534.6 931.999 534.6Z" fill="#444444"/>
<path d="M922.399 607.6C921.299 607.6 920.399 606.7 920.399 605.6C920.399 604.5 921.299 603.6 922.399 603.6C963.899 603.6 1014.5 598.9 1015 598.8C1016.1 598.7 1017.1 599.5 1017.2 600.6C1017.3 601.7 1016.5 602.7 1015.4 602.8C1014.9 602.8 964.099 607.6 922.399 607.6Z" fill="#444444"/>
<path d="M993.199 603.8C992.499 603.8 991.699 603.4 991.399 602.7L969.899 557.2C969.399 556.2 969.899 555 970.899 554.5C971.899 554 973.099 554.5 973.599 555.5L995.099 601C995.599 602 995.099 603.2 994.099 603.7C993.799 603.7 993.499 603.8 993.199 603.8Z" fill="#444444"/>
<path d="M961.8 477C950.8 477 941.8 468 941.8 457C941.8 446 950.8 437 961.8 437C972.8 437 981.8 446 981.8 457C981.8 468.1 972.8 477 961.8 477Z" fill="white"/>
<path d="M961.8 439.1C971.7 439.1 979.8 447.2 979.8 457.1C979.8 467 971.7 475.1 961.8 475.1C951.9 475.1 943.8 467 943.8 457.1C943.9 447.2 951.9 439.1 961.8 439.1ZM961.8 435.1C949.7 435.1 939.8 444.9 939.8 457.1C939.8 469.2 949.6 479.1 961.8 479.1C974 479.1 983.8 469.3 983.8 457.1C983.8 444.9 973.9 435.1 961.8 435.1Z" fill="#444444"/>
<path d="M920.699 495.4C905.799 495.4 890.299 481.8 881.099 460.7C868.699 432.2 869.799 404.5 883.499 396.2C889.899 392.3 897.199 390.4 905.299 390.4C922.599 390.4 937.399 399.5 937.599 399.6C948.199 406.4 953.699 414.1 955.599 424.5C957.699 436.1 954.999 451.2 947.299 472C941.699 487.1 932.199 495.4 920.699 495.4Z" fill="white"/>
<path d="M905.3 392.4C921.7 392.4 935.9 400.9 936.5 401.3C953.9 412.5 961.4 428.2 945.4 471.3C940.1 485.5 931.3 493.4 920.7 493.4C906.6 493.4 891.8 480.3 883 459.9C877 446.1 874 432 874.6 420.2C875.2 409.3 878.7 401.4 884.6 397.9C890.7 394.3 897.7 392.4 905.3 392.4ZM905.3 388.4C897.9 388.4 890 390 882.5 394.5C868 403.2 866.2 431.5 879.3 461.5C889.1 484.1 905.6 497.4 920.7 497.4C932.1 497.4 942.8 489.8 949.1 472.7C965 429.8 959 411.1 938.6 397.9C938.7 397.9 923.4 388.4 905.3 388.4Z" fill="#444444"/>
<path d="M938.699 397.9C957.799 410.3 964.299 427.5 951.899 464.9C951.899 464.9 928.499 449.9 928.499 405.2C914.499 417.9 884.199 425.2 870.899 416.4C872.099 406.2 875.999 398.4 882.499 394.5C908.299 379 938.699 397.9 938.699 397.9Z" fill="#444444"/>
<path d="M898.3 457.2C898.1 457.2 897.8 457.2 897.6 457.1C895.7 456.4 894.1 455 893 453.2C891.4 450.5 891 445.9 891.3 436.1C891.3 435 892.2 434.1 893.4 434.2C894.5 434.2 895.4 435.2 895.3 436.3C895 445 895.4 449.4 896.4 451.2C897 452.2 898 453 899.1 453.5C900.1 453.9 900.6 455.1 900.2 456.1C899.8 456.7 899.1 457.2 898.3 457.2Z" fill="#444444"/>
<path d="M908.6 442.5C907.6 442.5 906.7 441.7 906.6 440.7L906.4 438.4C906.3 437.3 907.1 436.3 908.2 436.2C909.3 436.1 910.3 436.9 910.4 438L910.6 440.3C910.7 441.4 909.9 442.4 908.8 442.5C908.7 442.5 908.7 442.5 908.6 442.5Z" fill="#444444"/>
<path d="M882.9 439C881.9 439 881 438.2 880.9 437.2L880.7 434.9C880.6 433.8 881.4 432.8 882.5 432.7C883.6 432.6 884.6 433.4 884.7 434.5L884.9 436.8C885 437.9 884.2 438.9 883.1 439C883 439 883 439 882.9 439Z" fill="#444444"/>
<path d="M906.4 468.2C905.9 468.2 905.3 468.2 904.7 468.1C903.6 467.9 902.899 466.8 903.099 465.7C903.299 464.6 904.4 463.9 905.5 464.1C905.8 464.2 906 464.2 906.5 464.2C907.9 464.2 909.2 463.6 910.2 462.5C911.2 461.4 911.699 460 911.599 458.6C911.499 457.5 912.4 456.6 913.5 456.5C914.6 456.4 915.499 457.3 915.599 458.4C915.699 460.9 914.799 463.4 913.099 465.2C911.399 467 909.1 468.1 906.5 468.2C906.5 468.2 906.5 468.2 906.4 468.2Z" fill="#444444"/>
<path d="M965.6 461.2C965.4 461.2 965.3 461.2 965.1 461.1L952.6 458C951.5 457.7 950.9 456.6 951.1 455.6C951.4 454.5 952.5 453.9 953.5 454.1L966 457.2C967.1 457.5 967.7 458.6 967.5 459.6C967.3 460.6 966.5 461.2 965.6 461.2Z" fill="#444444"/>
<path d="M954.999 400.9C983.497 400.9 1006.6 377.798 1006.6 349.3C1006.6 320.802 983.497 297.7 954.999 297.7C926.501 297.7 903.399 320.802 903.399 349.3C903.399 377.798 926.501 400.9 954.999 400.9Z" fill="#444444"/>
<path d="M904.299 1037C903.199 1037 902.299 1036.1 902.299 1035C902.199 1028.7 901.299 1022.3 899.599 1015.8C899.299 1014.7 899.999 1013.6 900.999 1013.4C902.099 1013.1 903.199 1013.8 903.399 1014.8C905.199 1021.6 906.199 1028.4 906.299 1035C906.299 1036.1 905.399 1037 904.299 1037Z" fill="#444444"/>
<path d="M1154.8 1037C1153.8 1037 1152.9 1036.2 1152.8 1035.2C1152.1 1029.3 1151 1023.3 1149.4 1017.4C1149.1 1016.3 1149.7 1015.2 1150.8 1014.9C1151.9 1014.6 1153 1015.2 1153.3 1016.3C1155 1022.4 1156.2 1028.6 1156.9 1034.7C1157 1035.8 1156.2 1036.8 1155.1 1036.9C1155 1037 1154.9 1037 1154.8 1037Z" fill="#444444"/>
<path d="M1090.8 1005.4C1090.6 1005.4 1090.3 1005.4 1090.1 1005.3L1071.7 998.6C1070.7 998.2 1070.1 997.1 1070.5 996C1070.9 995 1072 994.4 1073.1 994.8L1091.5 1001.5C1092.5 1001.9 1093.1 1003 1092.7 1004.1C1092.4 1004.9 1091.6 1005.4 1090.8 1005.4Z" fill="#444444"/>
<path d="M848.099 1005.4C847.699 1005.4 847.299 1005.3 846.999 1005.1L827.499 991.8C826.599 991.2 826.399 989.9 826.999 989C827.599 988.1 828.899 987.9 829.799 988.5L849.299 1001.8C850.199 1002.4 850.399 1003.7 849.799 1004.6C849.399 1005.1 848.699 1005.4 848.099 1005.4Z" fill="#444444"/>
<path d="M991.1 483.6C990.9 483.6 990.8 483.6 990.6 483.5C989.7 483.3 989.1 482.4 989.1 481.5L992.2 415.1V415V414.9C992.3 413.9 992.4 412.7 992.8 411.5C993.9 407.3 996.7 403.8 1000.5 401.6C1004.3 399.4 1008.8 398.8 1013 400L1013.4 400.1C1014.7 400.5 1015.8 400.9 1016.8 401.5C1020.7 403.5 1023.5 407 1024.8 411.2C1026.1 415.4 1025.7 419.9 1023.7 423.8L992.9 482.6C992.5 483.2 991.8 483.6 991.1 483.6ZM996.2 415.3L993.5 472.6L1020.1 421.8C1021.6 418.8 1022 415.4 1021 412.2C1020 409 1017.8 406.4 1014.9 404.9C1014.1 404.5 1013.3 404.1 1012.4 403.8L1012.1 403.7C1008.9 402.8 1005.5 403.3 1002.6 404.9C999.7 406.6 997.6 409.3 996.7 412.5C996.4 413.4 996.3 414.4 996.2 415.3Z" fill="#444444"/>
<path d="M991.199 483.7C990.399 483.7 989.699 483.2 989.299 482.5C988.899 481.6 989.199 480.6 989.999 480.1L1033.3 450.3C1034.2 449.7 1035 449.2 1035.9 448.9C1042.8 446.2 1050.7 449.6 1053.5 456.4V456.5L1053.6 456.8C1053.9 457.6 1054.2 458.5 1054.4 459.5C1055 463 1054.2 466.6 1052.1 469.5C1050 472.4 1046.9 474.4 1043.3 474.9L991.399 483.6C991.399 483.7 991.299 483.7 991.199 483.7ZM1040.9 451.9C1039.7 451.9 1038.6 452.1 1037.4 452.6C1036.8 452.8 1036.2 453.1 1035.6 453.6L999.699 478.3L1042.7 471.1C1045.2 470.7 1047.4 469.3 1048.9 467.3C1050.4 465.2 1050.9 462.7 1050.5 460.2V460.1C1050.4 459.5 1050.2 458.9 1049.9 458.2L1049.8 457.9C1048.3 454.1 1044.7 451.9 1040.9 451.9Z" fill="#444444"/>
<path d="M323.7 930.7C323.8 930.5 332.5 909.3 346.7 880V879.9H346.8C346.9 879.8 361.1 871.7 375.4 871.7C377.5 871.7 379.5 871.9 381.3 872.2C397.6 875.1 395.8 887.6 395.8 887.7C379.7 924.7 324.5 930.8 323.9 930.9H323.6L323.7 930.7Z" fill="#444444"/>
<path d="M404.9 975.2C404.5 975.2 404 975.2 403.6 975.2L321 969.8C320.1 969.7 319.4 969.1 319.2 968.3C319 967.4 319.4 966.6 320.2 966.1L391.9 925C398.1 921.4 405.4 920.5 412.3 922.4C419.3 924.3 425.1 928.7 428.6 935C429.8 936.9 430.7 939.2 431.4 942C434.8 956.4 426 971 411.6 974.5C409.6 975 407.3 975.2 404.9 975.2ZM327.9 966.2L403.8 971.2C406.2 971.3 408.6 971.1 410.7 970.6C422.9 967.6 430.5 955.1 427.5 942.9C426.9 940.5 426.1 938.6 425.1 937C422.1 931.7 417.1 927.9 411.2 926.3C405.3 924.7 399.1 925.5 393.8 928.5L327.9 966.2Z" fill="#444444"/>
<path d="M377.4 997.6C360.5 997.6 352.8 989.8 345.8 982.7C339.5 976.3 333.6 970.3 321.4 970.1C320.3 970.1 319.4 969.2 319.4 968.1C319.4 967 320.3 966.1 321.4 966.1C335.2 966.3 342 973.2 348.6 979.9C357 988.4 364.9 996.4 387.4 992.8C388.5 992.6 389.5 993.4 389.7 994.5C389.9 995.6 389.1 996.6 388 996.8C384.2 997.3 380.6 997.6 377.4 997.6Z" fill="#444444"/>
<path d="M462.3 1035.2V1035C457 1003.5 453.7 971.4 452.4 939.5L454.6 923.9L568.9 859.6L565.9 873.4C563.1 897 562.1 915.3 562.1 915.4C562.1 915.8 559.6 952.7 575.5 976.5C582.3 986.8 588.6 993.4 594.1 999.2C603.9 1009.6 610.5 1016.5 611.3 1035V1035.2H462.3Z" fill="#46B160"/>
<path d="M452.5 939.5C452.1 929.1 451.8 918.7 451.8 908.7C451.8 889.2 453.4 871.4 455 852.6C457.6 823.2 460.2 792.7 456.6 754.8C450.7 693.8 418.7 593.3 418.4 592.3L418.3 592H536.3L542.9 605.5C543.4 607 591.1 753.3 606.2 880C607.2 904.8 562.5 915.5 562.1 915.6L561.8 915.7V915.4C561.8 915.2 562.8 897.1 565.6 873.7C563.4 874.7 550 881.1 534.4 899.3C520.2 915.9 506.7 925.9 489.4 932.8C473.7 939.1 452.9 939.7 452.7 939.7H452.5V939.5Z" fill="#FC3E48"/>
<path d="M561.8 915.5C561.8 915.3 562.8 897.1 565.6 873.4V873.3H565.7C572.2 870.7 579.1 869.3 586.1 869.3C587.3 869.3 588.5 869.3 589.7 869.4C605 870.5 606.1 880 606.1 880.1C607.1 904.9 562.4 915.6 562 915.7L561.7 915.8L561.8 915.5Z" fill="#444444"/>
<path d="M565.2 950H540.9C539.8 950 538.9 949.1 538.9 948C538.9 946.9 539.8 946 540.9 946H565.2C566.3 946 567.2 946.9 567.2 948C567.2 949.1 566.3 950 565.2 950Z" fill="#444444"/>
<path d="M545.701 975.8C544.801 975.8 544.001 975.2 543.801 974.3C543.501 973.2 544.101 972.1 545.201 971.8L569.101 965.1C570.201 964.8 571.301 965.4 571.601 966.5C571.901 967.6 571.301 968.7 570.201 969L546.301 975.7C546.101 975.8 545.901 975.8 545.701 975.8Z" fill="#444444"/>
<path d="M560.001 998.7C559.401 998.7 558.801 998.4 558.401 997.9C557.801 997 558.001 995.8 558.901 995.1L578.201 981.2C579.101 980.6 580.301 980.8 581.001 981.7C581.601 982.6 581.401 983.8 580.501 984.5L561.201 998.4C560.801 998.6 560.401 998.7 560.001 998.7Z" fill="#444444"/>
<path d="M462.3 1035.2V1035C462.3 1034.8 458.1 1011.8 455 978V977.8H455.2C486.6 981.1 512 1004.1 518.5 1034.9L518.6 1035.1L462.3 1035.2Z" fill="#FC3E48"/>
<path d="M570.1 968.6C569.5 968.6 568.8 968.3 568.5 967.8C568 967.1 568 966.1 568.6 965.4L619.5 900.2C628.7 888.5 645.6 886.5 657.3 895.6C659.3 897.1 661 898.9 662.6 901.1C671.2 913.1 668.5 929.9 656.5 938.7C654.5 940.2 652 941.5 649.3 942.4L570.8 968.6C570.5 968.6 570.3 968.6 570.1 968.6ZM640.7 893.9C633.9 893.9 627.1 896.9 622.6 902.7L575.8 962.7L648 938.6C650.4 937.8 652.4 936.8 654.1 935.5C664.3 928 666.7 913.7 659.3 903.5C658 901.6 656.5 900.1 654.8 898.8C650.6 895.4 645.6 893.9 640.7 893.9Z" fill="#444444"/>
<path d="M630.201 998.9C629.001 998.9 627.901 998.8 626.701 998.6C624.901 998.3 623.001 997.6 621.201 996.7L569.401 969.5C568.601 969.1 568.201 968.2 568.401 967.4C568.601 966.5 569.301 965.9 570.201 965.8L628.301 959.8C639.001 958.7 648.701 966.5 649.801 977.3C650.001 979.1 649.901 980.8 649.601 982.9C648.701 988 645.801 992.5 641.601 995.5C638.101 997.7 634.201 998.9 630.201 998.9ZM577.101 969L623.001 993.1C624.501 993.8 626.001 994.3 627.401 994.6C631.501 995.3 635.701 994.4 639.101 992C642.501 989.6 644.801 986.1 645.501 982C645.801 980.4 645.801 979 645.701 977.6C644.801 969 637.101 962.8 628.601 963.7L577.101 969Z" fill="#444444"/>
<path d="M179.2 1035.2V1035C181.3 993.9 186.8 961.6 196.9 930.2L212.7 903.9L364.4 847.3L346.9 880.3C332.7 909.6 324 930.8 324 931C323.9 931.3 310.2 963.3 327.8 985.3C329.6 987.6 331.5 989.8 333.2 992C346.1 1007.8 355.4 1019.2 353.8 1035.2V1035.4H179.2V1035.2Z" fill="#46B160"/>
<path d="M219 933.1C204.5 933.1 197.2 930.4 197.1 930.4L196.9 930.3L197 930.1C209.2 892.5 227.4 857.8 253.9 809.1C294.5 734.4 314.9 696.9 334.6 605.5L337.1 593.9L445.5 586.2V586.4C445.4 587.3 437.2 674.1 425.4 752.8C411.2 847.4 395.9 887.3 395.7 887.7C395.2 867.3 367.5 869 346.3 880.4C343.1 882.1 326.2 891.2 305.7 904C283.9 917.6 259.5 928.1 243.5 930.8C234.9 932.4 226.6 933.1 219 933.1Z" fill="#FC3E48"/>
<path d="M437.6 660.6C437.5 660.6 437.4 660.6 437.4 660.6C436.3 660.5 435.5 659.5 435.6 658.4C440.3 617.4 443.3 586.6 443.3 586.3C443.4 585.2 444.4 584.4 445.5 584.5C446.6 584.6 447.4 585.6 447.3 586.7C447.3 587 444.3 617.8 439.6 658.8C439.5 659.8 438.6 660.6 437.6 660.6Z" fill="#444444"/>
<path d="M264.5 926.7C264.3 926.7 264.1 926.7 263.9 926.6C262.8 926.3 262.3 925.1 262.6 924.1C279.5 872.1 296.6 833.1 313.1 795.4C338.5 737.4 362.5 682.7 381.1 589.9C381.3 588.8 382.4 588.1 383.5 588.3C384.6 588.5 385.3 589.6 385.1 590.7C366.4 683.9 342.3 738.9 316.8 797C300.3 834.6 283.2 873.5 266.4 925.3C266.1 926.2 265.3 926.7 264.5 926.7Z" fill="#444444"/>
<path d="M179.2 1035.2V1035C180.1 1015.7 182.1 996.2 185.4 977.2V977L185.6 977.1C213 985.2 234.6 1007.4 241.9 1035.1L242 1035.4H179.2V1035.2Z" fill="#FC3E48"/>
<path d="M662.4 695.2C658 695.2 654 693.2 652.1 692C643.5 696.6 623.3 690 576.5 637.4L576.3 637.1L570 626.3L640.2 562L652.9 569.7L653.1 570C672.5 596.1 687.5 616.4 689.4 621.1C691.2 625.5 691.2 629.2 689.3 632C687.4 634.9 684.1 636.2 681.5 636.8C684.3 640.7 689.5 648.3 693.3 654.6C696.1 659.4 696.6 664.9 694.5 669.4C693 672.5 690.5 674.8 687.3 675.9C688.4 681.2 686.2 684.6 684.6 686.3C681.7 689.2 677.2 690.6 673.1 689.8C670.9 692.6 668.1 694.4 664.9 695C664 695.2 663.2 695.2 662.4 695.2ZM652.1 687.2L653.3 688.1C653.4 688.1 658.8 692.1 664.2 691.1C666.8 690.6 668.9 689.1 670.6 686.5L671.4 685.2L672.8 685.7C675.8 686.7 679.5 685.7 681.7 683.5C683.7 681.4 684.1 678.5 682.9 675.1L682.1 672.8L684.5 672.4C687.4 671.9 689.6 670.2 690.9 667.6C692.4 664.3 692.1 660.2 689.9 656.5C684.7 647.8 676.5 636.5 676.4 636.4L674.1 633.3L677.9 633.2C679.5 633.2 684.2 632.5 685.9 629.8C687 628.1 686.9 625.7 685.7 622.6C683.8 618 665.2 592.9 650.1 572.6L640.6 566.9L575 627.1L579.6 634.9C614.7 674.3 642 694.7 650.9 688.1L652.1 687.2Z" fill="#444444"/>
<path d="M577.8 636.2C561 617.3 546.7 598.9 541.4 590.5C488.8 508.1 474 426.7 473.8 425.9C473.8 425.4 477.9 382.5 504.5 357.8L504.6 357.7L504.7 357.8C527.2 375.5 568.8 446.6 588.8 480.7C592.6 487.2 595.6 492.4 597.6 495.5C607 510.9 630 541.8 650.2 569.1L651.8 571.2L578 636.4L577.8 636.2Z" fill="#FC3E48"/>
<path d="M676.7 639.2C676.1 639.2 675.5 638.9 675.1 638.4L665.5 625C664.9 624.1 665.1 622.9 666 622.2C666.9 621.6 668.1 621.8 668.8 622.7L678.4 636.1C679 637 678.8 638.2 677.9 638.9C677.5 639.1 677.1 639.2 676.7 639.2Z" fill="#444444"/>
<path d="M682.401 675.5C681.801 675.5 681.201 675.2 680.801 674.7C668.701 659.1 652.601 637.8 644.101 626.6C643.401 625.7 643.601 624.5 644.501 623.8C645.401 623.1 646.601 623.3 647.301 624.2C655.801 635.4 671.901 656.7 684.001 672.3C684.701 673.2 684.501 674.4 683.601 675.1C683.301 675.4 682.801 675.5 682.401 675.5Z" fill="#444444"/>
<path d="M671 688C670.4 688 669.8 687.7 669.4 687.2L631.1 638.4C630.4 637.5 630.6 636.3 631.4 635.6C632.2 634.9 633.5 635.1 634.2 635.9L672.5 684.7C673.2 685.6 673 686.8 672.2 687.5C671.9 687.9 671.4 688 671 688Z" fill="#444444"/>
<path d="M652.8 689.9C652.2 689.9 651.7 689.7 651.3 689.2L618.8 650C618.1 649.1 618.2 647.9 619.1 647.2C620 646.5 621.2 646.6 621.9 647.5L654.4 686.7C655.1 687.6 655 688.8 654.1 689.5C653.7 689.8 653.3 689.9 652.8 689.9Z" fill="#444444"/>
<path d="M612.1 655.6C611.5 655.6 611 655.4 610.6 654.9C609.9 654.1 610 652.8 610.9 652.1L651.7 618C652.5 617.3 653.8 617.4 654.5 618.3C655.2 619.1 655.1 620.4 654.2 621.1L613.4 655.2C613 655.4 612.6 655.6 612.1 655.6Z" fill="#444444"/>
<path d="M577.701 638.4C577.101 638.4 576.601 638.2 576.201 637.7C575.501 636.9 575.601 635.6 576.401 634.9L650.501 569.7C651.301 569 652.601 569.1 653.301 569.9C654.001 570.7 653.9 572 653.1 572.7L579.001 637.9C578.601 638.2 578.201 638.4 577.701 638.4Z" fill="#444444"/>
<path d="M548.6 603.8C548 603.8 547.5 603.6 547.1 603.1C546.4 602.2 546.5 601 547.4 600.3L625.8 535.3C626.7 534.6 627.9 534.7 628.6 535.6C629.3 536.5 629.2 537.7 628.3 538.4L549.9 603.4C549.5 603.6 549.1 603.8 548.6 603.8Z" fill="#444444"/>
<path d="M641.3 582.8C640.7 582.8 640.1 582.5 639.7 582L613.9 548.5C613.2 547.6 613.4 546.4 614.3 545.7C615.2 545 616.4 545.2 617.1 546.1L642.9 579.6C643.6 580.5 643.4 581.7 642.5 582.4C642.2 582.7 641.7 582.8 641.3 582.8Z" fill="#444444"/>
<path d="M589.7 627.7C589.1 627.7 588.6 627.5 588.2 627L560.5 593.5C559.8 592.6 559.9 591.4 560.8 590.7C561.7 590 562.9 590.1 563.6 591L591.3 624.5C592 625.4 591.9 626.6 591 627.3C590.6 627.5 590.2 627.7 589.7 627.7Z" fill="#444444"/>
<path d="M614.801 604.6C614.201 604.6 613.601 604.3 613.201 603.9L586.201 570.6C585.501 569.7 585.601 568.5 586.501 567.8C587.401 567.1 588.601 567.2 589.301 568.1L616.301 601.4C617.001 602.3 616.901 603.5 616.001 604.2C615.701 604.5 615.201 604.6 614.801 604.6Z" fill="#444444"/>
<path d="M334.7 605.8C334.6 605.6 327.1 594.5 325.2 579.7C323.5 566 326.3 546.3 349.4 530C348.7 528.8 344.4 520.5 343.8 509.4C343.3 498.3 346.4 482.2 364.7 467.7C363.9 465.9 356.4 448.9 362.4 432.2C366.3 421.6 374.8 413.3 387.7 407.5C387.4 404.3 383 363.5 386.8 360.6C403.3 351.9 413.3 347.9 449 334.8H449.1L449.2 334.9C449.4 335 466 345.5 483.2 345.5C490.6 345.5 504.1 357.3 504.7 357.8C504.9 358.1 519.9 383.9 504.8 407.6C507.1 409.5 536.2 434.9 515.6 467.7C518.1 469.3 547.1 489 533.5 530C534.5 530.9 542.9 538.5 548.3 550.9C553.5 563 556.8 582.4 542.9 605.7L542.8 605.8H334.7Z" fill="#46B160"/>
<path d="M504.6 409.7H389.8C388.7 409.7 387.8 408.8 387.8 407.7C387.8 406.6 388.7 405.7 389.8 405.7H504.6C505.7 405.7 506.6 406.6 506.6 407.7C506.6 408.8 505.7 409.7 504.6 409.7Z" fill="#444444"/>
<path d="M515.1 469.9H365C363.9 469.9 363 469 363 467.9C363 466.8 363.9 465.9 365 465.9H515.1C516.2 465.9 517.1 466.8 517.1 467.9C517.1 469 516.2 469.9 515.1 469.9Z" fill="#444444"/>
<path d="M533.3 532.1H349.7C348.6 532.1 347.7 531.2 347.7 530.1C347.7 529 348.6 528.1 349.7 528.1H533.3C534.4 528.1 535.3 529 535.3 530.1C535.3 531.2 534.4 532.1 533.3 532.1Z" fill="#444444"/>
<path d="M420.7 359.3C431.746 359.3 440.7 350.346 440.7 339.3C440.7 328.254 431.746 319.3 420.7 319.3C409.655 319.3 400.7 328.254 400.7 339.3C400.7 350.346 409.655 359.3 420.7 359.3Z" fill="white"/>
<path d="M420.7 321.3C430.6 321.3 438.7 329.4 438.7 339.3C438.7 349.2 430.6 357.3 420.7 357.3C410.8 357.3 402.7 349.2 402.7 339.3C402.8 329.4 410.8 321.3 420.7 321.3ZM420.7 317.3C408.6 317.3 398.7 327.1 398.7 339.3C398.7 351.4 408.5 361.3 420.7 361.3C432.9 361.3 442.7 351.5 442.7 339.3C442.7 327.2 432.8 317.3 420.7 317.3Z" fill="#444444"/>
<path d="M462.9 374.2C452.2 374.2 442.8 366.7 436.4 353C416.3 310.1 423 293.3 440.2 280C440.3 279.9 456.6 268.1 475.5 268.1C482 268.1 488.2 269.5 493.8 272.3C508.2 279.4 511.5 307 501.5 336.4C493.7 359 478.2 374.2 462.9 374.2Z" fill="white"/>
<path d="M475.5 270.1C481.7 270.1 487.6 271.4 492.9 274.1C499 277.1 503.2 284.7 504.7 295.5C506.3 307.2 504.5 321.4 499.6 335.7C492.2 357.5 477.4 372.2 463 372.2C453.1 372.2 444.4 365.1 438.3 352.1C418.8 310.4 425 294.2 441.4 281.6C442 281.2 457.5 270.1 475.5 270.1ZM475.5 266.1C455.6 266.1 439 278.5 439 278.5C419.7 293.3 415.3 312.4 434.7 353.9C441.9 369.4 452.3 376.3 463 376.3C478.7 376.3 495.1 361.4 503.4 337.1C513.9 306.2 509.8 278.1 494.7 270.6C488.2 267.3 481.7 266.1 475.5 266.1Z" fill="#444444"/>
<path d="M494.6 270.5C467.6 257.2 438.9 278.5 438.9 278.5C425.8 288.6 419.6 300.6 423 320.2L508.6 295C507 283.1 502.2 274.2 494.6 270.5Z" fill="#444444"/>
<path d="M483.8 334.3C483.1 334.3 482.4 333.9 482 333.2C481.5 332.2 481.8 331 482.8 330.5C484 329.8 484.9 329 485.5 327.9C486.7 325.6 486.1 319.1 485.4 313C485.3 311.9 486.1 310.9 487.1 310.8C488.2 310.7 489.2 311.5 489.3 312.5C490.5 322.4 490.4 327.1 489 329.8C488 331.6 486.6 333 484.7 334C484.4 334.2 484.1 334.3 483.8 334.3Z" fill="#444444"/>
<path d="M472.4 320.4C471.3 320.4 470.4 319.5 470.4 318.4V316.1C470.4 315 471.3 314.1 472.4 314.1C473.5 314.1 474.4 315 474.4 316.1V318.4C474.4 319.5 473.5 320.4 472.4 320.4Z" fill="#444444"/>
<path d="M497.7 314.8C496.6 314.8 495.7 313.9 495.7 312.8V310.5C495.7 309.4 496.6 308.5 497.7 308.5C498.8 308.5 499.7 309.4 499.7 310.5V312.8C499.7 313.9 498.8 314.8 497.7 314.8Z" fill="#444444"/>
<path d="M476.2 345.9C471.2 345.9 467.1 342 466.9 336.9C466.8 335.8 467.7 334.9 468.8 334.8C469.9 334.8 470.8 335.6 470.9 336.7C471 339.8 473.6 342.1 476.6 341.9C476.9 341.9 477.1 341.9 477.5 341.8H477.7C478.8 341.6 479.8 342.3 480.1 343.4C480.3 344.5 479.6 345.5 478.5 345.8H478.3C477.9 345.9 477.3 346 476.7 346C476.5 345.9 476.4 345.9 476.2 345.9Z" fill="#444444"/>
<path d="M417.3 344C416.5 344 415.8 343.5 415.5 342.8C415.1 341.8 415.6 340.6 416.6 340.2L428.5 335.2C429.5 334.8 430.7 335.3 431.1 336.3C431.5 337.3 431 338.5 430 338.9L418.1 343.9C417.8 344 417.6 344 417.3 344Z" fill="#444444"/>
<path d="M446.3 272.2C458.174 272.2 467.8 262.574 467.8 250.7C467.8 238.826 458.174 229.2 446.3 229.2C434.426 229.2 424.8 238.826 424.8 250.7C424.8 262.574 434.426 272.2 446.3 272.2Z" fill="#444444"/>
<path d="M318.4 950H294.2C293.1 950 292.2 949.1 292.2 948C292.2 946.9 293.1 946 294.2 946H318.4C319.5 946 320.4 946.9 320.4 948C320.4 949.1 319.5 950 318.4 950Z" fill="#444444"/>
<path d="M293.2 977.7C292.3 977.7 291.5 977.1 291.3 976.2C291 975.1 291.6 974 292.7 973.7L319.5 966.1C320.6 965.8 321.7 966.4 322 967.5C322.3 968.6 321.7 969.7 320.6 970L293.8 977.6C293.6 977.7 293.4 977.7 293.2 977.7Z" fill="#444444"/>
<path d="M308.5 1001.6C307.9 1001.6 307.3 1001.3 306.9 1000.8C306.3 999.9 306.5 998.7 307.3 998L326.6 984C327.5 983.4 328.7 983.5 329.4 984.4C330 985.3 329.8 986.5 329 987.2L309.7 1001.2C309.3 1001.5 308.9 1001.6 308.5 1001.6Z" fill="#444444"/>
<path d="M632.6 930.4C566.9 930.4 521 914.4 494.1 901C464.9 886.5 451.1 871.7 450.9 871.6C450.6 871.3 419.4 838.7 428.9 814C429 813.8 432 809.1 448.2 809.1C464.3 809.1 488.2 817.6 488.4 817.7C567.2 839.1 641.2 871 668.2 895.2C683.3 908.7 695.2 923.2 694.5 925.7C694.4 926 694.2 926.1 693.9 926.2C672.9 929 652.3 930.4 632.6 930.4Z" fill="#444444"/>
<path d="M389.6 1035.2V1035C389.6 1034.6 392.7 990.5 410.7 946.3L410.8 946.1L411 946.3C426.1 957.4 438.9 973.8 448.1 993.7V993.8L431.1 1035.3H389.6V1035.2V1035.2Z" fill="#444444"/>
<path d="M433.9 910.3L437.4 896.9C441.9 889 447.1 880.8 452.6 872.5C453.4 871.2 473 841.5 489.8 819.1L500.4 807.6L592.7 842.7L577.8 863.8C577 865 569.8 875.6 561 889.6L495 988L433.9 910.3Z" fill="white"/>
<path d="M500.8 810L589.4 843.7L576 862.6V862.7C575.2 863.9 568.1 874.4 559.2 888.5L494.7 984.6L436 909.9L439.1 897.7C443.6 889.9 448.6 881.9 454.1 873.6C454.9 872.3 474.4 842.7 491.1 820.4L500.8 810ZM499.7 805.3L488.1 817.8C471.1 840.5 451 871.1 450.8 871.4C445.2 879.8 440 888.1 435.4 896.1L431.6 910.7L494.9 991.3L562.5 890.6C571.8 875.8 579.2 865 579.3 864.9L595.7 841.7L499.7 805.3Z" fill="#444444"/>
<path d="M460.5 1035.2V1035C453.3 996.2 435.7 964.8 410.7 946.5L410.6 946.4L410.7 946.3C417.8 929.1 426.1 912.2 435.5 896.1L435.6 895.9L435.8 896C436 896.1 452.3 904.3 473.1 941.9C503.9 897 530.8 887.6 548 887.6C557.1 887.6 562.5 890.4 562.6 890.4L562.8 890.5L562.7 890.7C529.3 943.7 522.7 964.7 523.1 972.9C523.6 984.2 529.9 993.3 536 1002.1C542.8 1011.9 549.9 1022 548.9 1035.1V1035.3H460.5V1035.2Z" fill="#BD9FCE"/>
<path d="M713.3 1035.2C701.5 998.7 675.2 968 641 950.7L640.9 950.6V950.5C642.6 933.1 644.9 915.9 647.9 899.2L650.8 881.8L748.7 878L756 911.2C760 942.4 762.7 960.5 764 965.1C769.1 983.1 777.8 992.7 785.5 1001.2C794 1010.5 801.3 1018.6 802.3 1035V1035.2H713.3V1035.2Z" fill="#BD9FCE"/>
<path d="M715.699 942.3C715.499 942 698.199 910.7 669.899 898.4L669.399 898.2L669.899 898C670.199 897.9 697.899 888.8 712.299 888.8C716.399 888.8 719.099 889.6 720.299 891.1C720.999 892 721.199 893.1 720.899 894.5C716.199 914.3 716.099 942 716.099 942.3H715.699Z" fill="white"/>
<path d="M716.1 944.3H715.7C715 944.3 714.4 944 714 943.4C714 943.4 713.9 943.3 713.8 943.1C710.8 937.9 694.4 911.2 669 900.2L668.6 900C667.8 899.7 667.3 899 667.3 898.1C667.3 897.2 667.8 896.5 668.6 896.2L669.1 896H669.2C669.5 895.9 697.4 886.7 712.2 886.7C717 886.7 720.1 887.7 721.8 889.8C722.9 891.2 723.2 892.9 722.8 894.9C718.1 914.7 718 942 718 942.3C718.1 943.4 717.2 944.3 716.1 944.3ZM674.9 898.5C694.4 908.5 708.1 926.7 714.3 936.1C714.6 926.7 715.6 908.4 719 894C719.2 893 719 892.6 718.8 892.3C718.5 892 717.2 890.8 712.4 890.8C701.7 890.8 683.2 896 674.9 898.5Z" fill="#444444"/>
<path d="M638.3 1035.2V1035C638.3 1034.7 636.2 999.7 640.9 950.5V950.2L641.2 950.3C659.8 959.7 675.8 972.6 688.8 988.8L688.9 988.9L682.8 1035.2H638.3Z" fill="#444444"/>
<path d="M725.8 914.3C708.2 914.3 680.5 911.7 647.9 899.4C611.4 885.6 595.3 876.9 578.1 866.9C575.5 865.4 571.8 863.2 567.2 860.4C553.9 852.5 533.8 840.5 516.9 831.5C507.6 826.5 498 822 488.2 818.1C488 818 464.1 809.5 448.1 809.5C432.2 809.5 429.2 814.1 429.1 814.2L428.7 814C437.2 794.1 667.4 482.4 669.7 479.3L669.8 479.2L706.4 482.1V482.3C706.7 485.3 739.6 785.8 755.8 911.3V911.5H755.6C755.7 911.5 744.5 914.3 725.8 914.3Z" fill="#8DB9E4"/>
<path d="M525.6 963.4H501.9C500.8 963.4 499.9 962.5 499.9 961.4C499.9 960.3 500.8 959.4 501.9 959.4H525.6C526.7 959.4 527.6 960.3 527.6 961.4C527.6 962.5 526.7 963.4 525.6 963.4Z" fill="#444444"/>
<path d="M499.8 992.1C499 992.1 498.2 991.6 497.9 990.7C497.6 989.7 498.1 988.5 499.2 988.2L524.8 979.8C525.8 979.5 527 980 527.3 981.1C527.6 982.1 527.1 983.3 526 983.6L500.4 992C500.2 992.1 500 992.1 499.8 992.1Z" fill="#444444"/>
<path d="M763.7 963.4H740C738.9 963.4 738 962.5 738 961.4C738 960.3 738.9 959.4 740 959.4H763.7C764.8 959.4 765.7 960.3 765.7 961.4C765.7 962.5 764.8 963.4 763.7 963.4Z" fill="#444444"/>
<path d="M745.6 992.1C744.8 992.1 744 991.6 743.7 990.7C743.4 989.7 743.9 988.5 745 988.2L770.5 979.8C771.5 979.5 772.7 980 773 981.1C773.3 982.1 772.8 983.3 771.7 983.6L746.2 992C746 992.1 745.8 992.1 745.6 992.1Z" fill="#444444"/>
<path d="M733.8 860.3C711.5 860.3 676 855.5 629 834.1C608.1 824.6 588.9 814.2 570.3 804.1C532.2 783.5 499.4 765.8 465.5 762.2C464.4 762.1 463.6 761.1 463.7 760C463.8 758.9 464.8 758.1 465.9 758.2C500.5 761.8 533.7 779.7 572.1 800.5C590.7 810.5 609.8 820.9 630.6 830.4C689.7 857.3 730 857.6 748.7 855.4C749.8 855.3 750.8 856.1 750.9 857.2C751 858.3 750.2 859.3 749.1 859.4C745.1 860 739.9 860.3 733.8 860.3Z" fill="#444444"/>
<path d="M723.8 641.2C722.8 641.2 721.9 640.4 721.8 639.4L704.4 482.5C704.3 481.4 705.1 480.4 706.2 480.3C707.3 480.2 708.3 481 708.4 482.1L725.8 639C725.9 640.1 725.1 641.1 724 641.2C723.9 641.2 723.9 641.2 723.8 641.2Z" fill="#444444"/>
<path d="M622.3 743.2L565.2 694.8L640.6 592L711.4 652.1L622.3 743.2Z" fill="#BD9FCE"/>
<path d="M696.6 668.8C696.1 668.8 695.7 668.6 695.3 668.3L627.3 610.5C626.5 609.8 626.4 608.5 627.1 607.7C627.8 606.9 629.1 606.8 629.9 607.5L697.9 665.3C698.7 666 698.8 667.3 698.1 668.1C697.7 668.6 697.2 668.8 696.6 668.8Z" fill="#444444"/>
<path d="M593.701 721C593.201 721 592.801 720.8 592.401 720.5C591.601 719.8 591.501 718.5 592.201 717.7L661.1 636.6C661.8 635.8 663.101 635.7 663.901 636.4C664.701 637.1 664.8 638.4 664.1 639.2L595.201 720.3C594.801 720.8 594.301 721 593.701 721Z" fill="#444444"/>
<path d="M663.1 640C662.3 640 661.6 639.5 661.3 638.8C660.9 638 661.2 637 661.8 636.5L710.7 595.3C719.6 587.7 733.1 588.9 740.7 597.8C741.9 599.2 742.9 600.8 743.9 602.8C748.7 613.6 743.8 626.1 733.1 630.9C731.1 631.8 729 632.3 726.9 632.6L663.3 640C663.3 640 663.2 640 663.1 640ZM724.4 594.3C720.5 594.3 716.5 595.6 713.3 598.4L669.5 635.3L726.5 628.7C728.2 628.5 729.9 628.1 731.5 627.4C740.2 623.5 744.1 613.3 740.3 604.6C739.5 603 738.7 601.6 737.7 600.5C734.2 596.3 729.3 594.3 724.4 594.3Z" fill="#444444"/>
<path d="M662.6 639.7C662.4 639.7 662.3 639.7 662.1 639.6C661.3 639.4 660.7 638.7 660.6 637.8L656.3 588.4C655.4 578.2 663 569.2 673.2 568.3C675.2 568.2 676.8 568.2 678.3 568.5C683.2 569.4 687.4 572.2 690.2 576.3C693 580.4 694 585.4 693.1 590.2C692.6 592.6 691.8 594.6 690.6 596.6L664.3 638.6C663.9 639.4 663.3 639.7 662.6 639.7ZM675 572.3C674.5 572.3 674 572.3 673.5 572.4C665.5 573.1 659.6 580.2 660.3 588.1L664.1 631.6L687.2 594.7C688.1 593.2 688.8 591.5 689.1 589.7C689.8 585.9 689 582 686.8 578.8C684.6 575.6 681.3 573.4 677.5 572.7C676.8 572.4 676 572.3 675 572.3Z" fill="#444444"/>
<path d="M635.6 782.4C614.6 782.4 588.4 755.8 588.1 755.5C588 755.4 578.4 745.8 570 736.4L553.9 719.4L615.5 653.2L626.5 664.2C633.2 672.3 640.1 680.1 646.2 686.9C655.2 697 663 705.8 664.4 709.5C665.4 712.2 665.4 714.4 664.3 716.1C662.4 719.3 657.5 720.3 656.6 720.4L653 721L655.4 723.7C656.8 725.2 664 733.4 674.3 744.5C678.3 748.8 680 752.7 679.4 756.2C678.8 760.2 675.2 762.5 674.8 762.7L673.8 763.3V764.4C673.8 768.6 672.4 771.5 669.7 773.3C667.3 774.8 664.4 775 662.9 775C662.2 775 661.8 775 661.6 774.9L660.2 774.8L659.6 776.1C657.9 779.9 654.7 781.8 650.4 781.8C647.5 781.8 645.1 780.9 644.8 780.8L644.1 780.5L643.4 780.8C641.1 781.9 638.4 782.4 635.6 782.4Z" fill="white"/>
<path d="M615.6 656L625.1 665.5C631.8 673.6 638.7 681.4 644.8 688.2C653.3 697.7 661.3 706.8 662.6 710.2C663.8 713.3 663 714.6 662.7 715.1C661.5 717 658.6 718.1 656.3 718.5L649.2 719.7L654 725.1C655.4 726.6 662.6 734.8 672.9 745.9C675.3 748.5 678.1 752.4 677.5 755.9C677 759.1 673.9 760.9 673.8 761L671.9 762.2V764.4C671.9 769.6 669.5 771.1 668.7 771.6C666.7 772.9 664 773 663 773C662.4 773 662 773 661.9 773L659.1 772.7L657.9 775.3C656.5 778.3 654.1 779.8 650.5 779.8C648 779.8 645.8 779.1 645.6 779L644.2 778.5L642.8 779.1C640.7 780 638.3 780.4 635.7 780.4C627.6 780.4 617.2 776 605.6 767.6C596.4 760.9 589.7 754.2 589.7 754.1C589.6 754 580.1 744.5 571.7 735.1L556.9 719.5L615.6 656ZM615.5 650.3L551.2 719.4L568.5 737.7C577 747.2 586.6 756.7 586.7 756.8C587 757.1 613.7 784.3 635.6 784.3C638.7 784.3 641.6 783.8 644.2 782.7C644.7 782.9 647.3 783.8 650.5 783.8C654.1 783.8 658.9 782.6 661.5 777C661.7 777 662.3 777.1 663 777.1C664.7 777.1 668.1 776.8 670.9 775.1C674.2 773 675.9 769.4 675.9 764.5C676.6 764.1 680.7 761.4 681.5 756.6C682.2 752.5 680.3 748 675.9 743.2C665.7 732.1 658.4 724 657 722.4C658.5 722.2 663.8 721 666.1 717.1C667.5 714.8 667.6 712 666.3 708.8C664.8 704.7 657.2 696.2 647.7 685.6C641.6 678.8 634.7 671 628 662.9L615.5 650.3Z" fill="#444444"/>
<path d="M558.6 775.1C558.1 775.1 557.6 775.1 557.1 775.1H557C556.8 775 553.1 772 556 760.5C558.8 749.1 568.4 737.6 568.5 737.5L568.6 737.3L568.8 737.5C577.3 746.9 586.9 756.5 587 756.6L587.1 756.7L587 756.8C586.9 757 577.6 775.1 558.6 775.1Z" fill="#444444"/>
<path d="M557.2 775.1L557 775C541.8 760.8 523.8 729.9 511 696.4C491 643.5 493.4 611.4 496.6 597C511 533 610.4 471.6 669.8 459.1H670L672.9 479.5L586.9 605.7C588 607.5 602.4 631.9 627.9 662.9L628 663V663.1C627.9 663.3 621.9 684.5 594.5 711C579 725.9 569.9 736.3 568.8 737.6C568.9 737.6 549.1 760.9 557.2 775.1Z" fill="#8DB9E4"/>
<path d="M654.699 725.3C654.199 725.3 653.699 725.1 653.299 724.7C650.099 721.5 646.699 717.9 643.999 714.9C643.299 714.1 643.299 712.8 644.199 712.1C644.999 711.4 646.299 711.4 646.999 712.3C649.599 715.2 652.999 718.8 656.099 721.9C656.899 722.7 656.899 723.9 656.099 724.7C655.699 725.1 655.199 725.3 654.699 725.3Z" fill="#444444"/>
<path d="M673.8 765.4C673.6 765.4 673.4 765.4 673.1 765.3C665 762.4 649 747.9 625.4 722.3C624.7 721.5 624.7 720.2 625.5 719.5C626.3 718.8 627.6 718.8 628.3 719.6C657.1 751 669.3 759.7 674.4 761.6C675.4 762 676 763.1 675.6 764.2C675.4 764.9 674.6 765.4 673.8 765.4Z" fill="#444444"/>
<path d="M660.5 776.9C660.2 776.9 660 776.9 659.7 776.7C649.7 772.5 625.1 749.5 611.6 735.2C610.8 734.4 610.9 733.1 611.7 732.4C612.5 731.7 613.8 731.7 614.5 732.5C627.9 746.7 652.3 769.3 661.2 773C662.2 773.4 662.7 774.6 662.3 775.6C662 776.4 661.3 776.9 660.5 776.9Z" fill="#444444"/>
<path d="M645.2 782.6C645 782.6 644.7 782.6 644.5 782.5C634.7 778.8 614.9 762.3 599.7 748.2C598.9 747.4 598.8 746.2 599.6 745.4C600.4 744.6 601.6 744.5 602.4 745.3C616.7 758.6 636.7 775.3 646 778.8C647 779.2 647.6 780.3 647.2 781.4C646.8 782.1 646 782.6 645.2 782.6Z" fill="#444444"/>
<path d="M556.8 777C556.3 777 555.8 776.8 555.4 776.5C540 762.1 521.8 731 509 697.2C508.6 696.2 509.1 695 510.2 694.6C511.2 694.2 512.4 694.7 512.8 695.8C525.4 729 543.2 759.6 558.2 773.5C559 774.3 559.1 775.5 558.3 776.3C557.9 776.8 557.3 777 556.8 777Z" fill="#444444"/>
<path d="M628.1 668C627.5 668 627 667.8 626.6 667.3C600 635 575.7 590.8 575.5 590.4C575 589.4 575.3 588.2 576.3 587.7C577.3 587.2 578.5 587.5 579 588.5C579.2 588.9 603.3 632.8 629.7 664.8C630.4 665.7 630.3 666.9 629.4 667.6C629 667.9 628.5 668 628.1 668Z" fill="#444444"/>
<path d="M586.799 607.6C586.399 607.6 585.999 607.5 585.699 607.3C584.799 606.7 584.599 605.4 585.199 604.5L628.899 540.4C629.499 539.5 630.799 539.3 631.699 539.9C632.599 540.5 632.799 541.8 632.199 542.7L588.499 606.8C588.099 607.3 587.399 607.6 586.799 607.6Z" fill="#444444"/>
<path d="M680.099 539C671.899 539 663.699 537.4 656.099 534.1C642.199 528.1 623.599 513.9 613.599 480C613.299 478.9 613.899 477.8 614.999 477.5C616.099 477.2 617.199 477.8 617.499 478.9C626.999 511.3 644.599 524.8 657.699 530.4C674.099 537.4 692.699 536.3 710.199 527.4C711.199 526.9 712.399 527.3 712.899 528.3C713.399 529.3 712.999 530.5 711.999 531C701.599 536.3 690.699 539 680.099 539Z" fill="#444444"/>
<path d="M526.9 733.4C526.8 733.4 526.7 733.4 526.6 733.4C525.5 733.3 524.7 732.3 524.9 731.2C526.2 720.8 532.4 709.3 543.3 697.1C547.5 692.4 552.8 687.2 558.4 681.7C573.9 666.4 593.1 647.5 599.3 628C599.6 626.9 600.8 626.4 601.8 626.7C602.9 627 603.4 628.2 603.1 629.2C596.6 649.5 576.9 668.9 561.2 684.5C555.7 689.9 550.5 695.1 546.3 699.7C535.9 711.3 530.1 722 528.9 731.6C528.8 732.7 527.9 733.4 526.9 733.4Z" fill="#444444"/>
<path d="M678.5 409.8L648.5 307.7C645 295.9 632.7 289.2 620.9 292.6C619.4 293 618 293.6 616.6 294.4L616.1 294.7C605.3 300.5 601.2 314 607.1 324.8C607.8 326.2 608.7 327.4 609.7 328.6L678.5 409.8Z" fill="#444444"/>
<path d="M642.6 477C631.6 477 622.6 468 622.6 457C622.6 446 631.6 437 642.6 437C653.6 437 662.6 446 662.6 457C662.5 468.1 653.6 477 642.6 477Z" fill="white"/>
<path d="M642.6 439.1C652.5 439.1 660.6 447.2 660.6 457.1C660.6 467 652.5 475.1 642.6 475.1C632.7 475.1 624.6 467 624.6 457.1C624.6 447.2 632.7 439.1 642.6 439.1ZM642.6 435.1C630.5 435.1 620.6 444.9 620.6 457.1C620.6 469.2 630.4 479.1 642.6 479.1C654.8 479.1 664.6 469.3 664.6 457.1C664.5 444.9 654.7 435.1 642.6 435.1Z" fill="#444444"/>
<path d="M683.701 495.4C672.201 495.4 662.701 487.1 657.101 472C640.601 427.6 648.601 411.4 666.801 399.6C666.901 399.5 681.801 390.4 699.101 390.4C707.101 390.4 714.401 392.4 720.901 396.2C734.701 404.5 735.701 432.2 723.301 460.7C714.101 481.8 698.601 495.4 683.701 495.4Z" fill="white"/>
<path d="M699.1 392.4C706.7 392.4 713.7 394.3 719.8 397.9C725.7 401.4 729.2 409.3 729.8 420.2C730.4 431.9 727.4 446 721.4 459.9C712.6 480.2 697.7 493.4 683.7 493.4C673.1 493.4 664.3 485.6 659 471.3C643 428.2 650.5 412.5 667.9 401.3C668.5 400.9 682.7 392.4 699.1 392.4ZM699.1 388.4C681 388.4 665.8 397.9 665.8 397.9C645.4 411.1 639.4 429.8 655.3 472.7C661.6 489.7 672.3 497.4 683.7 497.4C698.8 497.4 715.3 484.1 725.1 461.5C738.1 431.5 736.3 403.2 721.9 394.5C714.4 390 706.5 388.4 699.1 388.4Z" fill="#444444"/>
<path d="M706.1 457.2C705.3 457.2 704.6 456.7 704.2 455.9C703.8 454.9 704.3 453.7 705.3 453.3C706.4 452.9 707.4 452 708.1 451C709.1 449.3 709.5 444.8 709.2 436.1C709.2 435 710 434.1 711.1 434C712.2 434 713.1 434.8 713.2 435.9C713.5 445.7 713.1 450.4 711.5 453C710.3 454.8 708.7 456.2 706.8 456.9C706.6 457.2 706.3 457.2 706.1 457.2Z" fill="#444444"/>
<path d="M695.799 442.5C695.699 442.5 695.699 442.5 695.599 442.5C694.499 442.4 693.699 441.4 693.799 440.3L693.999 438C694.099 436.9 695.099 436.1 696.199 436.2C697.299 436.3 698.099 437.3 697.999 438.4L697.799 440.7C697.699 441.7 696.799 442.5 695.799 442.5Z" fill="#444444"/>
<path d="M721.5 439C721.4 439 721.4 439 721.3 439C720.2 438.9 719.4 437.9 719.5 436.8L719.7 434.5C719.8 433.4 720.8 432.6 721.9 432.7C723 432.8 723.8 433.8 723.7 434.9L723.5 437.2C723.4 438.2 722.5 439 721.5 439Z" fill="#444444"/>
<path d="M697.9 468.2C695.3 468.1 693 467.1 691.3 465.2C689.6 463.3 688.7 460.9 688.8 458.4C688.9 457.3 689.8 456.5 690.9 456.5C692 456.6 692.9 457.5 692.8 458.6C692.7 460.1 693.2 461.5 694.2 462.5C695.2 463.6 696.5 464.1 697.9 464.2C698.3 464.2 698.6 464.2 698.9 464.1C700 463.9 701 464.6 701.3 465.7C701.5 466.8 700.8 467.8 699.7 468.1C699 468.2 698.4 468.2 697.9 468.2Z" fill="#444444"/>
<path d="M638.8 461.2C637.9 461.2 637.1 460.6 636.9 459.7C636.6 458.6 637.3 457.5 638.4 457.3L650.9 454.2C652 453.9 653.1 454.6 653.3 455.7C653.6 456.8 652.9 457.9 651.8 458.1L639.3 461.2C639.1 461.2 639 461.2 638.8 461.2Z" fill="#444444"/>
<path d="M721.8 394.5C728.3 398.4 732.2 406.2 733.4 416.4C720.1 425.3 689.8 418 675.8 405.2C675.9 449.8 652.4 464.9 652.4 464.9C640 427.4 646.5 410.3 665.6 397.9C665.7 397.9 696.1 379 721.8 394.5Z" fill="#444444"/>
<path d="M483.8 632.3C462.8 632.3 425.3 617.6 404.6 608.7L394.9 599.4L426.4 514.2L440.7 519.5C485.7 544.1 497.6 551.5 499.6 553.4C502.1 555.7 503.3 557.9 503 560C502.5 563.5 498.2 566.1 497.4 566.5L494.2 568.3L497.4 570C499.5 571.1 510.3 577.1 518 582.2C521.5 584.5 523.6 588.1 523.7 591.8C523.7 594.8 522.4 597.5 520 599.2L518.3 600.5L519.7 602.1C522 604.8 522.7 607.8 521.6 610.7C520.6 613.5 517.9 615.7 515 616.2L513.6 616.4L513.4 617.8C512.3 625.3 506.2 626.9 501.3 626.9C499.8 626.9 498.7 626.7 498.4 626.7L497 626.5L496.3 627.7C494.6 630.8 490.4 632.3 483.8 632.3Z" fill="white"/>
<path d="M427.5 516.8L439.8 521.3C486.9 547.1 496.6 553.4 498.2 554.8C499.6 556.1 501.2 557.9 501 559.7C500.7 561.9 498 563.9 496.4 564.8L490 568.3L496.4 571.8C498.5 572.9 509.2 578.8 516.8 583.9C519.8 585.9 521.6 588.8 521.6 591.8C521.6 594.1 520.6 596.2 518.7 597.6L515.3 600.1L518.1 603.4C520 605.6 520.5 607.8 519.7 610C518.9 612.1 516.8 613.9 514.7 614.2L511.8 614.7L511.4 617.6C511.1 619.4 510.3 625 501.3 625C499.9 625 499 624.9 498.7 624.8L495.9 624.3L494.5 626.8C493.3 629 489.5 630.2 483.8 630.2C463.2 630.2 426.3 615.7 405.7 606.9L397.2 598.8L427.5 516.8ZM425.1 511.7L392.5 600L403.4 610.4C424.2 619.3 462.3 634.3 483.8 634.3C491.2 634.3 496 632.4 498 628.8C498.4 628.9 499.6 629 501.2 629C505.8 629 513.8 627.6 515.2 618.2C518.8 617.6 522 614.9 523.3 611.4C524.6 607.9 523.8 604.1 521 600.8C523.9 598.6 525.5 595.3 525.5 591.7C525.4 587.4 523 583.2 518.9 580.5C511.2 575.3 500.2 569.3 498.2 568.2C499.5 567.5 504.2 564.6 504.8 560.2C505.2 557.4 503.8 554.6 500.8 551.8C497.7 549 477.7 537.5 441.4 517.6L425.1 511.7Z" fill="#444444"/>
<path d="M403.4 610.4C384.9 602.4 360.2 591.2 351.5 585.7C350.2 584.9 348.8 584 347.4 583.1C321.4 567 277.8 540.1 277.8 495.6C277.8 474.8 288.9 450.4 309.8 425.1C329.7 401.1 357.1 378.2 387 360.6L387.2 360.5L387.3 360.8C403 419.8 377.5 478.6 375.9 482.2C378.5 483.6 410.7 500.8 441.6 517.7L441.8 517.8L403.8 610.5L403.4 610.4Z" fill="#FC3E48"/>
<path d="M375.5 484.3C375.2 484.3 374.9 484.2 374.6 484.1L350 472.1C349 471.6 348.6 470.4 349.1 469.4C349.6 468.4 350.8 468 351.8 468.5L376.4 480.5C377.4 481 377.8 482.2 377.3 483.2C377 483.9 376.2 484.3 375.5 484.3Z" fill="#444444"/>
<path d="M494.7 570.5C494.4 570.5 494.1 570.4 493.8 570.3L478.7 562.5C477.7 562 477.3 560.8 477.8 559.8C478.3 558.8 479.5 558.4 480.5 558.9L495.6 566.7C496.6 567.2 497 568.4 496.5 569.4C496.1 570.1 495.4 570.5 494.7 570.5Z" fill="#444444"/>
<path d="M518 602.8C517.8 602.8 517.6 602.8 517.4 602.7C502.1 597.9 454.1 574 452.1 573C451.1 572.5 450.7 571.3 451.2 570.3C451.7 569.3 452.9 568.9 453.9 569.4C454.4 569.6 503.6 594.2 518.6 598.9C519.7 599.2 520.2 600.4 519.9 601.4C519.6 602.3 518.9 602.8 518 602.8Z" fill="#444444"/>
<path d="M513.2 619.1C513 619.1 512.9 619.1 512.7 619C512.4 618.9 483.3 611 444.4 591.2C443.4 590.7 443 589.5 443.5 588.5C444 587.5 445.2 587.1 446.2 587.6C484.7 607.3 513.4 615.1 513.7 615.1C514.8 615.4 515.4 616.5 515.1 617.6C514.9 618.5 514.1 619.1 513.2 619.1Z" fill="#444444"/>
<path d="M496.9 628.7C496.7 628.7 496.5 628.7 496.3 628.6C476.2 622.6 456.5 614.7 437.8 605.1C436.8 604.6 436.4 603.4 436.9 602.4C437.4 601.4 438.6 601 439.6 601.5C458.1 611 477.6 618.8 497.5 624.8C498.6 625.1 499.2 626.2 498.8 627.3C498.6 628.1 497.8 628.7 496.9 628.7Z" fill="#444444"/>
<path d="M363.2 593.8C362.9 593.8 362.7 593.7 362.4 593.6C361.4 593.2 360.9 592 361.3 591L401.6 496.2C402 495.2 403.2 494.7 404.2 495.1C405.2 495.5 405.7 496.7 405.3 497.7L365 592.6C364.7 593.3 364 593.8 363.2 593.8Z" fill="#444444"/>
<path d="M435.9 531.2C435.6 531.2 435.3 531.1 435 531L397.7 510.9C396.7 510.4 396.4 509.2 396.9 508.2C397.4 507.2 398.6 506.9 399.6 507.4L436.9 527.5C437.9 528 438.2 529.2 437.7 530.2C437.3 530.8 436.6 531.2 435.9 531.2Z" fill="#444444"/>
<path d="M408 600C407.7 600 407.4 599.9 407.1 599.8L368.8 580.7C367.8 580.2 367.4 579 367.9 578C368.4 577 369.6 576.6 370.6 577.1L408.9 596.2C409.9 596.7 410.3 597.9 409.8 598.9C409.4 599.6 408.7 600 408 600Z" fill="#444444"/>
<path d="M426.5 553.7C426.2 553.7 425.9 553.6 425.6 553.5L388.3 533.4C387.3 532.9 387 531.7 387.5 530.7C388 529.7 389.2 529.4 390.2 529.9L427.5 550C428.5 550.5 428.8 551.7 428.3 552.7C427.9 553.3 427.2 553.7 426.5 553.7Z" fill="#444444"/>
<path d="M416.5 579C416.2 579 415.9 578.9 415.6 578.8L378.3 558.8C377.3 558.3 377 557.1 377.5 556.1C378 555.1 379.2 554.8 380.2 555.3L417.5 575.3C418.5 575.8 418.8 577 418.3 578C417.9 578.6 417.2 579 416.5 579Z" fill="#444444"/>
<path d="M403.5 612.2C403.2 612.2 403 612.2 402.7 612C401.7 611.6 401.2 610.4 401.6 609.4L439.5 517.1C439.9 516.1 441.1 515.6 442.1 516C443.1 516.4 443.6 517.6 443.2 518.6L405.4 611C405 611.7 404.3 612.2 403.5 612.2Z" fill="#444444"/>
</svg>
