<svg width="32" height="32" viewBox="0 0 32 32" fill="none" xmlns="http://www.w3.org/2000/svg">
<path d="M26 5H6C5.44772 5 5 5.44772 5 6V26C5 26.5523 5.44772 27 6 27H26C26.5523 27 27 26.5523 27 26V6C27 5.44772 26.5523 5 26 5Z" stroke="#444444" stroke-width="1.5" stroke-linecap="round" stroke-linejoin="round"/>
<path d="M22 3V7" stroke="#444444" stroke-width="1.5" stroke-linecap="round" stroke-linejoin="round"/>
<path d="M10 3V7" stroke="#444444" stroke-width="1.5" stroke-linecap="round" stroke-linejoin="round"/>
<path d="M5 11H27" stroke="#444444" stroke-width="1.5" stroke-linecap="round" stroke-linejoin="round"/>
<path d="M15.6437 14.0181C15.7922 13.7272 16.2078 13.7272 16.3563 14.0181L17.3327 15.9314L17.8671 15.6587L17.3327 15.9314C17.5652 16.387 18.0015 16.7039 18.5066 16.7843L20.628 17.1217C20.9505 17.173 21.079 17.5683 20.8482 17.7994L19.3302 19.3192C18.9688 19.6811 18.8022 20.194 18.8819 20.6992L19.2165 22.821C19.2674 23.1436 18.9311 23.3879 18.64 23.2399L16.7255 22.2659C16.2696 22.034 15.7304 22.034 15.2745 22.2659L13.36 23.2399C13.0689 23.3879 12.7326 23.1436 12.7835 22.821L13.1181 20.6992C13.1978 20.194 13.0312 19.6811 12.6698 19.3193L11.1518 17.7994C10.921 17.5683 11.0495 17.173 11.372 17.1217L13.4934 16.7843C13.9985 16.7039 14.4348 16.387 14.6673 15.9314L15.6437 14.0181Z" stroke="#444444" stroke-width="1.2" stroke-linecap="round" stroke-linejoin="round"/>
</svg>
