<svg width="225" height="71" viewBox="0 0 225 71" fill="none" xmlns="http://www.w3.org/2000/svg">
<path d="M182.584 0H42.4158C18.9902 0 0 11.7109 0 26.1571V44.8429C0 59.2891 18.9902 71 42.4158 71H182.584C206.01 71 225 59.2891 225 44.8429V26.1571C225 11.7109 206.01 0 182.584 0Z" fill="#78E5E1"/>
<path d="M53.5069 25.6873L76.7616 40.0281L57.4383 51.9444L34.1836 37.6037C31.621 36.0233 30.1813 33.8799 30.1813 31.645C30.1813 29.41 31.6209 27.2666 34.1836 25.6863C36.7462 24.106 40.2219 23.2181 43.8461 23.2181C47.4702 23.2181 50.9459 24.106 53.5085 25.6863L53.5069 25.6873Z" fill="#AB92DE"/>
<path d="M80.7335 37.6043L57.4788 51.9451L38.1555 40.0287L61.4102 25.688C63.9728 24.1076 67.4485 23.2198 71.0726 23.2198C74.6968 23.2198 78.1725 24.1076 80.7351 25.688C83.2978 27.2683 84.7374 29.4117 84.7374 31.6466C84.7374 33.8816 83.2978 36.025 80.7351 37.6053L80.7335 37.6043Z" fill="#AB92DE"/>
<path d="M102.861 26.4111H110.371V42.6931H122.473V46.7344H102.861V26.4111Z" fill="white"/>
<path d="M127.206 26.4111H134.716V46.7372H127.206V26.4111Z" fill="white"/>
<path d="M159.061 46.7344L149.83 40.1863V46.7344H142.32V26.4083H149.83V32.6346L157.006 26.4111H166.379L153.943 36.4697L169.345 46.7344H159.061Z" fill="white"/>
<path d="M193.738 42.6932V46.7344H172.167V26.4083H193.308V30.4495H179.68V34.6376H191.639V38.7973H179.68V42.6903L193.738 42.6932Z" fill="white"/>
</svg>
