<svg width="512" height="512" viewBox="0 0 512 512" fill="none" xmlns="http://www.w3.org/2000/svg">
<g clip-path="url(#clip0)">
<path d="M40.0645 207.377L288.54 47L362.333 161.329L113.858 321.706L40.0645 207.377Z" fill="#FFB649"/>
<path d="M472 244.143C472 281.975 441.332 312.643 403.5 312.643C365.668 312.643 335 281.975 335 244.143C335 206.312 365.668 175.643 403.5 175.643C441.332 175.643 472 206.312 472 244.143Z" fill="#FF5C00"/>
<path d="M275 232.643L375 405.643H175L275 232.643Z" fill="#038DB2"/>
<path d="M103.876 218.218L64.3172 310.069H43.4281L4 218.218H26.8474L54.656 283.826L82.8563 218.218H103.876Z" fill="#FFF3F3"/>
<path d="M192.06 293.011V310.069H121.298V218.218H190.363V235.276H142.318V255.221H184.749V271.754H142.318V293.011H192.06Z" fill="#FFF3F3"/>
<path d="M276.908 310.069L259.283 284.482H258.239H239.83V310.069H218.68V218.218H258.239C266.333 218.218 273.34 219.574 279.258 222.285C285.264 224.997 289.877 228.846 293.097 233.832C296.318 238.819 297.928 244.723 297.928 251.547C297.928 258.37 296.274 264.274 292.967 269.261C289.747 274.159 285.133 277.921 279.128 280.545L299.625 310.069H276.908ZM276.517 251.547C276.517 246.385 274.863 242.449 271.556 239.737C268.248 236.938 263.418 235.538 257.064 235.538H239.83V267.555H257.064C263.418 267.555 268.248 266.155 271.556 263.356C274.863 260.557 276.517 256.62 276.517 251.547Z" fill="#FFF3F3"/>
<path d="M354.505 311.643C347.281 311.643 340.274 310.681 333.485 308.756C326.783 306.744 321.387 304.164 317.296 301.015L324.477 285.006C328.394 287.893 333.05 290.211 338.447 291.961C343.843 293.71 349.239 294.585 354.636 294.585C360.641 294.585 365.08 293.71 367.952 291.961C370.825 290.124 372.261 287.718 372.261 284.744C372.261 282.557 371.39 280.764 369.65 279.364C367.996 277.877 365.82 276.696 363.122 275.821C360.511 274.947 356.942 273.984 352.416 272.935C345.453 271.273 339.752 269.611 335.313 267.948C330.874 266.286 327.045 263.618 323.824 259.944C320.691 256.27 319.124 251.372 319.124 245.248C319.124 239.912 320.56 235.101 323.433 230.814C326.305 226.441 330.613 222.985 336.358 220.448C342.189 217.912 349.283 216.643 357.638 216.643C363.47 216.643 369.171 217.343 374.741 218.743C380.312 220.142 385.186 222.154 389.364 224.779L382.836 240.918C374.393 236.107 365.95 233.701 357.508 233.701C351.589 233.701 347.194 234.663 344.322 236.588C341.536 238.512 340.144 241.049 340.144 244.198C340.144 247.348 341.754 249.709 344.974 251.284C348.282 252.771 353.286 254.258 359.988 255.745C366.951 257.407 372.652 259.07 377.091 260.732C381.53 262.394 385.316 265.018 388.45 268.605C391.67 272.191 393.28 277.046 393.28 283.169C393.28 288.418 391.801 293.229 388.841 297.603C385.969 301.89 381.617 305.301 375.786 307.838C369.954 310.375 362.861 311.643 354.505 311.643Z" fill="#FFF3F3"/>
<path d="M477.711 290.386H435.28L427.185 310.069H405.513L446.247 218.218H467.136L508 310.069H485.805L477.711 290.386ZM471.052 274.247L456.561 239.081L442.069 274.247H471.052Z" fill="#FFF3F3"/>
</g>
<defs>
<clipPath id="clip0">
<rect width="512" height="512" fill="white"/>
</clipPath>
</defs>
</svg>
