<svg width="192" height="192" viewBox="0 0 192 192" fill="none" xmlns="http://www.w3.org/2000/svg">
<path d="M27.6712 88.7401L112.481 34L137.668 73.0228L52.8584 127.763L27.6712 88.7401Z" fill="#FFB649"/>
<path d="M114.849 98.4018L149.014 157.306H80.6849L114.849 98.4018Z" fill="#C5C4FF"/>
<circle cx="137.233" cy="84.6575" r="26.7032" fill="#FF5C00"/>
<path d="M44.0846 80.0862L30.5844 111.22H23.4556L10 80.0862H17.7971L27.2874 102.324L36.9113 80.0862H44.0846Z" fill="#444444"/>
<path d="M74.1791 105.438V111.22H50.0303V80.0862H73.5999V85.8681H57.2037V92.6286H71.6841V98.2326H57.2037V105.438H74.1791Z" fill="#444444"/>
<path d="M103.135 111.22L97.1205 102.547H96.764H90.4818V111.22H83.2639V80.0862H96.764C99.5265 80.0862 101.918 80.5458 103.937 81.465C105.987 82.3842 107.561 83.6888 108.66 85.3789C109.759 87.069 110.309 89.0704 110.309 91.3832C110.309 93.696 109.744 95.6974 108.616 97.3875C107.517 99.048 105.942 100.323 103.893 101.212L110.888 111.22H103.135ZM103.002 91.3832C103.002 89.6338 102.437 88.2995 101.309 87.3803C100.18 86.4315 98.5314 85.9571 96.363 85.9571H90.4818V96.8093H96.363C98.5314 96.8093 100.18 96.3349 101.309 95.3861C102.437 94.4373 103.002 93.103 103.002 91.3832Z" fill="#444444"/>
<path d="M129.617 111.753C127.151 111.753 124.76 111.427 122.443 110.775C120.156 110.093 118.315 109.218 116.919 108.151L119.369 102.725C120.706 103.703 122.295 104.489 124.137 105.082C125.978 105.675 127.82 105.971 129.661 105.971C131.711 105.971 133.226 105.675 134.206 105.082C135.186 104.459 135.676 103.644 135.676 102.636C135.676 101.894 135.379 101.287 134.785 100.812C134.221 100.308 133.478 99.9079 132.557 99.6113C131.666 99.3148 130.448 98.9887 128.904 98.6329C126.528 98.0695 124.582 97.5061 123.067 96.9428C121.552 96.3794 120.245 95.475 119.146 94.2297C118.077 92.9844 117.542 91.3239 117.542 89.2483C117.542 87.4396 118.032 85.8088 119.013 84.3559C119.993 82.8734 121.463 81.7022 123.424 80.8423C125.414 79.9824 127.835 79.5525 130.686 79.5525C132.676 79.5525 134.622 79.7897 136.523 80.2641C138.424 80.7385 140.087 81.4205 141.513 82.31L139.285 87.7806C136.404 86.1498 133.523 85.3344 130.642 85.3344C128.622 85.3344 127.122 85.6606 126.141 86.3129C125.191 86.9652 124.716 87.8251 124.716 88.8925C124.716 89.96 125.265 90.7605 126.364 91.2943C127.493 91.7983 129.201 92.3024 131.488 92.8065C133.864 93.3698 135.81 93.9332 137.325 94.4966C138.84 95.0599 140.132 95.9495 141.201 97.1651C142.3 98.3808 142.85 100.026 142.85 102.102C142.85 103.881 142.345 105.512 141.335 106.994C140.355 108.447 138.869 109.604 136.879 110.464C134.889 111.323 132.468 111.753 129.617 111.753Z" fill="#444444"/>
<path d="M171.663 104.548H157.183L154.42 111.22H147.024L160.925 80.0862H168.054L182 111.22H174.426L171.663 104.548ZM169.391 99.0776L164.445 87.158L159.5 99.0776H169.391Z" fill="#444444"/>
</svg>
